<svg width="107" height="14" viewBox="0 0 107 14" fill="none" xmlns="http://www.w3.org/2000/svg">
<path d="M0.819763 3.3897H4.00622C5.03605 3.3897 5.93548 3.597 6.70117 4.01495C7.46685 4.4329 8.05533 5.01803 8.46994 5.77703C8.88455 6.53269 9.0885 7.39868 9.0885 8.37167C9.0885 9.34466 8.8812 10.2107 8.46994 10.9663C8.05533 11.722 7.46685 12.3104 6.70117 12.7284C5.93548 13.1463 5.0394 13.3536 4.00622 13.3536H0.819763V3.38635V3.3897ZM3.9661 11.9092C5.09958 11.9092 5.97895 11.5949 6.60421 10.9697C7.22946 10.3444 7.54376 9.47841 7.54376 8.37502C7.54376 7.27163 7.22946 6.40563 6.60421 5.78038C5.97895 5.15512 5.09958 4.84082 3.9661 4.84082H2.35114V11.9126H3.9661V11.9092Z" fill="#FAFFFF"/>
<path d="M11.0813 3.38965H12.6127V13.3569H11.0813V3.38965Z" fill="#FAFFFF"/>
<path d="M15.8125 12.8553C15.1538 12.3739 14.6957 11.6951 14.4349 10.8224L15.8827 10.2373C16.0298 10.7923 16.2973 11.2504 16.6752 11.6015C17.0563 11.9526 17.5144 12.1298 18.0527 12.1298C18.5543 12.1298 18.9789 11.9994 19.3266 11.7386C19.6744 11.4778 19.8482 11.12 19.8482 10.6653C19.8482 10.2473 19.6944 9.90294 19.3902 9.62877C19.0825 9.35459 18.5543 9.0871 17.8019 8.82965L17.1767 8.60562C16.4979 8.36488 15.9362 8.02718 15.4848 7.59585C15.0334 7.16453 14.8094 6.59277 14.8094 5.87724C14.8094 5.38573 14.9432 4.931 15.2073 4.51305C15.4715 4.0951 15.8426 3.76742 16.3207 3.52334C16.7989 3.27926 17.3405 3.16223 17.9424 3.16223C18.805 3.16223 19.4972 3.37288 20.0154 3.79417C20.5337 4.21547 20.8881 4.6936 21.072 5.22189L19.6944 5.80703C19.6008 5.47266 19.4069 5.18511 19.1093 4.94437C18.8117 4.70363 18.4272 4.58326 17.9524 4.58326C17.4776 4.58326 17.1132 4.70363 16.7955 4.94437C16.4812 5.18511 16.3207 5.49273 16.3207 5.86387C16.3207 6.20826 16.4612 6.49246 16.7454 6.71983C17.0296 6.9472 17.4676 7.16453 18.0594 7.36849L18.7014 7.59251C19.554 7.89009 20.2127 8.27461 20.6774 8.7494C21.1422 9.22419 21.3729 9.85279 21.3729 10.6419C21.3729 11.2905 21.2091 11.8355 20.8781 12.2769C20.547 12.7183 20.1258 13.0459 19.6108 13.2599C19.0959 13.4739 18.5676 13.5809 18.0293 13.5809C17.2034 13.5809 16.4612 13.3402 15.8025 12.8587L15.8125 12.8553Z" fill="#FAFFFF"/>
<path d="M23.3857 3.3897H26.8096C27.4048 3.3897 27.9498 3.5201 28.4446 3.77756C28.9395 4.03836 29.334 4.39947 29.6283 4.86423C29.9192 5.32899 30.0663 5.85394 30.0663 6.43572C30.0663 7.01751 29.9192 7.5458 29.6283 8.00722C29.334 8.47198 28.9428 8.83309 28.4446 9.09389C27.9464 9.35469 27.4014 9.48509 26.8096 9.48509H24.9171V13.3536H23.3857V3.38635V3.3897ZM26.8531 8.03731C27.3646 8.03731 27.7726 7.87682 28.0835 7.55583C28.3945 7.23485 28.5483 6.86371 28.5483 6.43572C28.5483 6.00774 28.3945 5.6366 28.0835 5.31561C27.7726 4.99463 27.3613 4.83414 26.8531 4.83414H24.9171V8.03731H26.8531Z" fill="#FAFFFF"/>
<path d="M33.8947 12.8822C33.1056 12.4174 32.4871 11.7888 32.0357 10.9964C31.5843 10.2039 31.3603 9.32792 31.3603 8.37165C31.3603 7.41538 31.5843 6.54269 32.0357 5.74692C32.4871 4.95448 33.1056 4.32588 33.8947 3.86112C34.6838 3.39636 35.5599 3.16565 36.5262 3.16565C37.4925 3.16565 38.3651 3.39636 39.1509 3.86112C39.9333 4.32588 40.5519 4.95448 41.0033 5.74692C41.4546 6.53935 41.6787 7.41538 41.6787 8.37165C41.6787 9.32792 41.4546 10.2006 41.0033 10.9964C40.5519 11.7888 39.9366 12.4174 39.1509 12.8822C38.3651 13.3469 37.4925 13.5776 36.5262 13.5776C35.5599 13.5776 34.6838 13.3469 33.8947 12.8822ZM38.3551 11.6517C38.9068 11.3307 39.3448 10.886 39.6625 10.3143C39.9835 9.74253 40.1439 9.09721 40.1439 8.37165C40.1439 7.64608 39.9835 7.00077 39.6625 6.42901C39.3415 5.85725 38.9068 5.41255 38.3551 5.09157C37.8034 4.77058 37.1915 4.61009 36.5262 4.61009C35.8608 4.61009 35.2489 4.77058 34.6972 5.09157C34.1455 5.41255 33.7075 5.85725 33.3899 6.42901C33.0689 7.00077 32.9084 7.64608 32.9084 8.37165C32.9084 9.09721 33.0689 9.74253 33.3899 10.3143C33.7108 10.886 34.1455 11.3307 34.6972 11.6517C35.2489 11.9727 35.8608 12.1332 36.5262 12.1332C37.1915 12.1332 37.8034 11.9727 38.3551 11.6517Z" fill="#FAFFFF"/>
<path d="M43.6514 3.38965H45.4603L49.9708 10.7121H50.0544L49.9708 8.78957V3.38965H51.4888V13.3569H49.9006L45.1694 5.65996H45.0858L45.1694 7.58253V13.3603H43.6514V3.39299V3.38965Z" fill="#FAFFFF"/>
<path d="M54.0233 3.38965H55.5546V13.3569H54.0233V3.38965ZM54.8157 0.771606H56.5142L55.4008 2.59387H54.1603L54.8157 0.771606Z" fill="#FAFFFF"/>
<path d="M57.0292 3.38965H58.701L60.9579 10.0167L61.3057 11.1435H61.3892L61.7637 10.0167L64.1176 3.38965H65.7894L62.1549 13.3569H60.5667L57.0325 3.38965H57.0292Z" fill="#FAFFFF"/>
<path d="M67.274 3.38965H73.3159V4.83743H68.8054V7.6494H72.8712V9.09719H68.8054V11.9092H73.3159V13.3569H67.274V3.38965Z" fill="#FAFFFF"/>
<path d="M75.4591 3.38965H76.9905V11.9092H81.277V13.3569H75.4591V3.38965Z" fill="#FAFFFF"/>
<path d="M86.0784 3.38965H87.8873L92.3978 10.7121H92.4814L92.3978 8.78957V3.38965H93.9158V13.3569H92.3276L87.5964 5.65996H87.5128L87.5964 7.58253V13.3603H86.0784V3.39299V3.38965Z" fill="#FAFFFF"/>
<path d="M98.4397 12.8822C97.6506 12.4174 97.0321 11.7888 96.5807 10.9964C96.1293 10.2039 95.9053 9.32792 95.9053 8.37165C95.9053 7.41538 96.1293 6.54269 96.5807 5.74692C97.0321 4.95448 97.6506 4.32588 98.4397 3.86112C99.2288 3.39636 100.105 3.16565 101.071 3.16565C102.037 3.16565 102.91 3.39636 103.696 3.86112C104.478 4.32588 105.097 4.95448 105.548 5.74692C106 6.53935 106.224 7.41538 106.224 8.37165C106.224 9.32792 106 10.2006 105.548 10.9964C105.097 11.7888 104.482 12.4174 103.696 12.8822C102.91 13.3469 102.037 13.5776 101.071 13.5776C100.105 13.5776 99.2288 13.3469 98.4397 12.8822ZM102.9 11.6517C103.452 11.3307 103.89 10.886 104.207 10.3143C104.528 9.74253 104.689 9.09721 104.689 8.37165C104.689 7.64608 104.528 7.00077 104.207 6.42901C103.886 5.85725 103.452 5.41255 102.9 5.09157C102.348 4.77058 101.737 4.61009 101.071 4.61009C100.406 4.61009 99.7939 4.77058 99.2422 5.09157C98.6905 5.41255 98.2525 5.85725 97.9348 6.42901C97.6139 7.00077 97.4534 7.64608 97.4534 8.37165C97.4534 9.09721 97.6139 9.74253 97.9348 10.3143C98.2558 10.886 98.6905 11.3307 99.2422 11.6517C99.7939 11.9727 100.406 12.1332 101.071 12.1332C101.737 12.1332 102.348 11.9727 102.9 11.6517Z" fill="#FAFFFF"/>
</svg>
