<svg width="137" height="28" viewBox="0 0 137 28" fill="none" xmlns="http://www.w3.org/2000/svg">
<path d="M44.1696 8.1074C40.4081 8.1074 37.3386 10.9695 37.3386 14.915C37.3386 18.8604 40.4047 21.7192 44.1696 21.7192C47.9345 21.7192 51.0006 18.8303 51.0006 14.915C51.0006 10.9996 47.9345 8.1074 44.1696 8.1074ZM44.1696 19.0377C42.1066 19.0377 40.3278 17.3358 40.3278 14.915C40.3278 12.4942 42.1066 10.789 44.1696 10.789C46.2326 10.789 48.0081 12.4641 48.0081 14.915C48.0081 17.3658 46.2293 19.0377 44.1696 19.0377ZM29.2672 8.1074C25.5056 8.1074 22.4362 10.9695 22.4362 14.915C22.4362 18.8604 25.5023 21.7192 29.2672 21.7192C33.0321 21.7192 36.0982 18.8303 36.0982 14.915C36.0982 10.9996 33.0287 8.1074 29.2672 8.1074ZM29.2672 19.0377C27.2075 19.0377 25.4287 17.3358 25.4287 14.915C25.4287 12.4942 27.2075 10.789 29.2672 10.789C31.3268 10.789 33.109 12.4641 33.109 14.915C33.109 17.3658 31.3302 19.0377 29.2672 19.0377ZM11.5427 10.1972V13.0827H18.4506C18.2433 14.7077 17.705 15.8913 16.8791 16.7172C15.8727 17.7236 14.3012 18.8303 11.5427 18.8303C7.28965 18.8303 3.96275 15.4031 3.96275 11.1501C3.96275 6.89701 7.2863 3.46981 11.5427 3.46981C13.8364 3.46981 15.5116 4.36924 16.7487 5.52947L18.785 3.49321C17.0563 1.84482 14.7626 0.580933 11.5427 0.580933C5.71815 0.580933 0.819763 5.32551 0.819763 11.1501C0.819763 16.9746 5.71815 21.7192 11.5427 21.7192C14.6857 21.7192 17.0563 20.686 18.9154 18.7534C20.8212 16.8476 21.4164 14.166 21.4164 11.9994C21.4164 11.3306 21.3662 10.7121 21.2626 10.1972H11.5461H11.5427ZM84.0355 12.4374C83.4671 10.916 81.7418 8.1074 78.2109 8.1074C74.6801 8.1074 71.7945 10.8659 71.7945 14.915C71.7945 18.73 74.6801 21.7192 78.5453 21.7192C81.6649 21.7192 83.4671 19.8134 84.216 18.7033L81.8956 17.1552C81.1198 18.2887 80.0666 19.0377 78.5453 19.0377C77.0239 19.0377 75.9406 18.3422 75.2451 16.978L84.3431 13.2131L84.0355 12.4407V12.4374ZM74.757 14.7077C74.6801 12.0763 76.7932 10.7388 78.3146 10.7388C79.5015 10.7388 80.508 11.3306 80.8423 12.1833L74.7603 14.711L74.757 14.7077ZM67.3576 21.3046H70.3467V1.30315H67.3576V21.3046ZM62.4592 9.62874H62.3555C61.6868 8.82961 60.3962 8.1074 58.7745 8.1074C55.3707 8.1074 52.2545 11.0966 52.2545 14.9384C52.2545 18.7802 55.3741 21.7159 58.7745 21.7159C60.3995 21.7159 61.6868 20.9937 62.3555 20.1678H62.4592V21.1475C62.4592 23.7521 61.0682 25.1431 58.8247 25.1431C56.9957 25.1431 55.8589 23.829 55.3975 22.7223L52.7928 23.8056C53.5384 25.6112 55.5245 27.828 58.8247 27.828C62.3288 27.828 65.2946 25.765 65.2946 20.7395V8.522H62.4592V9.63208V9.62874ZM59.032 19.0377C56.969 19.0377 55.2437 17.3123 55.2437 14.9417C55.2437 12.5711 56.969 10.7923 59.032 10.7923C61.095 10.7923 62.6665 12.5444 62.6665 14.9417C62.6665 17.3391 61.0682 19.0377 59.032 19.0377ZM98.0419 1.30649H90.8899V21.308H93.8724V13.7313H98.0419C101.352 13.7313 104.602 11.334 104.602 7.51892C104.602 3.70386 101.349 1.30649 98.0419 1.30649ZM98.1188 10.9461H93.8724V4.08838H98.1188C100.352 4.08838 101.619 5.93739 101.619 7.51557C101.619 9.09376 100.352 10.9428 98.1188 10.9428M116.569 8.07062C114.409 8.07062 112.169 9.02354 111.242 11.13L113.894 12.2368C114.459 11.13 115.516 10.7689 116.622 10.7689C118.167 10.7689 119.735 11.6951 119.762 13.3401V13.5474C119.22 13.2398 118.063 12.7751 116.649 12.7751C113.794 12.7751 110.885 14.3432 110.885 17.2789C110.885 19.9571 113.229 21.6791 115.85 21.6791C117.859 21.6791 118.963 20.7797 119.658 19.7231H119.762V21.2678H122.644V13.5976C122.644 10.0467 119.996 8.06727 116.572 8.06727M116.211 19.0276C115.231 19.0276 113.867 18.5395 113.867 17.3291C113.867 15.7843 115.566 15.1958 117.034 15.1958C118.344 15.1958 118.963 15.4801 119.762 15.8646C119.531 17.7169 117.936 19.031 116.211 19.031M133.143 8.50528L129.719 17.1786H129.616L126.065 8.50528H122.848L128.174 20.6259L125.138 27.3666H128.251L136.46 8.50528H133.14H133.143ZM106.254 21.3013H109.24V1.29981H106.254V21.3013Z" fill="#FAFFFF"/>
</svg>
