<svg width="37" height="42" viewBox="0 0 37 42" fill="none" xmlns="http://www.w3.org/2000/svg">
<path d="M17.1927 19.8786L0.156982 37.9575C0.156982 37.9575 0.156982 37.9642 0.156982 37.9675C0.678585 39.9302 2.47076 41.3746 4.60064 41.3746C5.45326 41.3746 6.24904 41.1439 6.93448 40.7427L6.98798 40.7093L26.1636 29.6453L17.1893 19.8752L17.1927 19.8786Z" fill="#FAFFFF"/>
<path d="M34.4257 16.7991L34.409 16.789L26.1303 11.991L16.8049 20.2898L26.1637 29.6452L34.3957 24.8939C35.8401 24.1115 36.8198 22.5902 36.8198 20.8382C36.8198 19.0861 35.8535 17.5815 34.4224 16.7991" fill="#EBF1F6"/>
<path d="M0.157149 3.64197C0.0534969 4.0198 0 4.41769 0 4.82561V36.7738C0 37.185 0.0534969 37.5796 0.157149 37.9574L17.7746 20.3399L0.153806 3.64197H0.157149Z" fill="#EBF1F6"/>
<path d="M17.3164 20.8014L26.1335 11.9877L6.98129 0.883545C6.28582 0.465594 5.47332 0.224854 4.60398 0.224854C2.47745 0.224854 0.681929 1.67264 0.156982 3.63868C0.156982 3.63868 0.156982 3.63868 0.156982 3.64202L17.3197 20.8014H17.3164Z" fill="#FAFFFF"/>
</svg>
