<svg width="326" height="218" viewBox="0 0 326 218" fill="none" xmlns="http://www.w3.org/2000/svg">
<circle cx="67.9786" cy="149.642" r="63.9786" fill="#005EBD" stroke="#E9F4FF" stroke-width="8"/>
<path d="M65.7208 151.081C65.7208 151.081 65.7208 151.108 65.7208 151.081C65.7208 151.108 65.7208 151.108 65.7208 151.081C65.8782 151.239 66.1405 151.37 66.4553 151.317C66.5078 151.317 78.312 147.986 79.2825 147.724C79.335 147.698 79.3875 147.698 79.4137 147.671C79.7285 147.488 79.8334 147.173 79.8334 146.937C79.8334 146.727 79.7285 146.439 79.4662 146.281C79.4137 146.229 73.3542 143.449 73.3542 143.449C73.3542 143.449 70.5737 137.39 70.5474 137.337C70.39 137.101 70.1277 136.996 69.8916 136.97C69.6293 136.97 69.3408 137.075 69.1571 137.39C69.1309 137.442 69.1047 137.468 69.1047 137.521C68.8424 138.491 65.5109 150.294 65.5109 150.347C65.4323 150.662 65.5634 150.924 65.7208 151.081Z" fill="white"/>
<path d="M75.9774 142.006L76.0561 141.927C76.0824 141.901 76.0824 141.901 76.1086 141.875C76.1348 141.849 76.1348 141.849 76.161 141.822L76.2397 141.744C76.266 141.717 76.266 141.717 76.2922 141.691C76.3184 141.665 76.3184 141.665 76.3447 141.639L76.4234 141.56C76.4496 141.534 76.4496 141.534 76.4758 141.508C76.5021 141.481 76.5021 141.481 76.5283 141.455L76.607 141.376C76.6332 141.35 76.6332 141.35 76.6595 141.324C76.6857 141.298 76.6857 141.298 76.7119 141.271L76.7906 141.193C77.1054 140.878 77.1054 140.353 76.7906 140.039C76.4758 139.724 75.9512 139.724 75.6364 140.039L75.5577 140.117C75.5315 140.144 75.5315 140.144 75.5053 140.17C75.479 140.196 75.479 140.196 75.4528 140.222L75.3741 140.301C75.3479 140.327 75.3479 140.327 75.3216 140.353C75.2954 140.38 75.2954 140.38 75.2692 140.406L75.1905 140.485C75.1642 140.511 75.1642 140.511 75.138 140.537C75.1118 140.563 75.1118 140.563 75.0856 140.59L75.0069 140.668C74.9806 140.694 74.9806 140.694 74.9544 140.721C74.9282 140.747 74.9282 140.747 74.9019 140.773L74.8232 140.852C74.5085 141.167 74.5085 141.691 74.8232 142.006C75.138 142.321 75.6626 142.321 75.9774 142.006ZM78.9154 136.76L78.8367 136.839C78.8104 136.865 78.8104 136.865 78.7842 136.891C78.758 136.917 78.758 136.917 78.7317 136.944L78.6531 137.022C78.6268 137.049 78.6268 137.049 78.6006 137.075C78.5744 137.101 78.5744 137.101 78.5481 137.127L78.4694 137.206C78.4432 137.232 78.4432 137.232 78.417 137.258C78.3907 137.285 78.3907 137.285 78.3645 137.311L78.2858 137.39C78.2596 137.416 78.2596 137.416 78.2333 137.442C78.2071 137.468 78.2071 137.468 78.1809 137.494L78.1022 137.573C77.7874 137.888 77.7874 138.412 78.1022 138.727C78.417 139.042 78.9416 139.042 79.2564 138.727L79.3351 138.649C79.3613 138.622 79.3613 138.622 79.3875 138.596C79.4138 138.57 79.4138 138.57 79.44 138.544L79.5187 138.465C79.5449 138.439 79.5449 138.439 79.5712 138.412C79.5974 138.386 79.5974 138.386 79.6236 138.36L79.7023 138.281C79.7285 138.255 79.7285 138.255 79.7548 138.229C79.781 138.203 79.781 138.203 79.8072 138.176L79.8859 138.098C79.9122 138.071 79.9122 138.071 79.9384 138.045C79.9646 138.019 79.9646 138.019 79.9909 137.993L80.0696 137.914C80.3843 137.599 80.3843 137.075 80.0696 136.76C79.7548 136.445 79.2301 136.445 78.9154 136.76ZM83.3485 133.481C83.0337 133.167 82.5091 133.167 82.1943 133.481L82.1156 133.56C82.0894 133.586 82.0894 133.586 82.0632 133.612C82.0369 133.639 82.0369 133.639 82.0107 133.665L81.932 133.744C81.9058 133.77 81.9058 133.77 81.8795 133.796C81.8533 133.822 81.8533 133.822 81.8271 133.849L81.7484 133.927C81.7222 133.953 81.7222 133.953 81.6959 133.98C81.6697 134.006 81.6697 134.006 81.6435 134.032L81.5648 134.111C81.5385 134.137 81.5385 134.137 81.5123 134.163C81.4861 134.19 81.4861 134.19 81.4598 134.216L81.3811 134.294C81.0664 134.609 81.0664 135.134 81.3811 135.449C81.6959 135.763 82.2206 135.763 82.5353 135.449L82.614 135.37C82.6403 135.344 82.6403 135.344 82.6665 135.317C82.6927 135.291 82.6927 135.291 82.719 135.265L82.7976 135.186C82.8239 135.16 82.8239 135.16 82.8501 135.134C82.8763 135.108 82.8763 135.108 82.9026 135.081L82.9813 135.003C83.0075 134.976 83.0075 134.976 83.0337 134.95C83.06 134.924 83.06 134.924 83.0862 134.898L83.1649 134.819C83.1911 134.793 83.1911 134.793 83.2174 134.767C83.2436 134.74 83.2436 134.74 83.2698 134.714L83.3485 134.635C83.6633 134.321 83.6633 133.796 83.3485 133.481ZM79.7285 149.35L79.4138 149.429C78.2333 149.77 77.1579 150.058 76.1873 150.347C76.1873 150.557 76.2135 150.767 76.2135 151.003C76.2135 156.721 71.5705 161.39 65.8258 161.39C60.1073 161.39 55.4381 156.747 55.4381 151.003C55.4381 145.258 60.0811 140.616 65.8258 140.616C66.0356 140.616 66.2455 140.616 66.4554 140.642C66.7439 139.567 67.0849 138.386 67.4522 137.075C67.4784 136.996 67.5046 136.917 67.5309 136.865C66.98 136.786 66.4029 136.76 65.8258 136.76C57.9825 136.76 51.582 143.16 51.582 151.003C51.582 158.845 57.9825 165.245 65.8258 165.245C73.6953 165.245 80.0696 158.845 80.0696 151.003C80.0696 150.426 80.0433 149.849 79.9646 149.271C79.9122 149.324 79.8335 149.35 79.7285 149.35Z" fill="white"/>
<path d="M64.1996 148.668C64.4357 147.855 64.8029 146.491 65.4325 144.288C61.9174 144.498 59.1107 147.435 59.1107 151.003C59.1107 154.701 62.1273 157.744 65.8522 157.744C69.4459 157.744 72.3839 154.937 72.5675 151.396C70.3902 151.999 69.0262 152.393 68.213 152.629C67.6884 153.389 66.8228 153.888 65.8522 153.888C64.2783 153.888 62.9929 152.603 62.9929 151.029C62.9667 150.032 63.4651 149.193 64.1996 148.668Z" fill="white"/>
<path d="M58.1908 202.817L57.386 202.617L56.6416 197.525L56.5763 197.509L53.5363 201.661L52.7316 201.461L54.1143 195.893L54.745 196.05L53.6945 200.28L53.7489 200.294L56.5394 196.495L57.1484 196.647L57.8378 201.309L57.8922 201.323L58.9427 197.092L59.5735 197.249L58.1908 202.817Z" fill="white"/>
<path d="M50.3688 194.524L48.0304 199.763L44.8687 198.352L45.1198 197.789L47.6472 198.917L48.4373 197.147L46.0737 196.092L46.3249 195.529L48.6885 196.584L49.4832 194.804L46.9149 193.657L47.1661 193.095L50.3688 194.524Z" fill="white"/>
<path d="M40.346 195.849L43.3242 190.946L43.918 191.307L40.9397 196.21L40.346 195.849Z" fill="white"/>
<path d="M36.2342 185.683L32.2296 189.791L29.7503 187.374L30.1804 186.933L32.1623 188.865L33.5154 187.477L31.662 185.67L32.0921 185.229L33.9456 187.035L35.3066 185.639L33.2926 183.676L33.7228 183.235L36.2342 185.683Z" fill="white"/>
<path d="M26.6014 183.888L26.1184 183.214L28.8538 178.855L28.8147 178.8L23.808 179.989L23.3251 179.315L27.9885 175.974L28.3671 176.502L24.8239 179.041L24.8566 179.086L29.4439 178.005L29.8094 178.515L27.3105 182.511L27.3432 182.557L30.8863 180.018L31.2648 180.546L26.6014 183.888Z" fill="white"/>
<path d="M24.0204 168.156L18.6205 170.094L17.4586 166.856L18.0387 166.648L18.9659 169.232L20.7905 168.577L19.9503 166.236L20.5304 166.028L21.3706 168.369L23.7858 167.503L24.0204 168.156Z" fill="white"/>
<path d="M18.1484 157.087C18.7439 156.979 19.2779 156.994 19.7504 157.131C20.2229 157.268 20.6106 157.503 20.9134 157.835C21.2161 158.168 21.4109 158.575 21.4976 159.056C21.5844 159.538 21.5439 159.987 21.3761 160.405C21.2084 160.822 20.927 161.177 20.532 161.47C20.137 161.764 19.6417 161.964 19.0462 162.071C18.4507 162.178 17.9167 162.164 17.4442 162.027C16.9717 161.89 16.5841 161.655 16.2813 161.322C15.9785 160.99 15.7837 160.583 15.697 160.101C15.6103 159.62 15.6508 159.17 15.8185 158.753C15.9862 158.336 16.2676 157.98 16.6627 157.687C17.0577 157.394 17.5529 157.194 18.1484 157.087ZM18.2676 157.748C17.7787 157.836 17.3808 157.992 17.0739 158.217C16.7667 158.439 16.5517 158.704 16.4289 159.013C16.3058 159.32 16.2751 159.644 16.3366 159.986C16.3982 160.328 16.5404 160.622 16.7631 160.868C16.9855 161.113 17.2797 161.287 17.6455 161.39C18.0109 161.491 18.4381 161.497 18.927 161.409C19.4159 161.321 19.814 161.166 20.1212 160.944C20.4281 160.72 20.6431 160.454 20.7662 160.147C20.889 159.839 20.9196 159.514 20.858 159.172C20.7964 158.83 20.6544 158.537 20.432 158.292C20.2093 158.046 19.9152 157.872 19.5497 157.771C19.1839 157.668 18.7565 157.66 18.2676 157.748Z" fill="white"/>
<path d="M16.6846 148.197L16.6859 148.892C16.4861 148.933 16.3107 149.005 16.1596 149.108C16.0085 149.209 15.8818 149.333 15.7793 149.479C15.675 149.623 15.5968 149.783 15.5449 149.958C15.4929 150.134 15.4671 150.317 15.4674 150.507C15.468 150.855 15.5564 151.169 15.7324 151.451C15.9085 151.731 16.1675 151.954 16.5096 152.119C16.8516 152.283 17.271 152.364 17.7678 152.363C18.2645 152.363 18.6837 152.28 19.0251 152.115C19.3666 151.948 19.6248 151.724 19.7999 151.444C19.9749 151.161 20.0622 150.847 20.0615 150.499C20.0612 150.309 20.0347 150.126 19.9821 149.95C19.9295 149.775 19.8517 149.615 19.7488 149.472C19.6439 149.326 19.5158 149.203 19.3643 149.103C19.211 149 19.0353 148.929 18.8373 148.888L18.836 148.193C19.1293 148.245 19.3919 148.34 19.6237 148.477C19.8555 148.615 20.0529 148.787 20.2157 148.992C20.3767 149.197 20.4994 149.427 20.5839 149.683C20.6684 149.937 20.7109 150.209 20.7114 150.498C20.7123 150.987 20.5936 151.423 20.3552 151.804C20.1168 152.186 19.7775 152.486 19.3371 152.705C18.8968 152.924 18.3741 153.035 17.769 153.036C17.1639 153.037 16.6408 152.928 16.1997 152.711C15.7585 152.493 15.4181 152.194 15.1784 151.813C14.9387 151.433 14.8184 150.998 14.8175 150.509C14.817 150.219 14.8585 149.947 14.9421 149.693C15.0257 149.437 15.1485 149.206 15.3106 149.001C15.4709 148.795 15.6667 148.623 15.898 148.484C16.1275 148.346 16.3897 148.25 16.6846 148.197Z" fill="white"/>
<path d="M18.9349 139.418C19.5308 139.523 20.0268 139.722 20.4229 140.013C20.8189 140.305 21.1016 140.659 21.2708 141.076C21.44 141.493 21.4821 141.942 21.3971 142.424C21.3121 142.906 21.1188 143.313 20.8172 143.647C20.5156 143.981 20.1288 144.217 19.6568 144.356C19.1848 144.494 18.6509 144.511 18.055 144.406C17.4591 144.301 16.9631 144.102 16.5671 143.81C16.171 143.519 15.8883 143.164 15.7191 142.748C15.5499 142.331 15.5078 141.882 15.5928 141.4C15.6778 140.918 15.8711 140.51 16.1727 140.177C16.4743 139.843 16.8611 139.607 17.3331 139.468C17.8051 139.33 18.3391 139.313 18.9349 139.418ZM18.8181 140.08C18.3289 139.994 17.9016 140.003 17.5362 140.107C17.171 140.21 16.8776 140.384 16.6557 140.632C16.4341 140.877 16.2932 141.171 16.2328 141.513C16.1725 141.855 16.2042 142.18 16.3281 142.488C16.4523 142.795 16.6683 143.059 16.976 143.282C17.284 143.504 17.6826 143.657 18.1718 143.744C18.661 143.83 19.0882 143.822 19.4533 143.719C19.8187 143.615 20.1122 143.44 20.3338 143.195C20.5556 142.948 20.6967 142.653 20.7571 142.311C20.8175 141.969 20.7855 141.645 20.6613 141.338C20.5374 141.03 20.3215 140.765 20.0135 140.544C19.7058 140.321 19.3073 140.166 18.8181 140.08Z" fill="white"/>
<path d="M17.9045 127.848L26.5132 131.709L26.2839 132.22L17.6753 128.359L17.9045 127.848Z" fill="white"/>
<path d="M29.4673 122.822L29.0216 123.398L25.7732 118.221L26.212 117.654L32.0386 119.498L31.5929 120.075L26.7242 118.475L26.6968 118.511L29.4673 122.822ZM27.8594 121.238L29.6559 118.916L30.1433 119.293L28.3469 121.615L27.8594 121.238Z" fill="white"/>
<path d="M34.3266 109.24L34.9966 108.751L39.3778 111.45L39.4321 111.411L38.2017 106.414L38.8716 105.925L42.2518 110.561L41.7267 110.944L39.1586 107.422L39.1133 107.455L40.2328 112.033L39.7258 112.403L35.709 109.937L35.6638 109.97L38.2319 113.492L37.7068 113.875L34.3266 109.24Z" fill="white"/>
<path d="M45.7065 108.569L43.1923 103.412L46.3045 101.895L46.5746 102.449L44.0869 103.662L44.9364 105.404L47.263 104.27L47.5331 104.824L45.2064 105.958L46.0609 107.711L48.5889 106.478L48.859 107.032L45.7065 108.569Z" fill="white"/>
<path d="M52.2814 105.68L50.5451 100.212L51.2073 100.001L52.757 104.882L55.2988 104.075L55.4853 104.662L52.2814 105.68Z" fill="white"/>
<path d="M58.7113 103.875L57.8471 98.2036L58.5339 98.099L58.9187 100.625L61.9428 100.164L61.558 97.6382L62.2448 97.5335L63.109 103.205L62.4222 103.31L62.0357 100.773L59.0115 101.234L59.3981 103.771L58.7113 103.875Z" fill="white"/>
<path d="M71.6972 100.199C71.6819 100.804 71.5595 101.324 71.33 101.759C71.1004 102.194 70.7922 102.526 70.4053 102.755C70.0185 102.985 69.5805 103.093 69.0913 103.081C68.6022 103.069 68.1702 102.938 67.7954 102.69C67.4205 102.441 67.1295 102.094 66.9221 101.648C66.7148 101.202 66.6188 100.676 66.634 100.071C66.6493 99.4662 66.7716 98.9463 67.0012 98.5112C67.2307 98.0761 67.5389 97.7438 67.9258 97.5145C68.3127 97.2851 68.7507 97.1766 69.2398 97.1889C69.729 97.2012 70.161 97.3317 70.5358 97.5803C70.9106 97.8288 71.2017 98.1762 71.409 98.6223C71.6164 99.0684 71.7124 99.5939 71.6972 100.199ZM71.0251 100.182C71.0376 99.6852 70.9651 99.264 70.8075 98.9182C70.6518 98.5724 70.4353 98.3082 70.1578 98.1256C69.8822 97.943 69.5707 97.8474 69.2235 97.8386C68.8762 97.8299 68.5594 97.9097 68.2731 98.0781C67.9886 98.2465 67.759 98.4994 67.5842 98.8369C67.4113 99.1744 67.3186 99.5915 67.3061 100.088C67.2936 100.585 67.3652 101.006 67.5208 101.352C67.6784 101.698 67.895 101.962 68.1706 102.144C68.4481 102.327 68.7604 102.423 69.1077 102.431C69.4549 102.44 69.7708 102.36 70.0553 102.192C70.3416 102.023 70.5712 101.77 70.7441 101.433C70.9189 101.095 71.0125 100.678 71.0251 100.182Z" fill="white"/>
<path d="M75.3913 103.513L76.5118 97.8863L78.4129 98.2649C78.8525 98.3524 79.1984 98.4994 79.4505 98.7057C79.7031 98.9103 79.8712 99.1561 79.9549 99.4431C80.0387 99.7302 80.0475 100.04 79.9815 100.371C79.9155 100.703 79.7892 100.983 79.6026 101.212C79.416 101.442 79.168 101.602 78.8586 101.693C78.5495 101.782 78.177 101.783 77.7411 101.696L76.2026 101.389L76.3252 100.774L77.8417 101.076C78.1421 101.136 78.3926 101.14 78.5933 101.089C78.7958 101.037 78.9543 100.94 79.0688 100.795C79.1855 100.649 79.2663 100.463 79.3112 100.238C79.356 100.012 79.3531 99.807 79.3024 99.6217C79.2517 99.4364 79.143 99.2795 78.9762 99.1511C78.8099 99.0209 78.5746 98.9255 78.2706 98.8649L77.0728 98.6264L76.0726 103.649L75.3913 103.513ZM78.5431 101.513L79.4244 104.316L78.6331 104.158L77.7738 101.36L78.5431 101.513Z" fill="white"/>
<path d="M87.3062 107.006L89.8463 101.862L91.5844 102.72C91.988 102.919 92.2819 103.155 92.4661 103.427C92.6529 103.698 92.7475 103.988 92.7498 104.295C92.7522 104.602 92.6786 104.908 92.5289 105.211C92.3792 105.514 92.1813 105.759 91.935 105.945C91.6904 106.133 91.4036 106.237 91.0746 106.258C90.7465 106.277 90.3823 106.188 89.9821 105.99L88.7362 105.375L89.0091 104.822L90.2349 105.428C90.5111 105.564 90.7566 105.626 90.9712 105.613C91.1858 105.6 91.3708 105.531 91.5264 105.406C91.6844 105.28 91.8143 105.114 91.916 104.908C92.0177 104.702 92.0702 104.499 92.0733 104.298C92.0782 104.099 92.0188 103.911 91.8952 103.736C91.7723 103.558 91.5711 103.401 91.2915 103.262L90.1963 102.722L87.9291 107.313L87.3062 107.006Z" fill="white"/>
<path d="M94.0365 110.677L97.3225 105.974L97.892 106.372L94.959 110.57L97.145 112.097L96.7921 112.602L94.0365 110.677Z" fill="white"/>
<path d="M99.5464 114.86L99.019 114.358L104.501 111.657L105.021 112.151L102.589 117.758L102.062 117.256L104.151 112.577L104.119 112.546L99.5464 114.86ZM101.287 113.423L103.413 115.448L102.988 115.894L100.862 113.869L101.287 113.423Z" fill="white"/>
<path d="M108.605 116.842L109.096 116.47L111.695 119.9L111.204 120.272L110.114 118.834L106.033 121.927L105.613 121.373L109.695 118.28L108.605 116.842Z" fill="white"/>
<path d="M109.21 126.666L108.869 126.022L114.925 125.198L115.26 125.832L111.177 130.379L110.836 129.735L114.301 125.96L114.28 125.92L109.21 126.666ZM111.316 125.854L112.69 128.449L112.145 128.737L110.771 126.143L111.316 125.854Z" fill="white"/>
<path d="M112.415 133.364L117.841 131.5L118.958 134.753L118.375 134.953L117.484 132.357L115.65 132.987L116.458 135.34L115.876 135.54L115.067 133.187L112.641 134.021L112.415 133.364Z" fill="white"/>
<path d="M118.135 144.513C117.538 144.612 117.004 144.59 116.534 144.446C116.063 144.303 115.679 144.063 115.381 143.726C115.082 143.39 114.893 142.98 114.813 142.497C114.733 142.014 114.78 141.566 114.953 141.151C115.126 140.736 115.413 140.384 115.812 140.097C116.211 139.809 116.708 139.615 117.305 139.516C117.902 139.417 118.436 139.439 118.907 139.583C119.377 139.726 119.762 139.966 120.06 140.303C120.358 140.639 120.547 141.049 120.627 141.532C120.708 142.014 120.661 142.463 120.487 142.878C120.314 143.293 120.028 143.645 119.629 143.932C119.23 144.22 118.732 144.413 118.135 144.513ZM118.025 143.849C118.515 143.768 118.915 143.617 119.225 143.397C119.535 143.179 119.754 142.917 119.881 142.61C120.008 142.305 120.043 141.981 119.986 141.638C119.929 141.295 119.791 140.999 119.572 140.75C119.353 140.502 119.061 140.325 118.697 140.217C118.333 140.11 117.906 140.098 117.416 140.179C116.925 140.261 116.525 140.411 116.215 140.629C115.905 140.849 115.687 141.111 115.559 141.416C115.432 141.723 115.397 142.048 115.454 142.391C115.511 142.733 115.649 143.028 115.868 143.276C116.087 143.526 116.379 143.703 116.743 143.809C117.108 143.917 117.535 143.931 118.025 143.849Z" fill="white"/>
<path d="M115.577 148.765L121.314 148.805L121.301 150.743C121.298 151.191 121.219 151.559 121.064 151.845C120.911 152.132 120.701 152.343 120.435 152.48C120.169 152.616 119.867 152.683 119.529 152.681C119.191 152.678 118.891 152.607 118.631 152.467C118.37 152.327 118.166 152.114 118.019 151.827C117.873 151.54 117.802 151.175 117.805 150.73L117.816 149.162L118.443 149.166L118.433 150.712C118.431 151.019 118.474 151.265 118.562 151.453C118.651 151.642 118.777 151.779 118.94 151.864C119.106 151.951 119.304 151.996 119.533 151.997C119.763 151.999 119.964 151.957 120.137 151.872C120.309 151.788 120.442 151.651 120.537 151.463C120.634 151.275 120.683 151.026 120.685 150.716L120.693 149.495L115.573 149.46L115.577 148.765ZM118.136 151.483L115.549 152.878L115.555 152.071L118.142 150.699L118.136 151.483Z" fill="white"/>
<path d="M120.924 157.466L120.768 158.281L115.725 159.305L115.713 159.371L120.026 162.177L119.871 162.992L114.235 161.918L114.357 161.28L118.638 162.096L118.649 162.04L114.703 159.464L114.82 158.847L119.438 157.902L119.448 157.847L115.166 157.031L115.288 156.393L120.924 157.466Z" fill="white"/>
<path d="M113.001 165.95L113.264 165.27L117.852 169.308L117.593 169.976L111.483 169.868L111.746 169.188L116.868 169.335L116.885 169.293L113.001 165.95ZM114.993 167.01L113.933 169.748L113.358 169.525L114.419 166.787L114.993 167.01Z" fill="white"/>
<path d="M106.553 178.289L107.606 176.866L112.218 180.277L111.119 181.764C110.788 182.211 110.412 182.526 109.992 182.707C109.573 182.89 109.129 182.939 108.66 182.855C108.192 182.771 107.72 182.553 107.242 182.2C106.762 181.844 106.411 181.453 106.191 181.025C105.973 180.598 105.891 180.152 105.947 179.687C106.004 179.224 106.206 178.757 106.553 178.289ZM107.688 177.791L107.075 178.619C106.793 179.001 106.633 179.371 106.594 179.731C106.556 180.09 106.627 180.432 106.808 180.756C106.989 181.08 107.267 181.381 107.642 181.659C108.014 181.934 108.38 182.111 108.739 182.188C109.099 182.266 109.44 182.238 109.763 182.103C110.088 181.969 110.383 181.722 110.65 181.361L111.31 180.469L107.688 177.791Z" fill="white"/>
<path d="M102.499 183.211L106.504 187.32L104.024 189.736L103.594 189.295L105.576 187.363L104.223 185.975L102.369 187.782L101.939 187.341L103.793 185.534L102.432 184.138L100.418 186.101L99.9876 185.66L102.499 183.211Z" fill="white"/>
<path d="M96.0336 195.837L95.3041 196.231L91.3248 192.968L91.2657 193L91.8144 198.117L91.0849 198.511L88.3574 193.464L88.9292 193.155L91.0014 196.99L91.0507 196.963L90.5558 192.276L91.1078 191.978L94.7573 194.96L94.8066 194.933L92.7344 191.099L93.3062 190.79L96.0336 195.837Z" fill="white"/>
<path d="M84.6665 194.974L86.4658 200.422L83.1781 201.508L82.9848 200.922L85.6129 200.054L85.0049 198.214L82.5471 199.025L82.3538 198.44L84.8116 197.628L84.2001 195.777L81.5295 196.659L81.3362 196.074L84.6665 194.974Z" fill="white"/>
<path d="M78.1496 202.704L77.0492 197.073L77.731 196.94L78.8314 202.57L78.1496 202.704Z" fill="white"/>
<path d="M130.351 115.728L139.445 123.931L147.649 114.837L138.555 106.634L130.351 115.728ZM272.23 205.907C272.942 206.332 273.863 206.1 274.288 205.389L281.214 193.801C281.639 193.09 281.407 192.169 280.696 191.744C279.985 191.319 279.064 191.551 278.639 192.262L272.482 202.562L262.182 196.406C261.471 195.98 260.55 196.212 260.125 196.923C259.7 197.635 259.931 198.556 260.643 198.981L272.23 205.907ZM139.077 116.781C140.408 116.712 141.749 116.621 143.101 116.509L142.852 113.519C141.531 113.629 140.221 113.718 138.923 113.785L139.077 116.781ZM151.17 115.603C153.808 115.233 156.476 114.79 159.17 114.279L158.611 111.331C155.962 111.834 153.341 112.269 150.754 112.632L151.17 115.603ZM167.093 112.598C169.69 111.99 172.306 111.325 174.935 110.606L174.144 107.712C171.549 108.422 168.969 109.078 166.409 109.676L167.093 112.598ZM182.697 108.341C185.251 107.551 187.813 106.714 190.38 105.833L189.406 102.996C186.867 103.866 184.334 104.694 181.81 105.476L182.697 108.341ZM197.984 103.105C200.493 102.166 203.004 101.189 205.51 100.176L204.387 97.3947C201.903 98.3974 199.417 99.3654 196.932 100.295L197.984 103.105ZM212.959 97.0628C215.425 95.9975 217.883 94.9011 220.33 93.7769L219.078 91.0508C216.651 92.1657 214.213 93.2528 211.769 94.3089L212.959 97.0628ZM227.624 90.3289C230.045 89.1519 232.451 87.95 234.839 86.7263L233.47 84.0566C231.101 85.2708 228.714 86.4632 226.312 87.6308L227.624 90.3289ZM241.979 82.972C244.358 81.6898 246.713 80.3882 249.042 79.0703L247.564 76.4595C245.253 77.7673 242.916 79.0589 240.556 80.3313L241.979 82.972ZM256.023 75.0231C258.356 73.6381 260.656 72.2394 262.919 70.8302L261.333 68.2836C259.088 69.6815 256.806 71.0693 254.491 72.4435L256.023 75.0231ZM269.723 66.489C272.005 64.9973 274.242 63.4978 276.428 61.9946L274.729 59.5224C272.562 61.0122 270.344 62.4987 268.081 63.978L269.723 66.489ZM283.025 57.3388C285.247 55.7273 287.407 54.116 289.497 52.5096L287.669 50.1308C285.602 51.7196 283.465 53.3143 281.264 54.91L283.025 57.3388ZM295.823 47.4909C297.964 45.7341 300.014 43.989 301.965 42.2619L299.976 40.0159C298.056 41.7164 296.034 43.437 293.92 45.1715L295.823 47.4909ZM307.937 36.7251C309.978 34.737 311.868 32.7819 313.594 30.8705L311.367 28.8601C309.689 30.7185 307.844 32.6275 305.844 34.5764L307.937 36.7251ZM318.789 24.5781C320.587 22.1563 322.07 19.8189 323.191 17.5932L320.512 16.2435C319.486 18.2803 318.102 20.4705 316.381 22.7899L318.789 24.5781ZM325.649 9.30167C325.713 7.69668 325.476 6.16715 324.883 4.75571L322.117 5.91741C322.517 6.86865 322.701 7.95165 322.651 9.181L325.649 9.30167ZM324.883 4.75571C324.187 3.09845 323.2 1.77067 321.914 0.858063L320.178 3.3048C320.919 3.83026 321.591 4.66513 322.117 5.91741L324.883 4.75571ZM312.653 0.558393C310.335 1.51086 307.861 3.08861 305.314 5.2147L307.236 7.51791C309.627 5.52303 311.839 4.1362 313.793 3.33325L312.653 0.558393ZM299.309 11.0958C297.585 13.0283 295.839 15.1926 294.093 17.5803L296.515 19.3512C298.209 17.0346 299.894 14.9467 301.548 13.0931L299.309 11.0958ZM289.423 24.5167C288.025 26.7644 286.638 29.155 285.274 31.6844L287.914 33.1085C289.25 30.6315 290.606 28.2946 291.97 26.1012L289.423 24.5167ZM281.546 39.0763C280.404 41.5004 279.286 44.0275 278.201 46.655L280.974 47.8001C282.04 45.2171 283.138 42.7348 284.26 40.3555L281.546 39.0763ZM275.215 54.3794C274.3 56.9143 273.417 59.5289 272.572 62.2213L275.434 63.1199C276.267 60.4676 277.136 57.8932 278.037 55.3983L275.215 54.3794ZM270.254 70.1602C269.549 72.7698 268.879 75.4437 268.251 78.1806L271.175 78.8521C271.795 76.1526 272.455 73.5158 273.15 70.9433L270.254 70.1602ZM266.55 86.2705C266.041 88.934 265.571 91.6509 265.143 94.4203L268.108 94.8781C268.53 92.144 268.994 89.4622 269.497 86.8337L266.55 86.2705ZM264.023 102.622C263.701 105.322 263.42 108.068 263.183 110.858L266.172 111.112C266.406 108.356 266.684 105.644 267.002 102.977L264.023 102.622ZM262.619 119.07C262.477 121.779 262.376 124.526 262.319 127.311L265.318 127.372C265.375 124.619 265.474 121.904 265.615 119.227L262.619 119.07ZM262.279 135.576C262.308 138.306 262.379 141.069 262.494 143.865L265.491 143.742C265.377 140.976 265.307 138.243 265.279 135.544L262.279 135.576ZM262.953 152.072C263.145 154.781 263.378 157.519 263.654 160.286L266.639 159.988C266.366 157.25 266.135 154.541 265.946 151.86L262.953 152.072ZM264.594 168.515C264.94 171.207 265.327 173.926 265.756 176.668L268.72 176.204C268.295 173.489 267.912 170.798 267.569 168.132L264.594 168.515ZM267.14 184.786C267.635 187.474 268.171 190.185 268.749 192.918L271.684 192.297C271.111 189.59 270.58 186.905 270.09 184.243L267.14 184.786ZM270.552 200.932C270.873 202.278 271.204 203.629 271.545 204.985L274.455 204.253C274.116 202.909 273.788 201.57 273.47 200.237L270.552 200.932Z" fill="#005EBD"/>
</svg>
