<svg width="64" height="64" viewBox="0 0 64 64" fill="none" xmlns="http://www.w3.org/2000/svg">
<path d="M31.6734 32.295C31.6734 32.295 31.6734 32.3278 31.6734 32.295C31.6734 32.3278 31.6734 32.3278 31.6734 32.295C31.8702 32.4918 32.1981 32.6557 32.5915 32.5901C32.6571 32.5901 47.4123 28.4262 48.6256 28.0983C48.6911 28.0655 48.7567 28.0655 48.7895 28.0327C49.183 27.8032 49.3141 27.4098 49.3141 27.1147C49.3141 26.8524 49.183 26.4918 48.8551 26.295C48.7895 26.2295 41.2151 22.7541 41.2151 22.7541C41.2151 22.7541 37.7395 15.1803 37.7067 15.1147C37.5099 14.8196 37.1821 14.6885 36.8869 14.6557C36.5591 14.6557 36.1984 14.7868 35.9688 15.1803C35.9361 15.2459 35.9033 15.2787 35.9033 15.3442C35.5754 16.5573 31.4111 31.3114 31.4111 31.377C31.3127 31.7705 31.4767 32.0983 31.6734 32.295Z" fill="#575C60"/>
<path d="M44.4941 20.9508L44.5925 20.8525C44.6253 20.8197 44.6253 20.8197 44.6581 20.7869C44.6909 20.7541 44.6909 20.7541 44.7237 20.7213L44.822 20.623C44.8548 20.5902 44.8548 20.5902 44.8876 20.5574C44.9204 20.5246 44.9204 20.5246 44.9532 20.4918L45.0515 20.3934C45.0843 20.3607 45.0843 20.3607 45.1171 20.3279C45.1499 20.2951 45.1499 20.2951 45.1827 20.2623L45.2811 20.1639C45.3139 20.1311 45.3139 20.1311 45.3467 20.0984C45.3794 20.0656 45.3794 20.0656 45.4122 20.0328L45.5106 19.9344C45.9041 19.541 45.9041 18.8852 45.5106 18.4918C45.1171 18.0984 44.4613 18.0984 44.0679 18.4918L43.9695 18.5902C43.9367 18.623 43.9367 18.623 43.9039 18.6557C43.8711 18.6885 43.8711 18.6885 43.8383 18.7213L43.74 18.8197C43.7072 18.8525 43.7072 18.8525 43.6744 18.8852C43.6416 18.918 43.6416 18.918 43.6088 18.9508L43.5104 19.0492C43.4777 19.082 43.4777 19.082 43.4449 19.1148C43.4121 19.1475 43.4121 19.1475 43.3793 19.1803L43.2809 19.2787C43.2481 19.3115 43.2481 19.3115 43.2153 19.3443C43.1826 19.377 43.1826 19.3771 43.1498 19.4098L43.0514 19.5082C42.6579 19.9016 42.6579 20.5574 43.0514 20.9508C43.4449 21.3443 44.1007 21.3443 44.4941 20.9508ZM48.1665 14.3934L48.0682 14.4918C48.0354 14.5246 48.0354 14.5246 48.0026 14.5574C47.9698 14.5902 47.9698 14.5902 47.937 14.623L47.8386 14.7213C47.8059 14.7541 47.8059 14.7541 47.7731 14.7869C47.7403 14.8197 47.7403 14.8197 47.7075 14.8525L47.6091 14.9508C47.5763 14.9836 47.5763 14.9836 47.5435 15.0164C47.5108 15.0492 47.5107 15.0492 47.478 15.082L47.3796 15.1803C47.3468 15.2131 47.3468 15.2131 47.314 15.2459C47.2812 15.2787 47.2812 15.2787 47.2484 15.3115L47.1501 15.4098C46.7566 15.8033 46.7566 16.459 47.1501 16.8525C47.5435 17.2459 48.1993 17.2459 48.5928 16.8525L48.6912 16.7541C48.724 16.7213 48.724 16.7213 48.7567 16.6885C48.7895 16.6557 48.7895 16.6557 48.8223 16.623L48.9207 16.5246C48.9535 16.4918 48.9535 16.4918 48.9863 16.459C49.0191 16.4262 49.0191 16.4262 49.0519 16.3934L49.1502 16.2951C49.183 16.2623 49.183 16.2623 49.2158 16.2295C49.2486 16.1967 49.2486 16.1967 49.2814 16.1639L49.3797 16.0656C49.4125 16.0328 49.4125 16.0328 49.4453 16C49.4781 15.9672 49.4781 15.9672 49.5109 15.9344L49.6093 15.8361C50.0027 15.4426 50.0027 14.7869 49.6093 14.3934C49.2158 14 48.56 14 48.1665 14.3934ZM53.7079 10.2951C53.3145 9.90164 52.6587 9.90164 52.2652 10.2951L52.1668 10.3934C52.1341 10.4262 52.1341 10.4262 52.1013 10.459C52.0685 10.4918 52.0685 10.4918 52.0357 10.5246L51.9373 10.623C51.9045 10.6557 51.9045 10.6557 51.8717 10.6885C51.839 10.7213 51.839 10.7213 51.8062 10.7541L51.7078 10.8525C51.675 10.8852 51.675 10.8852 51.6422 10.918C51.6094 10.9508 51.6094 10.9508 51.5766 10.9836L51.4783 11.082C51.4455 11.1148 51.4455 11.1148 51.4127 11.1475C51.3799 11.1803 51.3799 11.1803 51.3471 11.2131L51.2487 11.3115C50.8553 11.7049 50.8553 12.3607 51.2487 12.7541C51.6422 13.1475 52.298 13.1475 52.6915 12.7541L52.7898 12.6557C52.8226 12.623 52.8226 12.623 52.8554 12.5902C52.8882 12.5574 52.8882 12.5574 52.921 12.5246L53.0194 12.4262C53.0522 12.3934 53.0522 12.3934 53.0849 12.3607C53.1177 12.3279 53.1177 12.3279 53.1505 12.2951L53.2489 12.1967C53.2817 12.1639 53.2817 12.1639 53.3145 12.1311C53.3473 12.0984 53.3473 12.0984 53.3801 12.0656L53.4784 11.9672C53.5112 11.9344 53.5112 11.9344 53.544 11.9016C53.5768 11.8689 53.5768 11.8689 53.6096 11.8361L53.7079 11.7377C54.1014 11.3443 54.1014 10.6885 53.7079 10.2951ZM49.183 30.1311L48.7895 30.2295C47.314 30.6557 45.9697 31.0164 44.7564 31.377C44.7564 31.6393 44.7892 31.9016 44.7892 32.1967C44.7892 39.3443 38.9855 45.1803 31.8046 45.1803C24.6566 45.1803 18.82 39.377 18.82 32.1967C18.82 25.0164 24.6238 19.2131 31.8046 19.2131C32.067 19.2131 32.3293 19.2131 32.5916 19.2459C32.9523 17.9016 33.3785 16.4262 33.8376 14.7869C33.8704 14.6885 33.9032 14.5902 33.9359 14.5246C33.2474 14.4262 32.526 14.3934 31.8046 14.3934C22.0006 14.3934 14 22.3934 14 32.1967C14 42 22.0006 50 31.8046 50C41.6415 50 49.6093 42 49.6093 32.1967C49.6093 31.4754 49.5765 30.7541 49.4781 30.0328C49.4125 30.0984 49.3142 30.1311 49.183 30.1311Z" fill="#575C60"/>
<path d="M29.7723 29.2786C30.0674 28.2622 30.5264 26.5573 31.3134 23.8032C26.9196 24.0655 23.4111 27.7376 23.4111 32.1967C23.4111 36.8196 27.1819 40.6229 31.838 40.6229C36.3302 40.6229 40.0026 37.1147 40.2321 32.6885C37.5106 33.4426 35.8055 33.9344 34.7891 34.2295C34.1333 35.1803 33.0512 35.8032 31.838 35.8032C29.8706 35.8032 28.264 34.1967 28.264 32.2295C28.2312 30.9836 28.8542 29.9344 29.7723 29.2786Z" fill="#575C60"/>
<rect x="0.5" y="0.5" width="63" height="63" rx="7.5" stroke="#EBF1F6"/>
</svg>
