<svg width="164" height="54" viewBox="0 0 164 54" fill="none" xmlns="http://www.w3.org/2000/svg">
<path d="M109.92 54C116.964 54 123.939 52.6127 130.446 49.9172C136.954 47.2217 142.866 43.2709 147.847 38.2903C152.827 33.3097 156.778 27.3969 159.474 20.8895C162.169 14.382 163.556 7.4074 163.556 0.363831L109.92 0.363828L109.92 54Z" fill="#537AD7"/>
<rect width="53.6362" height="109.284" transform="matrix(4.37114e-08 -1 -1 -4.37114e-08 109.92 54)" fill="#3762C7"/>
<path d="M54.2727 0.363772C47.2289 0.363772 40.2542 1.75111 33.7468 4.44659C27.2394 7.14204 21.3267 11.0929 16.3459 16.0735C11.3656 21.0541 7.41481 26.9668 4.71932 33.4742C2.0239 39.9817 0.636534 46.9564 0.636533 53.9999L54.2727 53.9999L54.2727 0.363772Z" fill="#7091DE"/>
<path d="M54.2728 54C61.3165 54 68.2912 52.6127 74.7987 49.9172C81.3061 47.2217 87.2188 43.2709 92.1996 38.2903C97.1798 33.3097 101.131 27.3969 103.826 20.8895C106.522 14.382 107.909 7.4074 107.909 0.363831L54.2728 0.363828L54.2728 54Z" fill="#7091DE"/>
<path d="M54.2727 41.2615C59.6436 41.2615 64.9618 40.2036 69.9237 38.1483C74.8856 36.093 79.394 33.0805 83.1919 29.2828C86.9893 25.4851 90.0019 20.9766 92.0572 16.0147C94.1124 11.0528 95.1703 5.73461 95.1703 0.363892L54.2727 0.36389L54.2727 41.2615Z" fill="#3762C7"/>
</svg>
