<svg width="54" height="55" viewBox="0 0 54 55" fill="none" xmlns="http://www.w3.org/2000/svg">
<path d="M3.13418e-05 27.5464C0.0195415 12.7347 12.0424 0.72766 26.8526 0.727662C31.8971 0.726696 36.8376 2.14826 41.1064 4.82914C45.3758 7.51002 48.8012 11.3415 50.9889 15.8838C48.9064 12.6077 46.1147 9.84199 42.8194 7.79068C39.5241 5.73934 35.8085 4.45477 31.9487 4.03173C28.0882 3.6087 24.1808 4.058 20.5148 5.34648C16.8488 6.63497 13.518 8.72978 10.7682 11.4763C8.01817 14.2228 5.91919 17.5509 4.62602 21.2151C3.33285 24.8792 2.87856 28.786 3.29672 32.6469C3.71481 36.5079 4.99464 40.2245 7.0418 43.5226C9.08889 46.8207 11.8511 49.6162 15.1244 51.7025C10.585 49.509 6.75786 46.0788 4.08262 41.8059C1.40731 37.533 -0.00767886 32.5907 3.13418e-05 27.5464Z" fill="#537AD7"/>
<path d="M3.14373 29.8167C3.15197 24.2025 4.98123 18.74 8.35676 14.2494C11.7323 9.75875 16.472 6.48232 21.8644 4.91204C27.2569 3.34176 33.0107 3.56235 38.2623 5.54067C43.5133 7.51897 47.9799 11.1483 50.9895 15.8837C52.7428 19.5197 53.6479 23.5074 53.6365 27.5464C53.617 42.3567 41.5945 54.3637 26.7829 54.3637C22.742 54.3706 18.7535 53.4607 15.1177 51.7025C11.4401 49.3593 8.41449 46.1251 6.32134 42.2993C4.22818 38.4735 3.13521 34.1801 3.14373 29.8167Z" fill="#3762C7"/>
<path d="M9.19061 14.3822C8.3199 13.3903 8.92974 11.4309 10.5526 10.0058C12.1755 8.5807 14.1972 8.22945 15.0674 9.22132C15.9383 10.2132 15.3289 12.1726 13.7057 13.5977C12.0827 15.0228 10.0613 15.3741 9.19061 14.3822Z" fill="#537AD7"/>
<path d="M16.4397 10.8322C15.9899 10.3191 16.305 9.30547 17.1444 8.56831C17.9838 7.83115 19.0297 7.64952 19.4803 8.16262C19.9308 8.67578 19.615 9.68937 18.7756 10.4265C17.9362 11.1637 16.8903 11.3453 16.4397 10.8322Z" fill="#537AD7"/>
<path d="M15.4998 12.866C15.3356 12.6788 15.4509 12.3089 15.7573 12.0397C16.0637 11.7706 16.4459 11.7042 16.6101 11.8914C16.7744 12.0786 16.6591 12.4484 16.3527 12.7176C16.0463 12.9867 15.6641 13.0531 15.4998 12.866Z" fill="#537AD7"/>
<path d="M37.0863 35.3529C38.8141 37.508 41.52 37.858 43.8063 37.321C53.0129 35.1505 53.3575 25.3885 48.8735 20.9404C47.6976 19.7534 46.1709 18.9766 44.5183 18.7249C40.5043 18.1119 36.3334 20.0731 35.5101 26.97C35.0394 31.0286 35.7742 33.7081 37.0863 35.3529Z" fill="white"/>
<path d="M17.2182 33.642C18.9024 35.3936 21.4709 36.694 25.0397 37.1383C29.0611 37.6443 33.8977 36.1302 34.589 30.1907C34.7143 29.0451 34.709 27.889 34.5722 26.7451C34.5635 26.6677 34.5541 26.5904 34.5454 26.5117C34.1786 23.4484 33.0188 21.3397 31.4164 19.976C29.5163 18.3622 26.974 17.7872 24.38 17.9559C15.9363 18.5055 11.8622 28.0468 17.2182 33.642Z" fill="white"/>
<path d="M38.6519 29.4343C38.6498 31.1818 39.7206 32.5806 41.0373 32.5567C42.3548 32.5328 43.3772 31.1227 43.3799 29.4063C43.3819 27.6898 42.3393 26.2923 41.0413 26.284C40.7229 26.2824 40.4091 26.3627 40.1302 26.5173C40.3246 26.5506 40.507 26.6341 40.6592 26.7594C40.8107 26.8849 40.9274 27.0478 40.9971 27.2322C41.0668 27.4166 41.0876 27.616 41.0568 27.8108C41.0253 28.0056 40.9441 28.189 40.8208 28.3429C40.6967 28.4968 40.5352 28.6158 40.3521 28.6881C40.1684 28.7605 39.9693 28.7837 39.7742 28.7555C39.5791 28.7274 39.3947 28.6486 39.2392 28.5274C39.0836 28.406 38.9629 28.2462 38.8885 28.0637C38.7296 28.5032 38.6492 28.9672 38.6519 29.4343Z" fill="#2D2D26"/>
<path d="M26.1909 29.5033C26.1882 31.3309 27.3675 32.8028 28.8097 32.7775C30.2525 32.7522 31.3828 31.2718 31.3855 29.4752C31.3875 27.6786 30.2451 26.2109 28.8184 26.2011C28.4697 26.1997 28.1258 26.2842 27.8174 26.4471C28.1211 26.4861 28.398 26.6415 28.5897 26.8804C28.7808 27.1195 28.8727 27.4235 28.8445 27.7288C28.817 28.034 28.6715 28.3167 28.4402 28.5177C28.2083 28.7185 27.9079 28.8219 27.6015 28.806C27.3588 28.8091 27.1201 28.7408 26.9156 28.6097C26.7111 28.4785 26.5496 28.2901 26.451 28.068C26.2787 28.5269 26.1902 29.0132 26.1909 29.5033Z" fill="#2D2D26"/>
<path d="M21.6934 36.3623C21.6934 36.3623 20.852 34.5446 18.4102 34.5417C15.8531 34.5417 15.7586 36.8852 15.7586 36.8852" fill="#3762C7"/>
<path d="M21.796 36.3115C21.5553 35.6349 21.0847 35.0644 20.4665 34.6991C19.8517 34.3359 19.1477 34.1519 18.433 34.1677C18.0717 34.1665 17.7123 34.2235 17.369 34.3364C17.0117 34.4483 16.6852 34.6411 16.415 34.8998C16.1441 35.1585 15.9369 35.4762 15.8096 35.8279C15.6828 36.164 15.6259 36.5223 15.6419 36.8809C15.6426 36.896 15.6466 36.9109 15.6527 36.9247C15.6594 36.9383 15.6681 36.9507 15.6795 36.9608C15.6909 36.971 15.7036 36.9789 15.7184 36.984C15.7325 36.9891 15.7479 36.9913 15.7626 36.9906C15.7874 36.989 15.8109 36.9796 15.8297 36.9636C15.8484 36.9477 15.8612 36.9261 15.8665 36.902V36.8893C16.008 36.2778 16.3312 35.7014 16.7898 35.3655C17.2483 35.0294 17.8249 34.9015 18.421 34.917C19.0177 34.9209 19.6063 35.0497 20.1494 35.2951C20.7072 35.5559 21.1987 35.9406 21.5848 36.4198L21.5949 36.4325C21.6043 36.4441 21.6157 36.4537 21.6291 36.4606C21.6425 36.4676 21.6572 36.4719 21.672 36.4732C21.6867 36.4745 21.7022 36.4728 21.7162 36.4683C21.7303 36.4637 21.7437 36.4563 21.7551 36.4465C21.7752 36.4313 21.79 36.4099 21.7974 36.3857C21.8047 36.3614 21.8041 36.3355 21.796 36.3115Z" fill="#537AD7"/>
<path d="M20.1836 37.1721C20.0227 37.0355 19.8363 36.9327 19.6345 36.8699C19.4246 36.8018 19.2021 36.7783 18.9821 36.8009C18.7394 36.8253 18.5095 36.9234 18.3238 37.0821C18.2333 37.1653 18.1629 37.2683 18.1179 37.3832C18.0737 37.4981 18.0563 37.6216 18.067 37.7443C18.0703 37.7787 18.0864 37.8106 18.1126 37.833C18.1394 37.8554 18.1729 37.8664 18.2078 37.8637C18.2225 37.8622 18.2366 37.8584 18.25 37.8525L18.2708 37.8426C18.4719 37.7471 18.5859 37.6641 18.7099 37.6107C18.8279 37.5461 18.9533 37.4953 19.0827 37.4589C19.4159 37.3993 19.7552 37.3743 20.0938 37.3844H20.1045C20.1206 37.384 20.136 37.3805 20.1507 37.3741C20.1655 37.3677 20.1782 37.3585 20.1896 37.347C20.2004 37.3355 20.2091 37.3219 20.2151 37.3071C20.2205 37.2923 20.2232 37.2765 20.2232 37.2607C20.2232 37.244 20.2191 37.2275 20.2124 37.2123C20.2057 37.197 20.1963 37.1834 20.1836 37.1721Z" fill="#2D2D26"/>
<path d="M44.0396 42.2583C42.991 42.7618 41.9002 43.1697 40.7792 43.4771C39.6689 43.7874 38.5365 44.0144 37.3927 44.1562C36.8302 44.2278 36.2523 44.2728 35.6804 44.2968C35.1085 44.3206 34.5373 44.3277 33.9667 44.3164C32.8256 44.2767 31.6885 44.155 30.5649 43.9523C28.3148 43.547 26.1486 42.7692 24.1547 41.651C23.6532 41.3698 23.1631 41.0704 22.687 40.7456C22.211 40.4209 21.7404 40.0863 21.2925 39.7194C20.8379 39.3571 20.4035 38.971 19.9905 38.5625C19.7813 38.36 19.5822 38.1477 19.3924 37.9284C19.1994 37.7127 19.023 37.4824 18.8648 37.2396C18.8568 37.2268 18.846 37.2158 18.834 37.2072C18.8212 37.1986 18.8071 37.1925 18.7924 37.1894C18.7776 37.1862 18.7622 37.1861 18.7475 37.1889C18.7327 37.1917 18.7186 37.1975 18.7059 37.2058C18.6838 37.2209 18.6677 37.2429 18.6596 37.2685C18.6516 37.294 18.6529 37.3215 18.6623 37.3464C18.9044 37.9109 19.2195 38.4408 19.601 38.9223C19.9704 39.4049 20.3706 39.8636 20.7984 40.2958C21.2268 40.7251 21.678 41.1319 22.1487 41.5147C22.6234 41.8895 23.1148 42.2447 23.6223 42.5803C25.6639 43.9035 27.9568 44.7909 30.3584 45.1866C32.7358 45.6117 35.1722 45.5983 37.5463 45.1472C38.1376 45.0386 38.7223 44.8978 39.2982 44.7255C39.8754 44.5605 40.444 44.3668 41.0018 44.1449C41.5589 43.9248 42.104 43.6747 42.635 43.3956C43.1694 43.121 43.6816 42.8051 44.167 42.4509C44.1918 42.4324 44.2079 42.405 44.2133 42.3745C44.2179 42.3441 44.2106 42.313 44.1925 42.2878C44.177 42.2659 44.1549 42.2501 44.1288 42.2434C44.1033 42.2367 44.0758 42.2395 44.0517 42.2513L44.0396 42.2583Z" fill="#2D2D26"/>
</svg>
