<svg width="1440" height="1232" viewBox="0 0 1440 1232" fill="none" xmlns="http://www.w3.org/2000/svg">
<g opacity="0.24">
<mask id="mask0_2_6038" style="mask-type:alpha" maskUnits="userSpaceOnUse" x="1068" y="0" width="491" height="491">
<circle cx="1313.5" cy="245.5" r="243.799" fill="#C4C4C4" stroke="#BFE5FF" stroke-width="3.40185"/>
</mask>
<g mask="url(#mask0_2_6038)">
<path d="M1002.29 142.795C1002.29 142.795 1104 120.128 1130.24 40.7952C1155.34 -35.2541 1258.71 -55.6958 1258.71 -55.6958" stroke="#BFE5FF" stroke-width="3.40185" stroke-miterlimit="10"/>
<path d="M1002.29 180.925C1002.29 180.925 1127.07 154.763 1159.21 59.0132C1189.85 -32.3943 1316.57 -55.6958 1316.57 -55.6958" stroke="#BFE5FF" stroke-width="3.40185" stroke-miterlimit="10"/>
<path d="M1002.29 219.161C1002.29 219.161 1150.05 189.399 1188.09 77.4431C1224.37 -29.64 1374.42 -55.6958 1374.42 -55.6958" stroke="#BFE5FF" stroke-width="3.40185" stroke-miterlimit="10"/>
<path d="M1002.29 257.292C1002.29 257.292 1173.12 224.034 1217.06 95.6612C1258.89 -26.7801 1432.27 -55.6958 1432.27 -55.6958" stroke="#BFE5FF" stroke-width="3.40185" stroke-miterlimit="10"/>
<path d="M1002.29 295.423C1002.29 295.423 1196.19 258.669 1246.03 113.985C1293.41 -23.9203 1490.04 -55.6958 1490.04 -55.6958" stroke="#BFE5FF" stroke-width="3.40185" stroke-miterlimit="10"/>
<path d="M1002.29 333.659C1002.29 333.659 1219.18 293.41 1274.92 132.308C1328.01 -21.1668 1547.89 -55.6958 1547.89 -55.6958" stroke="#BFE5FF" stroke-width="3.40185" stroke-miterlimit="10"/>
<path d="M1002.29 371.789C1002.29 371.789 1242.25 327.939 1303.89 150.633C1362.53 -18.307 1605.74 -55.6958 1605.74 -55.6958" stroke="#BFE5FF" stroke-width="3.40185" stroke-miterlimit="10"/>
<path d="M1002.29 409.92C1002.29 409.92 1265.32 362.574 1332.77 168.851C1397.05 -15.4471 1663.6 -55.6958 1663.6 -55.6958" stroke="#BFE5FF" stroke-width="3.40185" stroke-miterlimit="10"/>
<path d="M1002.29 448.157C1002.29 448.157 1288.3 397.316 1361.74 187.28C1431.57 -12.6936 1721.36 -55.6958 1721.36 -55.6958" stroke="#BFE5FF" stroke-width="3.40185" stroke-miterlimit="10"/>
<path d="M1002.29 486.284C1002.29 486.284 1311.37 431.951 1390.62 205.604C1466.09 -9.83373 1779.21 -55.6958 1779.21 -55.6958" stroke="#BFE5FF" stroke-width="3.40185" stroke-miterlimit="10"/>
<path d="M1002.29 524.521C1002.29 524.521 1334.44 466.586 1419.59 223.928C1500.6 -6.97394 1837.07 -55.6958 1837.07 -55.6958" stroke="#BFE5FF" stroke-width="3.40185" stroke-miterlimit="10"/>
<path d="M1002.29 562.655C1002.29 562.655 1357.42 501.222 1448.47 242.252C1535.12 -4.2196 1894.92 -55.6958 1894.92 -55.6958" stroke="#BFE5FF" stroke-width="3.40185" stroke-miterlimit="10"/>
<path d="M1002.29 600.78C1002.29 600.78 1380.5 535.857 1477.45 260.469C1569.64 -1.35979 1952.77 -55.6958 1952.77 -55.6958" stroke="#BFE5FF" stroke-width="3.40185" stroke-miterlimit="10"/>
<path d="M1002.29 639.017C1002.29 639.017 1403.57 570.492 1506.42 278.899C1604.16 1.50005 2010.54 -55.6958 2010.54 -55.6958" stroke="#BFE5FF" stroke-width="3.40185" stroke-miterlimit="10"/>
<path d="M1002.29 677.151C1002.29 677.151 1426.55 605.128 1535.3 297.117C1638.68 4.25359 2068.39 -55.6958 2068.39 -55.6958" stroke="#BFE5FF" stroke-width="3.40185" stroke-miterlimit="10"/>
<path d="M1002.29 715.285C1002.29 715.285 1449.62 639.763 1564.27 315.441C1673.19 7.11346 2126.24 -55.6958 2126.24 -55.6958" stroke="#BFE5FF" stroke-width="3.40185" stroke-miterlimit="10"/>
<path d="M1002.29 753.522C1002.29 753.522 1472.69 674.502 1593.15 333.765C1707.71 9.97327 2184.1 -55.6958 2184.1 -55.6958" stroke="#BFE5FF" stroke-width="3.40185" stroke-miterlimit="10"/>
<path d="M1002.29 791.648C1002.29 791.648 1495.67 709.034 1622.12 352.089C1742.23 12.7268 2241.86 -55.6958 2241.86 -55.6958" stroke="#BFE5FF" stroke-width="3.40185" stroke-miterlimit="10"/>
</g>
</g>
<g opacity="0.48" filter="url(#filter0_f_2_6038)">
<circle cx="1482" cy="1069" r="480" fill="#1F8EF5"/>
</g>
<g opacity="0.24" filter="url(#filter1_f_2_6038)">
<circle cx="-50" cy="512" r="480" fill="#1F8EF5"/>
</g>
<defs>
<filter id="filter0_f_2_6038" x="2" y="-411" width="2960" height="2960" filterUnits="userSpaceOnUse" color-interpolation-filters="sRGB">
<feFlood flood-opacity="0" result="BackgroundImageFix"/>
<feBlend mode="normal" in="SourceGraphic" in2="BackgroundImageFix" result="shape"/>
<feGaussianBlur stdDeviation="500" result="effect1_foregroundBlur_2_6038"/>
</filter>
<filter id="filter1_f_2_6038" x="-1530" y="-968" width="2960" height="2960" filterUnits="userSpaceOnUse" color-interpolation-filters="sRGB">
<feFlood flood-opacity="0" result="BackgroundImageFix"/>
<feBlend mode="normal" in="SourceGraphic" in2="BackgroundImageFix" result="shape"/>
<feGaussianBlur stdDeviation="500" result="effect1_foregroundBlur_2_6038"/>
</filter>
</defs>
</svg>
