<svg width="40" height="40" viewBox="0 0 40 40" fill="none" xmlns="http://www.w3.org/2000/svg">
<rect width="40" height="40" rx="8" fill="#EDF6FF"/>
<path d="M28.5 17.478V14C28.5 12.895 27.605 12 26.5 12H23.022" stroke="#005EBD" stroke-width="1.5" stroke-linecap="round" stroke-linejoin="round"/>
<path d="M16.978 12H13.5C12.395 12 11.5 12.895 11.5 14V17.478" stroke="#005EBD" stroke-width="1.5" stroke-linecap="round" stroke-linejoin="round"/>
<path d="M11.5 22.522V26C11.5 27.105 12.395 28 13.5 28H16.978" stroke="#005EBD" stroke-width="1.5" stroke-linecap="round" stroke-linejoin="round"/>
<path d="M23.022 28H26.5C27.605 28 28.5 27.105 28.5 26V22.522" stroke="#005EBD" stroke-width="1.5" stroke-linecap="round" stroke-linejoin="round"/>
<path d="M18.5354 23.9646C18.5549 23.9842 18.5549 24.0158 18.5354 24.0354C18.5158 24.0549 18.4842 24.0549 18.4646 24.0354C18.4451 24.0158 18.4451 23.9842 18.4646 23.9646C18.4842 23.9451 18.5158 23.9451 18.5354 23.9646" stroke="#005EBD" stroke-width="1.5" stroke-linecap="round" stroke-linejoin="round"/>
<path d="M21.5354 23.9646C21.5549 23.9842 21.5549 24.0158 21.5354 24.0354C21.5158 24.0549 21.4842 24.0549 21.4646 24.0354C21.4451 24.0158 21.4451 23.9842 21.4646 23.9646C21.4842 23.9451 21.5158 23.9451 21.5354 23.9646" stroke="#005EBD" stroke-width="1.5" stroke-linecap="round" stroke-linejoin="round"/>
<path d="M24.5 16V24" stroke="#005EBD" stroke-width="1.5" stroke-linecap="round" stroke-linejoin="round"/>
<path d="M15.5 16V24" stroke="#005EBD" stroke-width="1.5" stroke-linecap="round" stroke-linejoin="round"/>
<path d="M21.5 16V21" stroke="#005EBD" stroke-width="1.5" stroke-linecap="round" stroke-linejoin="round"/>
<path d="M18.5 16V21" stroke="#005EBD" stroke-width="1.5" stroke-linecap="round" stroke-linejoin="round"/>
</svg>
