<svg width="136" height="137" viewBox="0 0 136 137" fill="none" xmlns="http://www.w3.org/2000/svg">
<circle cx="67.9786" cy="68.9142" r="63.9786" fill="#005EBD" stroke="white" stroke-width="8"/>
<path d="M65.7207 70.3537C65.7207 70.3537 65.7207 70.3799 65.7207 70.3537C65.7207 70.3799 65.7207 70.3799 65.7207 70.3537C65.8781 70.511 66.1404 70.6422 66.4552 70.5897C66.5076 70.5897 78.3119 67.2586 79.2824 66.9963C79.3349 66.9701 79.3874 66.9701 79.4136 66.9438C79.7284 66.7602 79.8333 66.4455 79.8333 66.2094C79.8333 65.9996 79.7284 65.711 79.4661 65.5537C79.4136 65.5012 73.3541 62.7209 73.3541 62.7209C73.3541 62.7209 70.5735 56.6619 70.5473 56.6094C70.3899 56.3733 70.1276 56.2684 69.8915 56.2422C69.6292 56.2422 69.3406 56.3471 69.157 56.6619C69.1308 56.7143 69.1046 56.7405 69.1046 56.793C68.8422 57.7635 65.5108 69.5668 65.5108 69.6192C65.4321 69.934 65.5633 70.1963 65.7207 70.3537Z" fill="white"/>
<path d="M75.9774 61.2782L76.0561 61.1995C76.0824 61.1733 76.0824 61.1733 76.1086 61.1471C76.1348 61.1209 76.1348 61.1209 76.161 61.0946L76.2397 61.0159C76.266 60.9897 76.266 60.9897 76.2922 60.9635C76.3184 60.9373 76.3184 60.9373 76.3447 60.911L76.4234 60.8323C76.4496 60.8061 76.4496 60.8061 76.4758 60.7799C76.5021 60.7536 76.5021 60.7536 76.5283 60.7274L76.607 60.6487C76.6332 60.6225 76.6332 60.6225 76.6595 60.5963C76.6857 60.57 76.6857 60.57 76.7119 60.5438L76.7906 60.4651C77.1054 60.1504 77.1054 59.6258 76.7906 59.311C76.4758 58.9963 75.9512 58.9963 75.6364 59.311L75.5577 59.3897C75.5315 59.4159 75.5315 59.4159 75.5053 59.4422C75.479 59.4684 75.479 59.4684 75.4528 59.4946L75.3741 59.5733C75.3479 59.5995 75.3479 59.5995 75.3216 59.6258C75.2954 59.652 75.2954 59.652 75.2692 59.6782L75.1905 59.7569C75.1642 59.7832 75.1642 59.7832 75.138 59.8094C75.1118 59.8356 75.1118 59.8356 75.0856 59.8618L75.0069 59.9405C74.9806 59.9668 74.9806 59.9668 74.9544 59.993C74.9282 60.0192 74.9282 60.0192 74.9019 60.0454L74.8232 60.1241C74.5085 60.4389 74.5085 60.9635 74.8232 61.2782C75.138 61.593 75.6626 61.593 75.9774 61.2782ZM78.9154 56.0323L78.8367 56.111C78.8104 56.1373 78.8104 56.1373 78.7842 56.1635C78.758 56.1897 78.758 56.1897 78.7317 56.2159L78.6531 56.2946C78.6268 56.3209 78.6268 56.3209 78.6006 56.3471C78.5744 56.3733 78.5744 56.3733 78.5481 56.3995L78.4694 56.4782C78.4432 56.5045 78.4432 56.5045 78.417 56.5307C78.3907 56.5569 78.3907 56.5569 78.3645 56.5832L78.2858 56.6618C78.2596 56.6881 78.2596 56.6881 78.2333 56.7143C78.2071 56.7405 78.2071 56.7405 78.1809 56.7668L78.1022 56.8454C77.7874 57.1602 77.7874 57.6848 78.1022 57.9995C78.417 58.3143 78.9416 58.3143 79.2564 57.9995L79.3351 57.9209C79.3613 57.8946 79.3613 57.8946 79.3875 57.8684C79.4138 57.8422 79.4138 57.8422 79.44 57.8159L79.5187 57.7373C79.5449 57.711 79.5449 57.711 79.5712 57.6848C79.5974 57.6586 79.5974 57.6586 79.6236 57.6323L79.7023 57.5536C79.7285 57.5274 79.7285 57.5274 79.7548 57.5012C79.781 57.475 79.781 57.475 79.8072 57.4487L79.8859 57.37C79.9122 57.3438 79.9122 57.3438 79.9384 57.3176C79.9646 57.2913 79.9646 57.2913 79.9909 57.2651L80.0696 57.1864C80.3843 56.8717 80.3843 56.3471 80.0696 56.0323C79.7548 55.7176 79.2301 55.7176 78.9154 56.0323ZM83.3485 52.7536C83.0337 52.4389 82.5091 52.4389 82.1943 52.7536L82.1156 52.8323C82.0894 52.8586 82.0894 52.8586 82.0632 52.8848C82.0369 52.911 82.0369 52.911 82.0107 52.9373L81.932 53.0159C81.9058 53.0422 81.9058 53.0422 81.8795 53.0684C81.8533 53.0946 81.8533 53.0946 81.8271 53.1209L81.7484 53.1995C81.7222 53.2258 81.7222 53.2258 81.6959 53.252C81.6697 53.2782 81.6697 53.2782 81.6435 53.3045L81.5648 53.3832C81.5385 53.4094 81.5385 53.4094 81.5123 53.4356C81.4861 53.4618 81.4861 53.4618 81.4598 53.4881L81.3811 53.5668C81.0664 53.8815 81.0664 54.4061 81.3811 54.7209C81.6959 55.0356 82.2206 55.0356 82.5353 54.7209L82.614 54.6422C82.6403 54.6159 82.6403 54.6159 82.6665 54.5897C82.6927 54.5635 82.6927 54.5635 82.719 54.5373L82.7976 54.4586C82.8239 54.4323 82.8239 54.4323 82.8501 54.4061C82.8763 54.3799 82.8763 54.3799 82.9026 54.3536L82.9813 54.275C83.0075 54.2487 83.0075 54.2487 83.0337 54.2225C83.06 54.1963 83.06 54.1963 83.0862 54.17L83.1649 54.0913C83.1911 54.0651 83.1911 54.0651 83.2174 54.0389C83.2436 54.0127 83.2436 54.0127 83.2698 53.9864L83.3485 53.9077C83.6633 53.593 83.6633 53.0684 83.3485 52.7536ZM79.7285 68.6225L79.4138 68.7012C78.2333 69.0422 77.1579 69.3307 76.1873 69.6192C76.1873 69.8291 76.2135 70.0389 76.2135 70.275C76.2135 75.993 71.5705 80.6618 65.8258 80.6618C60.1073 80.6618 55.4381 76.0192 55.4381 70.275C55.4381 64.5307 60.0811 59.8881 65.8258 59.8881C66.0356 59.8881 66.2455 59.8881 66.4554 59.9143C66.7439 58.8389 67.0849 57.6586 67.4522 56.3471C67.4784 56.2684 67.5046 56.1897 67.5309 56.1373C66.98 56.0586 66.4029 56.0323 65.8258 56.0323C57.9825 56.0323 51.582 62.4323 51.582 70.275C51.582 78.1176 57.9825 84.5176 65.8258 84.5176C73.6953 84.5176 80.0696 78.1176 80.0696 70.275C80.0696 69.6979 80.0433 69.1209 79.9646 68.5438C79.9122 68.5963 79.8335 68.6225 79.7285 68.6225Z" fill="white"/>
<path d="M64.1993 67.9404C64.4354 67.1273 64.8026 65.7633 65.4322 63.5601C61.9171 63.7699 59.1104 66.7076 59.1104 70.2748C59.1104 73.9732 62.127 77.0158 65.8519 77.0158C69.4456 77.0158 72.3835 74.2092 72.5672 70.6683C70.3899 71.2715 69.0259 71.665 68.2127 71.901C67.6881 72.6617 66.8224 73.1601 65.8519 73.1601C64.278 73.1601 62.9926 71.8748 62.9926 70.301C62.9664 69.3043 63.4648 68.465 64.1993 67.9404Z" fill="white"/>
<path d="M58.1905 122.089L57.3857 121.889L56.6412 116.798L56.576 116.781L53.536 120.933L52.7313 120.734L54.114 115.166L54.7447 115.322L53.6942 119.553L53.7486 119.566L56.5391 115.768L57.1481 115.919L57.8375 120.581L57.8919 120.595L58.9424 116.365L59.5732 116.521L58.1905 122.089Z" fill="white"/>
<path d="M50.3685 113.797L48.0302 119.035L44.8684 117.624L45.1196 117.061L47.647 118.189L48.4371 116.419L46.0734 115.364L46.3246 114.802L48.6883 115.857L49.483 114.076L46.9147 112.93L47.1659 112.367L50.3685 113.797Z" fill="white"/>
<path d="M40.3456 115.122L43.3238 110.218L43.9176 110.579L40.9394 115.483L40.3456 115.122Z" fill="white"/>
<path d="M36.2342 104.955L32.2296 109.064L29.7503 106.647L30.1804 106.205L32.1623 108.137L33.5154 106.749L31.662 104.942L32.0921 104.501L33.9456 106.308L35.3066 104.912L33.2926 102.949L33.7228 102.507L36.2342 104.955Z" fill="white"/>
<path d="M26.6018 103.16L26.1188 102.486L28.8543 98.1276L28.8151 98.0729L23.8085 99.2618L23.3255 98.5878L27.9889 95.2463L28.3675 95.7745L24.8244 98.3133L24.857 98.3589L29.4444 97.2774L29.8098 97.7875L27.311 101.784L27.3436 101.829L30.8867 99.2903L31.2653 99.8186L26.6018 103.16Z" fill="white"/>
<path d="M24.0208 87.4288L18.6209 89.3665L17.459 86.1286L18.0391 85.9205L18.9663 88.5044L20.7909 87.8497L19.9507 85.5083L20.5308 85.3002L21.371 87.6415L23.7862 86.7749L24.0208 87.4288Z" fill="white"/>
<path d="M18.1481 76.359C18.7436 76.2518 19.2776 76.2666 19.7501 76.4035C20.2226 76.5404 20.6103 76.7752 20.913 77.1077C21.2158 77.4403 21.4106 77.8474 21.4973 78.3289C21.5841 78.8105 21.5436 79.2599 21.3758 79.6772C21.2081 80.0945 20.9267 80.4498 20.5317 80.7429C20.1367 81.0361 19.6414 81.2363 19.0459 81.3436C18.4504 81.4508 17.9164 81.436 17.4439 81.2991C16.9714 81.1622 16.5838 80.9274 16.281 80.5948C15.9782 80.2623 15.7834 79.8552 15.6967 79.3737C15.61 78.8921 15.6505 78.4427 15.8182 78.0254C15.9859 77.608 16.2673 77.2528 16.6624 76.9596C17.0574 76.6665 17.5526 76.4663 18.1481 76.359ZM18.2673 77.0207C17.7784 77.1087 17.3805 77.2648 17.0736 77.489C16.7664 77.7113 16.5514 77.9768 16.4286 78.2854C16.3055 78.5923 16.2748 78.9166 16.3363 79.2585C16.3979 79.6003 16.5401 79.8945 16.7628 80.1409C16.9852 80.3854 17.2793 80.5592 17.6452 80.6622C18.0106 80.7634 18.4378 80.77 18.9267 80.6819C19.4156 80.5938 19.8137 80.4387 20.1209 80.2163C20.4278 79.9922 20.6428 79.7267 20.7659 79.4199C20.8887 79.1112 20.9193 78.786 20.8577 78.4441C20.7961 78.1023 20.6541 77.809 20.4317 77.5645C20.209 77.3181 19.9149 77.1443 19.5494 77.0431C19.1836 76.9401 18.7562 76.9326 18.2673 77.0207Z" fill="white"/>
<path d="M16.685 67.4696L16.6862 68.1643C16.4864 68.2058 16.311 68.278 16.1599 68.3809C16.0088 68.4821 15.8821 68.6055 15.7796 68.7514C15.6753 68.8954 15.5971 69.0552 15.5452 69.2308C15.4932 69.4065 15.4674 69.5895 15.4677 69.78C15.4683 70.1274 15.5567 70.4419 15.7327 70.7236C15.9088 71.0034 16.1678 71.2261 16.5099 71.3917C16.8519 71.5555 17.2713 71.6369 17.7681 71.636C18.2649 71.6351 18.684 71.5522 19.0254 71.3872C19.3669 71.2204 19.6252 70.9968 19.8002 70.7163C19.9752 70.434 20.0625 70.1192 20.0618 69.7718C20.0615 69.5814 20.035 69.3984 19.9824 69.2229C19.9298 69.0475 19.852 68.8879 19.7491 68.7443C19.6442 68.5988 19.5161 68.4758 19.3646 68.3752C19.2113 68.2728 19.0356 68.2012 18.8376 68.1605L18.8364 67.4657C19.1296 67.5175 19.3922 67.6123 19.624 67.7501C19.8558 67.8879 20.0532 68.0593 20.216 68.2645C20.377 68.4696 20.4997 68.7 20.5842 68.9557C20.6687 69.2096 20.7112 69.4812 20.7117 69.7707C20.7126 70.26 20.5939 70.6953 20.3555 71.0767C20.1171 71.4581 19.7778 71.7585 19.3374 71.9778C18.8971 72.197 18.3744 72.3072 17.7693 72.3083C17.1642 72.3094 16.6411 72.2011 16.2 71.9834C15.7589 71.7656 15.4184 71.4665 15.1787 71.086C14.939 70.7054 14.8187 70.2705 14.8178 69.7812C14.8173 69.4917 14.8588 69.2199 14.9424 68.9658C15.026 68.7098 15.1488 68.4789 15.3109 68.2732C15.4712 68.0675 15.667 67.8953 15.8983 67.7567C16.1278 67.6181 16.39 67.5224 16.685 67.4696Z" fill="white"/>
<path d="M18.9351 58.6906C19.5309 58.7957 20.0269 58.9942 20.423 59.2859C20.8191 59.5777 21.1017 59.9319 21.2709 60.3486C21.4401 60.7653 21.4822 61.2146 21.3972 61.6965C21.3122 62.1783 21.1189 62.5861 20.8173 62.9197C20.5157 63.2534 20.1289 63.4895 19.6569 63.6281C19.1849 63.7667 18.651 63.7835 18.0551 63.6783C17.4592 63.5732 16.9633 63.3748 16.5672 63.083C16.1711 62.7913 15.8885 62.437 15.7192 62.0203C15.55 61.6036 15.5079 61.1543 15.5929 60.6725C15.6779 60.1906 15.8713 59.7829 16.1729 59.4492C16.4745 59.1155 16.8613 58.8794 17.3333 58.7408C17.8052 58.6022 18.3392 58.5855 18.9351 58.6906ZM18.8183 59.3527C18.329 59.2664 17.9017 59.2754 17.5363 59.3797C17.1712 59.4821 16.8777 59.657 16.6558 59.9042C16.4343 60.1496 16.2933 60.4433 16.233 60.7854C16.1726 61.1274 16.2044 61.4526 16.3283 61.7608C16.4525 62.0672 16.6684 62.3319 16.9761 62.5549C17.2841 62.7762 17.6827 62.9299 18.1719 63.0162C18.6611 63.1025 19.0883 63.0945 19.4534 62.992C19.8188 62.8877 20.1123 62.7129 20.3339 62.4675C20.5558 62.2203 20.6969 61.9256 20.7572 61.5836C20.8176 61.2415 20.7856 60.9173 20.6614 60.6109C20.5376 60.3027 20.3216 60.038 20.0136 59.8167C19.7059 59.5937 19.3075 59.439 18.8183 59.3527Z" fill="white"/>
<path d="M17.9045 47.1207L26.5132 50.9816L26.2839 51.4928L17.6753 47.6319L17.9045 47.1207Z" fill="white"/>
<path d="M29.4677 42.0942L29.022 42.6702L25.7736 37.4934L26.2124 36.9262L32.039 38.7708L31.5933 39.3469L26.7246 37.7475L26.6971 37.783L29.4677 42.0942ZM27.8598 40.5101L29.6563 38.1882L30.1437 38.5653L28.3472 40.8873L27.8598 40.5101Z" fill="white"/>
<path d="M34.3262 28.5122L34.9962 28.0236L39.3774 30.7228L39.4317 30.6832L38.2013 25.6866L38.8713 25.198L42.2514 29.8336L41.7263 30.2165L39.1582 26.6946L39.1129 26.7276L40.2324 31.3058L39.7254 31.6755L35.7087 29.2099L35.6634 29.2429L38.2315 32.7648L37.7064 33.1477L34.3262 28.5122Z" fill="white"/>
<path d="M45.7065 27.8415L43.1923 22.6847L46.3045 21.1674L46.5746 21.7213L44.0869 22.9342L44.9364 24.6766L47.263 23.5423L47.5331 24.0963L45.2064 25.2306L46.0609 26.9831L48.5889 25.7506L48.859 26.3046L45.7065 27.8415Z" fill="white"/>
<path d="M52.2815 24.9522L50.5452 19.4842L51.2074 19.2739L52.7571 24.1546L55.2989 23.3475L55.4854 23.9349L52.2815 24.9522Z" fill="white"/>
<path d="M58.7112 23.1476L57.847 17.476L58.5338 17.3713L58.9186 19.897L61.9428 19.4362L61.5579 16.9105L62.2447 16.8059L63.1089 22.4775L62.4221 22.5821L62.0356 20.0454L59.0115 20.5062L59.398 23.0429L58.7112 23.1476Z" fill="white"/>
<path d="M71.6973 19.4712C71.682 20.0761 71.5596 20.5961 71.3301 21.0312C71.1006 21.4663 70.7924 21.7985 70.4055 22.0279C70.0186 22.2573 69.5806 22.3658 69.0914 22.3534C68.6023 22.3411 68.1703 22.2107 67.7955 21.9621C67.4207 21.7135 67.1296 21.3662 66.9222 20.9201C66.7149 20.474 66.6189 19.9485 66.6341 19.3436C66.6494 18.7387 66.7718 18.2187 67.0013 17.7836C67.2308 17.3485 67.5391 17.0163 67.9259 16.7869C68.3128 16.5576 68.7508 16.449 69.24 16.4614C69.7291 16.4737 70.1611 16.6042 70.5359 16.8527C70.9108 17.1013 71.2018 17.4486 71.4092 17.8947C71.6165 18.3408 71.7125 18.8663 71.6973 19.4712ZM71.0252 19.4543C71.0377 18.9577 70.9652 18.5365 70.8076 18.1906C70.652 17.8448 70.4354 17.5806 70.1579 17.398C69.8823 17.2155 69.5708 17.1198 69.2236 17.1111C68.8763 17.1023 68.5595 17.1821 68.2732 17.3505C67.9887 17.519 67.7591 17.7719 67.5844 18.1094C67.4115 18.4469 67.3187 18.8639 67.3062 19.3605C67.2937 19.8571 67.3653 20.2783 67.521 20.6241C67.6785 20.97 67.8951 21.2342 68.1707 21.4167C68.4482 21.5993 68.7606 21.695 69.1078 21.7038C69.4551 21.7125 69.7709 21.6327 70.0554 21.4642C70.3417 21.2958 70.5713 21.0429 70.7442 20.7054C70.919 20.3679 71.0127 19.9509 71.0252 19.4543Z" fill="white"/>
<path d="M75.3913 22.7853L76.5118 17.1587L78.413 17.5374C78.8526 17.6249 79.1984 17.7718 79.4506 17.9782C79.7031 18.1827 79.8712 18.4285 79.955 18.7156C80.0387 19.0027 80.0476 19.312 79.9816 19.6435C79.9156 19.975 79.7892 20.2555 79.6026 20.4849C79.416 20.7143 79.168 20.8744 78.8586 20.9651C78.5496 21.054 78.1771 21.0551 77.7412 20.9682L76.2027 20.6619L76.3252 20.0464L77.8418 20.3485C78.1421 20.4083 78.3927 20.4125 78.5933 20.361C78.7958 20.3099 78.9543 20.212 79.0688 20.0673C79.1856 19.921 79.2664 19.7353 79.3112 19.51C79.3561 19.2847 79.3532 19.0794 79.3025 18.8941C79.2518 18.7089 79.143 18.552 78.9763 18.4236C78.8099 18.2933 78.5747 18.1979 78.2707 18.1374L77.0728 17.8989L76.0727 22.921L75.3913 22.7853ZM78.5431 20.7852L79.4244 23.5885L78.6332 23.4309L77.7739 20.632L78.5431 20.7852Z" fill="white"/>
<path d="M87.3065 26.2781L89.8466 21.134L91.5847 21.9923C91.9883 22.1916 92.2822 22.4273 92.4665 22.6995C92.6532 22.9708 92.7478 23.2602 92.7501 23.5675C92.7525 23.8748 92.6789 24.1801 92.5292 24.4831C92.3795 24.7862 92.1816 25.0311 91.9353 25.2177C91.6907 25.4052 91.4039 25.5094 91.0749 25.5302C90.7468 25.5494 90.3826 25.4602 89.9824 25.2625L88.7366 24.6474L89.0094 24.0948L90.2352 24.7C90.5115 24.8365 90.7569 24.8983 90.9715 24.8855C91.1861 24.8728 91.3711 24.8038 91.5267 24.6786C91.6847 24.5525 91.8146 24.3865 91.9163 24.1805C92.018 23.9746 92.0705 23.7713 92.0737 23.5709C92.0785 23.3712 92.0191 23.1836 91.8955 23.008C91.7726 22.8307 91.5714 22.673 91.2918 22.5349L90.1966 21.9942L87.9294 26.5857L87.3065 26.2781Z" fill="white"/>
<path d="M94.0362 29.9496L97.3222 25.2468L97.8916 25.6447L94.9586 29.8423L97.1447 31.3698L96.7917 31.8749L94.0362 29.9496Z" fill="white"/>
<path d="M99.5464 34.1329L99.019 33.6305L104.501 30.9293L105.021 31.4239L102.589 37.031L102.062 36.5287L104.151 31.8493L104.119 31.8184L99.5464 34.1329ZM101.287 32.6956L103.413 34.7205L102.987 35.1667L100.862 33.1419L101.287 32.6956Z" fill="white"/>
<path d="M108.605 36.1148L109.096 35.7426L111.695 39.1721L111.204 39.5443L110.114 38.1064L106.033 41.1989L105.613 40.6452L109.695 37.5526L108.605 36.1148Z" fill="white"/>
<path d="M109.21 45.9381L108.869 45.2945L114.925 44.4706L115.26 45.1043L111.177 49.6513L110.836 49.0077L114.301 45.2321L114.28 45.1925L109.21 45.9381ZM111.316 45.1268L112.69 47.7211L112.145 48.0095L110.771 45.4153L111.316 45.1268Z" fill="white"/>
<path d="M112.415 52.6361L117.84 50.7723L118.958 54.0257L118.375 54.226L117.483 51.6296L115.65 52.2594L116.458 54.612L115.875 54.8122L115.067 52.4596L112.64 53.2932L112.415 52.6361Z" fill="white"/>
<path d="M118.135 63.7851C117.538 63.8842 117.004 63.862 116.533 63.7187C116.063 63.5753 115.678 63.3353 115.38 62.9986C115.082 62.662 114.893 62.2523 114.813 61.7696C114.732 61.2869 114.779 60.8381 114.953 60.4231C115.126 60.0081 115.412 59.6567 115.811 59.369C116.21 59.0813 116.708 58.8878 117.305 58.7887C117.902 58.6896 118.436 58.7117 118.906 58.8551C119.377 58.9984 119.761 59.2384 120.059 59.5751C120.358 59.9118 120.547 60.3215 120.627 60.8042C120.707 61.2868 120.66 61.7357 120.487 62.1507C120.314 62.5656 120.027 62.917 119.628 63.2048C119.229 63.4925 118.732 63.6859 118.135 63.7851ZM118.024 63.1218C118.515 63.0404 118.915 62.8898 119.224 62.6698C119.535 62.4517 119.753 62.1892 119.88 61.8823C120.008 61.5772 120.043 61.2533 119.986 60.9106C119.929 60.5679 119.791 60.2719 119.571 60.0225C119.352 59.7749 119.061 59.5971 118.696 59.4891C118.332 59.383 117.905 59.3706 117.415 59.4519C116.925 59.5333 116.525 59.6831 116.215 59.9012C115.905 60.1211 115.686 60.3836 115.559 60.6887C115.432 60.9957 115.397 61.3205 115.454 61.6632C115.511 62.0058 115.649 62.301 115.868 62.5485C116.087 62.798 116.379 62.9758 116.743 63.0819C117.107 63.1899 117.534 63.2032 118.024 63.1218Z" fill="white"/>
<path d="M115.577 68.0381L121.314 68.0772L121.301 70.0157C121.298 70.4639 121.219 70.8312 121.064 71.1178C120.911 71.4044 120.701 71.6158 120.435 71.7522C120.169 71.8886 119.867 71.9556 119.529 71.9533C119.191 71.951 118.891 71.8799 118.631 71.7399C118.37 71.5999 118.166 71.3866 118.019 71.0998C117.873 70.8131 117.802 70.4475 117.805 70.003L117.816 68.4343L118.443 68.4386L118.433 69.9849C118.431 70.2912 118.474 70.538 118.562 70.7253C118.651 70.9146 118.777 71.0518 118.94 71.1369C119.106 71.224 119.304 71.2683 119.533 71.2698C119.763 71.2714 119.964 71.2298 120.137 71.1451C120.309 71.0603 120.442 70.924 120.537 70.736C120.634 70.548 120.683 70.2991 120.685 69.9891L120.693 68.7677L115.573 68.7328L115.577 68.0381ZM118.136 70.756L115.549 72.1503L115.555 71.3435L118.142 69.9717L118.136 70.756Z" fill="white"/>
<path d="M120.923 76.7386L120.768 77.5532L115.725 78.5771L115.713 78.6431L120.026 81.4497L119.871 82.2643L114.235 81.1905L114.357 80.5521L118.638 81.3679L118.649 81.3128L114.703 78.7359L114.82 78.1195L119.437 77.1741L119.448 77.1191L115.166 76.3033L115.288 75.6649L120.923 76.7386Z" fill="white"/>
<path d="M113.001 85.2219L113.265 84.5428L117.853 88.5802L117.594 89.2488L111.483 89.1399L111.746 88.4608L116.869 88.6074L116.885 88.5656L113.001 85.2219ZM114.994 86.2825L113.933 89.0199L113.358 88.7972L114.419 86.0598L114.994 86.2825Z" fill="white"/>
<path d="M106.553 97.5614L107.605 96.138L112.218 99.5497L111.118 101.036C110.787 101.484 110.412 101.798 109.992 101.98C109.573 102.163 109.129 102.212 108.66 102.127C108.192 102.044 107.719 101.825 107.242 101.472C106.761 101.117 106.411 100.725 106.191 100.297C105.972 99.8708 105.891 99.4249 105.947 98.9599C106.004 98.496 106.206 98.0298 106.553 97.5614ZM107.688 97.063L107.075 97.8918C106.793 98.2732 106.632 98.6437 106.594 99.0032C106.556 99.3628 106.627 99.7047 106.808 100.029C106.988 100.353 107.266 100.654 107.642 100.931C108.014 101.207 108.38 101.383 108.738 101.46C109.098 101.539 109.44 101.51 109.763 101.375C110.087 101.241 110.383 100.994 110.649 100.634L111.309 99.7418L107.688 97.063Z" fill="white"/>
<path d="M102.499 102.484L106.504 106.592L104.025 109.009L103.594 108.568L105.576 106.636L104.223 105.248L102.37 107.054L101.94 106.613L103.793 104.806L102.432 103.41L100.418 105.373L99.9879 104.932L102.499 102.484Z" fill="white"/>
<path d="M96.0337 115.109L95.3042 115.504L91.3249 112.241L91.2658 112.273L91.8145 117.389L91.085 117.784L88.3576 112.736L88.9293 112.427L91.0015 116.262L91.0508 116.235L90.5559 111.548L91.1079 111.25L94.7574 114.233L94.8067 114.206L92.7345 110.371L93.3063 110.062L96.0337 115.109Z" fill="white"/>
<path d="M84.6663 114.247L86.4656 119.694L83.1779 120.78L82.9846 120.195L85.6126 119.327L85.0046 117.486L82.5468 118.298L82.3536 117.713L84.8114 116.901L84.1999 115.05L81.5293 115.932L81.336 115.346L84.6663 114.247Z" fill="white"/>
<path d="M78.1496 121.976L77.0492 116.345L77.731 116.212L78.8314 121.843L78.1496 121.976Z" fill="white"/>
</svg>
