<svg width="136" height="136" viewBox="0 0 136 136" fill="none" xmlns="http://www.w3.org/2000/svg">
<circle cx="67.9786" cy="67.9786" r="63.9786" fill="#005EBD" stroke="white" stroke-width="8"/>
<path d="M65.7208 69.4182C65.7208 69.4182 65.7208 69.4444 65.7208 69.4182C65.7208 69.4444 65.7208 69.4444 65.7208 69.4182C65.8782 69.5756 66.1405 69.7067 66.4553 69.6543C66.5078 69.6543 78.312 66.3231 79.2825 66.0608C79.335 66.0346 79.3875 66.0346 79.4137 66.0084C79.7285 65.8248 79.8334 65.51 79.8334 65.2739C79.8334 65.0641 79.7285 64.7756 79.4662 64.6182C79.4137 64.5657 73.3542 61.7854 73.3542 61.7854C73.3542 61.7854 70.5737 55.7264 70.5474 55.6739C70.39 55.4379 70.1277 55.333 69.8916 55.3067C69.6293 55.3067 69.3408 55.4116 69.1571 55.7264C69.1309 55.7789 69.1047 55.8051 69.1047 55.8576C68.8424 56.828 65.5109 68.6313 65.5109 68.6838C65.4323 68.9985 65.5634 69.2608 65.7208 69.4182Z" fill="white"/>
<path d="M75.9774 60.3428L76.0561 60.2641C76.0824 60.2379 76.0824 60.2379 76.1086 60.2117C76.1348 60.1854 76.1348 60.1854 76.161 60.1592L76.2397 60.0805C76.266 60.0543 76.266 60.0543 76.2922 60.0281C76.3184 60.0018 76.3184 60.0018 76.3447 59.9756L76.4234 59.8969C76.4496 59.8707 76.4496 59.8707 76.4758 59.8444C76.5021 59.8182 76.5021 59.8182 76.5283 59.792L76.607 59.7133C76.6332 59.6871 76.6332 59.6871 76.6595 59.6608C76.6857 59.6346 76.6857 59.6346 76.7119 59.6084L76.7906 59.5297C77.1054 59.2149 77.1054 58.6904 76.7906 58.3756C76.4758 58.0608 75.9512 58.0608 75.6364 58.3756L75.5577 58.4543C75.5315 58.4805 75.5315 58.4805 75.5053 58.5067C75.479 58.533 75.479 58.533 75.4528 58.5592L75.3741 58.6379C75.3479 58.6641 75.3479 58.6641 75.3216 58.6904C75.2954 58.7166 75.2954 58.7166 75.2692 58.7428L75.1905 58.8215C75.1642 58.8477 75.1642 58.8477 75.138 58.874C75.1118 58.9002 75.1118 58.9002 75.0856 58.9264L75.0069 59.0051C74.9806 59.0313 74.9806 59.0313 74.9544 59.0576C74.9282 59.0838 74.9282 59.0838 74.9019 59.11L74.8232 59.1887C74.5085 59.5035 74.5085 60.0281 74.8232 60.3428C75.138 60.6576 75.6626 60.6576 75.9774 60.3428ZM78.9154 55.0969L78.8367 55.1756C78.8104 55.2018 78.8104 55.2018 78.7842 55.2281C78.758 55.2543 78.758 55.2543 78.7317 55.2805L78.6531 55.3592C78.6268 55.3854 78.6268 55.3854 78.6006 55.4117C78.5744 55.4379 78.5744 55.4379 78.5481 55.4641L78.4694 55.5428C78.4432 55.569 78.4432 55.569 78.417 55.5953C78.3907 55.6215 78.3907 55.6215 78.3645 55.6477L78.2858 55.7264C78.2596 55.7526 78.2596 55.7526 78.2333 55.7789C78.2071 55.8051 78.2071 55.8051 78.1809 55.8313L78.1022 55.91C77.7874 56.2248 77.7874 56.7494 78.1022 57.0641C78.417 57.3789 78.9416 57.3789 79.2564 57.0641L79.3351 56.9854C79.3613 56.9592 79.3613 56.9592 79.3875 56.933C79.4138 56.9067 79.4138 56.9067 79.44 56.8805L79.5187 56.8018C79.5449 56.7756 79.5449 56.7756 79.5712 56.7494C79.5974 56.7231 79.5974 56.7231 79.6236 56.6969L79.7023 56.6182C79.7285 56.592 79.7285 56.592 79.7548 56.5658C79.781 56.5395 79.781 56.5395 79.8072 56.5133L79.8859 56.4346C79.9122 56.4084 79.9122 56.4084 79.9384 56.3822C79.9646 56.3559 79.9646 56.3559 79.9909 56.3297L80.0696 56.251C80.3843 55.9363 80.3843 55.4117 80.0696 55.0969C79.7548 54.7822 79.2301 54.7822 78.9154 55.0969ZM83.3485 51.8182C83.0337 51.5035 82.5091 51.5035 82.1943 51.8182L82.1156 51.8969C82.0894 51.9231 82.0894 51.9231 82.0632 51.9494C82.0369 51.9756 82.0369 51.9756 82.0107 52.0018L81.932 52.0805C81.9058 52.1067 81.9058 52.1067 81.8795 52.133C81.8533 52.1592 81.8533 52.1592 81.8271 52.1854L81.7484 52.2641C81.7222 52.2904 81.7222 52.2904 81.6959 52.3166C81.6697 52.3428 81.6697 52.3428 81.6435 52.369L81.5648 52.4477C81.5385 52.474 81.5385 52.474 81.5123 52.5002C81.4861 52.5264 81.4861 52.5264 81.4598 52.5526L81.3811 52.6313C81.0664 52.9461 81.0664 53.4707 81.3811 53.7854C81.6959 54.1002 82.2206 54.1002 82.5353 53.7854L82.614 53.7067C82.6403 53.6805 82.6403 53.6805 82.6665 53.6543C82.6927 53.6281 82.6927 53.6281 82.719 53.6018L82.7976 53.5231C82.8239 53.4969 82.8239 53.4969 82.8501 53.4707C82.8763 53.4444 82.8763 53.4444 82.9026 53.4182L82.9813 53.3395C83.0075 53.3133 83.0075 53.3133 83.0337 53.2871C83.06 53.2608 83.06 53.2608 83.0862 53.2346L83.1649 53.1559C83.1911 53.1297 83.1911 53.1297 83.2174 53.1035C83.2436 53.0772 83.2436 53.0772 83.2698 53.051L83.3485 52.9723C83.6633 52.6576 83.6633 52.133 83.3485 51.8182ZM79.7285 67.6871L79.4138 67.7658C78.2333 68.1067 77.1579 68.3953 76.1873 68.6838C76.1873 68.8936 76.2135 69.1035 76.2135 69.3395C76.2135 75.0576 71.5705 79.7264 65.8258 79.7264C60.1073 79.7264 55.4381 75.0838 55.4381 69.3395C55.4381 63.5953 60.0811 58.9526 65.8258 58.9526C66.0356 58.9526 66.2455 58.9526 66.4554 58.9789C66.7439 57.9035 67.0849 56.7231 67.4522 55.4117C67.4784 55.333 67.5046 55.2543 67.5309 55.2018C66.98 55.1231 66.4029 55.0969 65.8258 55.0969C57.9825 55.0969 51.582 61.4969 51.582 69.3395C51.582 77.1822 57.9825 83.5822 65.8258 83.5822C73.6953 83.5822 80.0696 77.1822 80.0696 69.3395C80.0696 68.7625 80.0433 68.1854 79.9646 67.6084C79.9122 67.6608 79.8335 67.6871 79.7285 67.6871Z" fill="white"/>
<path d="M64.1996 67.005C64.4357 66.1919 64.8029 64.828 65.4325 62.6247C61.9174 62.8345 59.1107 65.7723 59.1107 69.3395C59.1107 73.0378 62.1273 76.0805 65.8522 76.0805C69.4459 76.0805 72.3839 73.2739 72.5675 69.7329C70.3902 70.3362 69.0262 70.7296 68.213 70.9657C67.6884 71.7264 66.8228 72.2247 65.8522 72.2247C64.2783 72.2247 62.9929 70.9395 62.9929 69.3657C62.9667 68.369 63.4651 67.5296 64.1996 67.005Z" fill="white"/>
<path d="M58.1908 121.154L57.386 120.954L56.6416 115.862L56.5763 115.846L53.5363 119.998L52.7316 119.798L54.1143 114.23L54.745 114.387L53.6945 118.617L53.7489 118.631L56.5394 114.832L57.1484 114.983L57.8378 119.646L57.8922 119.659L58.9427 115.429L59.5735 115.586L58.1908 121.154Z" fill="white"/>
<path d="M50.3688 112.861L48.0304 118.1L44.8687 116.689L45.1198 116.126L47.6472 117.254L48.4373 115.484L46.0737 114.429L46.3249 113.866L48.6885 114.921L49.4832 113.141L46.9149 111.994L47.1661 111.431L50.3688 112.861Z" fill="white"/>
<path d="M40.346 114.186L43.3242 109.283L43.918 109.643L40.9397 114.547L40.346 114.186Z" fill="white"/>
<path d="M36.2342 104.02L32.2296 108.128L29.7503 105.711L30.1804 105.27L32.1623 107.202L33.5154 105.814L31.662 104.007L32.0921 103.566L33.9456 105.372L35.3066 103.976L33.2926 102.013L33.7228 101.572L36.2342 104.02Z" fill="white"/>
<path d="M26.6014 102.225L26.1184 101.551L28.8538 97.192L28.8147 97.1373L23.808 98.3262L23.3251 97.6522L27.9885 94.3106L28.3671 94.8389L24.8239 97.3777L24.8566 97.4233L29.4439 96.3418L29.8094 96.8519L27.3105 100.848L27.3432 100.894L30.8863 98.3547L31.2648 98.883L26.6014 102.225Z" fill="white"/>
<path d="M24.0204 86.4933L18.6205 88.431L17.4586 85.1932L18.0387 84.985L18.9659 87.569L20.7905 86.9143L19.9503 84.5729L20.5304 84.3647L21.3706 86.7061L23.7858 85.8394L24.0204 86.4933Z" fill="white"/>
<path d="M18.1484 75.4235C18.7439 75.3163 19.2779 75.3311 19.7504 75.468C20.2229 75.6049 20.6106 75.8397 20.9134 76.1723C21.2161 76.5048 21.4109 76.9119 21.4976 77.3934C21.5844 77.875 21.5439 78.3244 21.3761 78.7417C21.2084 79.1591 20.927 79.5143 20.532 79.8075C20.137 80.1006 19.6417 80.3008 19.0462 80.4081C18.4507 80.5153 17.9167 80.5005 17.4442 80.3636C16.9717 80.2267 16.5841 79.9919 16.2813 79.6593C15.9785 79.3268 15.7837 78.9197 15.697 78.4382C15.6103 77.9566 15.6508 77.5072 15.8185 77.0899C15.9862 76.6726 16.2676 76.3173 16.6627 76.0242C17.0577 75.731 17.5529 75.5308 18.1484 75.4235ZM18.2676 76.0852C17.7787 76.1732 17.3808 76.3294 17.0739 76.5535C16.7667 76.7758 16.5517 77.0413 16.4289 77.35C16.3058 77.6568 16.2751 77.9811 16.3366 78.323C16.3982 78.6648 16.5404 78.959 16.7631 79.2054C16.9855 79.45 17.2797 79.6238 17.6455 79.7268C18.0109 79.8279 18.4381 79.8345 18.927 79.7464C19.4159 79.6584 19.814 79.5032 20.1212 79.2809C20.4281 79.0567 20.6431 78.7912 20.7662 78.4844C20.889 78.1758 20.9196 77.8505 20.858 77.5086C20.7964 77.1668 20.6544 76.8736 20.432 76.629C20.2093 76.3826 19.9152 76.2088 19.5497 76.1076C19.1839 76.0046 18.7565 75.9971 18.2676 76.0852Z" fill="white"/>
<path d="M16.6846 66.534L16.6859 67.2287C16.4861 67.2701 16.3107 67.3424 16.1596 67.4453C16.0085 67.5465 15.8818 67.6699 15.7793 67.8158C15.675 67.9598 15.5968 68.1196 15.5449 68.2952C15.4929 68.4709 15.4671 68.6539 15.4674 68.8444C15.468 69.1918 15.5564 69.5063 15.7324 69.788C15.9085 70.0678 16.1675 70.2905 16.5096 70.4561C16.8516 70.6199 17.271 70.7013 17.7678 70.7004C18.2645 70.6995 18.6837 70.6166 19.0251 70.4516C19.3666 70.2848 19.6248 70.0612 19.7999 69.7807C19.9749 69.4984 20.0622 69.1836 20.0615 68.8362C20.0612 68.6457 20.0347 68.4628 19.9821 68.2873C19.9295 68.1119 19.8517 67.9523 19.7488 67.8087C19.6439 67.6632 19.5158 67.5402 19.3643 67.4396C19.211 67.3372 19.0353 67.2656 18.8373 67.2249L18.836 66.5301C19.1293 66.5819 19.3919 66.6767 19.6237 66.8145C19.8555 66.9523 20.0529 67.1237 20.2157 67.3289C20.3767 67.534 20.4994 67.7644 20.5839 68.0201C20.6684 68.274 20.7109 68.5456 20.7114 68.8351C20.7123 69.3244 20.5936 69.7597 20.3552 70.1411C20.1168 70.5225 19.7775 70.8229 19.3371 71.0422C18.8968 71.2614 18.3741 71.3716 17.769 71.3727C17.1639 71.3738 16.6408 71.2655 16.1997 71.0478C15.7585 70.83 15.4181 70.5309 15.1784 70.1504C14.9387 69.7698 14.8184 69.3349 14.8175 68.8456C14.817 68.5561 14.8585 68.2843 14.9421 68.0302C15.0257 67.7742 15.1485 67.5433 15.3106 67.3376C15.4709 67.1319 15.6667 66.9597 15.898 66.8211C16.1275 66.6825 16.3897 66.5868 16.6846 66.534Z" fill="white"/>
<path d="M18.9349 57.755C19.5308 57.8601 20.0268 58.0586 20.4229 58.3503C20.8189 58.6421 21.1016 58.9963 21.2708 59.413C21.44 59.8297 21.4821 60.279 21.3971 60.7609C21.3121 61.2427 21.1188 61.6505 20.8172 61.9841C20.5156 62.3178 20.1288 62.5539 19.6568 62.6925C19.1848 62.8311 18.6509 62.8479 18.055 62.7427C17.4591 62.6376 16.9631 62.4392 16.5671 62.1474C16.171 61.8557 15.8883 61.5014 15.7191 61.0847C15.5499 60.668 15.5078 60.2187 15.5928 59.7369C15.6778 59.255 15.8711 58.8473 16.1727 58.5136C16.4743 58.18 16.8611 57.9438 17.3331 57.8052C17.8051 57.6666 18.3391 57.6499 18.9349 57.755ZM18.8181 58.4171C18.3289 58.3308 17.9016 58.3398 17.5362 58.4441C17.171 58.5466 16.8776 58.7214 16.6557 58.9686C16.4341 59.214 16.2932 59.5077 16.2328 59.8498C16.1725 60.1919 16.2042 60.517 16.3281 60.8252C16.4523 61.1316 16.6683 61.3963 16.976 61.6194C17.284 61.8406 17.6826 61.9943 18.1718 62.0806C18.661 62.167 19.0882 62.1589 19.4533 62.0564C19.8187 61.9521 20.1122 61.7773 20.3338 61.5319C20.5556 61.2847 20.6967 60.99 20.7571 60.648C20.8175 60.3059 20.7855 59.9817 20.6613 59.6753C20.5374 59.3671 20.3215 59.1024 20.0135 58.8811C19.7058 58.6581 19.3073 58.5034 18.8181 58.4171Z" fill="white"/>
<path d="M17.9045 46.1851L26.5132 50.0461L26.2839 50.5573L17.6753 46.6963L17.9045 46.1851Z" fill="white"/>
<path d="M29.4673 41.1587L29.0216 41.7348L25.7732 36.558L26.212 35.9908L32.0386 37.8354L31.5929 38.4114L26.7242 36.8121L26.6968 36.8475L29.4673 41.1587ZM27.8594 39.5747L29.6559 37.2527L30.1433 37.6299L28.3469 39.9518L27.8594 39.5747Z" fill="white"/>
<path d="M34.3266 27.5766L34.9966 27.088L39.3778 29.7872L39.4321 29.7476L38.2017 24.751L38.8716 24.2624L42.2518 28.898L41.7267 29.2809L39.1586 25.759L39.1133 25.792L40.2328 30.3702L39.7258 30.7399L35.709 28.2743L35.6638 28.3073L38.2319 31.8292L37.7068 32.2121L34.3266 27.5766Z" fill="white"/>
<path d="M45.7065 26.906L43.1923 21.7491L46.3045 20.2318L46.5746 20.7858L44.0869 21.9986L44.9364 23.7411L47.263 22.6068L47.5331 23.1607L45.2064 24.295L46.0609 26.0476L48.5889 24.815L48.859 25.369L45.7065 26.906Z" fill="white"/>
<path d="M52.2814 24.0166L50.5451 18.5486L51.2073 18.3383L52.757 23.219L55.2988 22.4119L55.4853 22.9993L52.2814 24.0166Z" fill="white"/>
<path d="M58.7113 22.2121L57.8471 16.5405L58.5339 16.4359L58.9187 18.9615L61.9428 18.5007L61.558 15.9751L62.2448 15.8704L63.109 21.542L62.4222 21.6467L62.0357 19.11L59.0115 19.5708L59.3981 22.1075L58.7113 22.2121Z" fill="white"/>
<path d="M71.6972 18.5357C71.6819 19.1406 71.5595 19.6606 71.33 20.0957C71.1004 20.5308 70.7922 20.863 70.4053 21.0924C70.0185 21.3218 69.5805 21.4303 69.0913 21.418C68.6022 21.4056 68.1702 21.2752 67.7954 21.0266C67.4205 20.778 67.1295 20.4307 66.9221 19.9846C66.7148 19.5385 66.6188 19.013 66.634 18.4081C66.6493 17.8032 66.7716 17.2832 67.0012 16.8481C67.2307 16.413 67.5389 16.0808 67.9258 15.8515C68.3127 15.6221 68.7507 15.5136 69.2398 15.5259C69.729 15.5382 70.161 15.6687 70.5358 15.9172C70.9106 16.1658 71.2017 16.5131 71.409 16.9593C71.6164 17.4054 71.7124 17.9309 71.6972 18.5357ZM71.0251 18.5188C71.0376 18.0222 70.9651 17.601 70.8075 17.2551C70.6518 16.9093 70.4353 16.6451 70.1578 16.4625C69.8822 16.28 69.5707 16.1843 69.2235 16.1756C68.8762 16.1668 68.5594 16.2467 68.2731 16.415C67.9886 16.5835 67.759 16.8364 67.5842 17.1739C67.4113 17.5114 67.3186 17.9284 67.3061 18.4251C67.2936 18.9217 67.3652 19.3429 67.5208 19.6887C67.6784 20.0345 67.895 20.2987 68.1706 20.4812C68.4481 20.6638 68.7604 20.7595 69.1077 20.7683C69.4549 20.777 69.7708 20.6972 70.0553 20.5287C70.3416 20.3604 70.5712 20.1074 70.7441 19.7699C70.9189 19.4324 71.0125 19.0154 71.0251 18.5188Z" fill="white"/>
<path d="M75.3913 21.8498L76.5118 16.2232L78.4129 16.6018C78.8525 16.6893 79.1984 16.8363 79.4505 17.0426C79.7031 17.2472 79.8712 17.493 79.9549 17.78C80.0387 18.0671 80.0475 18.3764 79.9815 18.7079C79.9155 19.0394 79.7892 19.3199 79.6026 19.5493C79.416 19.7788 79.168 19.9388 78.8586 20.0296C78.5495 20.1185 78.177 20.1195 77.7411 20.0327L76.2026 19.7263L76.3252 19.1109L77.8417 19.4129C78.1421 19.4727 78.3926 19.4769 78.5933 19.4255C78.7958 19.3744 78.9543 19.2765 79.0688 19.1317C79.1855 18.9855 79.2663 18.7997 79.3112 18.5744C79.356 18.3491 79.3531 18.1439 79.3024 17.9586C79.2517 17.7733 79.143 17.6164 78.9762 17.488C78.8099 17.3578 78.5746 17.2624 78.2706 17.2018L77.0728 16.9633L76.0726 21.9855L75.3913 21.8498ZM78.5431 19.8496L79.4244 22.6529L78.6331 22.4954L77.7738 19.6964L78.5431 19.8496Z" fill="white"/>
<path d="M87.3062 25.3425L89.8463 20.1984L91.5844 21.0567C91.988 21.256 92.2819 21.4917 92.4661 21.7639C92.6529 22.0352 92.7475 22.3246 92.7498 22.6319C92.7522 22.9393 92.6786 23.2445 92.5289 23.5476C92.3792 23.8507 92.1813 24.0955 91.935 24.2822C91.6904 24.4696 91.4036 24.5738 91.0746 24.5946C90.7465 24.6138 90.3823 24.5246 89.9821 24.327L88.7362 23.7118L89.0091 23.1592L90.2349 23.7644C90.5111 23.9009 90.7566 23.9627 90.9712 23.95C91.1858 23.9372 91.3708 23.8682 91.5264 23.743C91.6844 23.6169 91.8143 23.4509 91.916 23.2449C92.0177 23.039 92.0702 22.8358 92.0733 22.6353C92.0782 22.4357 92.0188 22.248 91.8952 22.0724C91.7723 21.8951 91.5711 21.7375 91.2915 21.5994L90.1963 21.0586L87.9291 25.6501L87.3062 25.3425Z" fill="white"/>
<path d="M94.0365 29.014L97.3225 24.3112L97.892 24.7091L94.959 28.9067L97.145 30.4342L96.7921 30.9394L94.0365 29.014Z" fill="white"/>
<path d="M99.5464 33.1972L99.019 32.6949L104.501 29.9937L105.021 30.4883L102.589 36.0954L102.062 35.593L104.151 30.9137L104.119 30.8827L99.5464 33.1972ZM101.287 31.76L103.413 33.7848L102.988 34.2311L100.862 32.2063L101.287 31.76Z" fill="white"/>
<path d="M108.605 35.1793L109.096 34.8072L111.695 38.2367L111.204 38.6089L110.114 37.171L106.033 40.2635L105.613 39.7098L109.695 36.6172L108.605 35.1793Z" fill="white"/>
<path d="M109.21 45.0027L108.869 44.3591L114.925 43.5352L115.26 44.1689L111.177 48.7159L110.836 48.0723L114.301 44.2967L114.28 44.2571L109.21 45.0027ZM111.316 44.1914L112.69 46.7857L112.145 47.0741L110.771 44.4799L111.316 44.1914Z" fill="white"/>
<path d="M112.415 51.7006L117.841 49.8368L118.958 53.0902L118.375 53.2904L117.484 50.6941L115.65 51.3238L116.458 53.6764L115.876 53.8767L115.067 51.524L112.641 52.3577L112.415 51.7006Z" fill="white"/>
<path d="M118.135 62.8496C117.538 62.9487 117.004 62.9266 116.534 62.7832C116.063 62.6399 115.679 62.3998 115.381 62.0632C115.082 61.7265 114.893 61.3168 114.813 60.8341C114.733 60.3514 114.78 59.9026 114.953 59.4876C115.126 59.0726 115.413 58.7213 115.812 58.4335C116.211 58.1458 116.708 57.9523 117.305 57.8532C117.902 57.7541 118.436 57.7762 118.907 57.9196C119.377 58.0629 119.762 58.303 120.06 58.6396C120.358 58.9763 120.547 59.386 120.627 59.8687C120.708 60.3514 120.661 60.8002 120.487 61.2152C120.314 61.6302 120.028 61.9815 119.629 62.2693C119.23 62.557 118.732 62.7505 118.135 62.8496ZM118.025 62.1863C118.515 62.105 118.915 61.9543 119.225 61.7344C119.535 61.5163 119.754 61.2537 119.881 60.9468C120.008 60.6417 120.043 60.3178 119.986 59.9751C119.929 59.6325 119.791 59.3364 119.572 59.087C119.353 58.8394 119.061 58.6616 118.697 58.5536C118.333 58.4475 117.906 58.4351 117.416 58.5165C116.925 58.5978 116.525 58.7476 116.215 58.9657C115.905 59.1856 115.687 59.4481 115.559 59.7532C115.432 60.0602 115.397 60.385 115.454 60.7277C115.511 61.0703 115.649 61.3655 115.868 61.6131C116.087 61.8625 116.379 62.0403 116.743 62.1464C117.108 62.2544 117.535 62.2677 118.025 62.1863Z" fill="white"/>
<path d="M115.577 67.1024L121.314 67.1416L121.301 69.08C121.298 69.5282 121.219 69.8956 121.064 70.1822C120.911 70.4687 120.701 70.6802 120.435 70.8166C120.169 70.953 119.867 71.02 119.529 71.0177C119.191 71.0154 118.891 70.9442 118.631 70.8043C118.37 70.6643 118.166 70.4509 118.019 70.1642C117.873 69.8774 117.802 69.5118 117.805 69.0674L117.816 67.4987L118.443 67.503L118.433 69.0492C118.431 69.3555 118.474 69.6023 118.562 69.7897C118.651 69.9789 118.777 70.1161 118.94 70.2013C119.106 70.2883 119.304 70.3326 119.533 70.3342C119.763 70.3358 119.964 70.2942 120.137 70.2094C120.309 70.1247 120.442 69.9883 120.537 69.8004C120.634 69.6124 120.683 69.3634 120.685 69.0534L120.693 67.8321L115.573 67.7971L115.577 67.1024ZM118.136 69.8204L115.549 71.2146L115.555 70.4079L118.142 69.0361L118.136 69.8204Z" fill="white"/>
<path d="M120.924 75.8032L120.768 76.6177L115.725 77.6417L115.713 77.7077L120.026 80.5143L119.871 81.3288L114.235 80.255L114.357 79.6166L118.638 80.4324L118.649 80.3774L114.703 77.8004L114.82 77.184L119.438 76.2387L119.448 76.1837L115.166 75.3678L115.288 74.7294L120.924 75.8032Z" fill="white"/>
<path d="M113.001 84.2865L113.264 83.6073L117.852 87.6447L117.593 88.3134L111.483 88.2045L111.746 87.5253L116.868 87.672L116.885 87.6302L113.001 84.2865ZM114.993 85.347L113.933 88.0844L113.358 87.8617L114.419 85.1243L114.993 85.347Z" fill="white"/>
<path d="M106.553 96.6258L107.606 95.2025L112.218 98.6142L111.119 100.101C110.788 100.548 110.412 100.863 109.992 101.044C109.573 101.227 109.129 101.276 108.66 101.192C108.192 101.108 107.72 100.89 107.242 100.536C106.762 100.181 106.411 99.7895 106.191 99.3618C105.973 98.9352 105.891 98.4894 105.947 98.0244C106.004 97.5605 106.206 97.0943 106.553 96.6258ZM107.688 96.1275L107.075 96.9563C106.793 97.3377 106.633 97.7081 106.594 98.0677C106.556 98.4273 106.627 98.7691 106.808 99.0933C106.989 99.4174 107.267 99.7183 107.642 99.9959C108.014 100.271 108.38 100.448 108.739 100.525C109.099 100.603 109.44 100.575 109.763 100.44C110.088 100.306 110.383 100.058 110.65 99.6981L111.31 98.8062L107.688 96.1275Z" fill="white"/>
<path d="M102.499 101.548L106.504 105.657L104.024 108.073L103.594 107.632L105.576 105.7L104.223 104.312L102.369 106.119L101.939 105.678L103.793 103.871L102.432 102.475L100.418 104.438L99.9876 103.997L102.499 101.548Z" fill="white"/>
<path d="M96.0336 114.174L95.3041 114.568L91.3248 111.305L91.2657 111.337L91.8144 116.454L91.0849 116.848L88.3574 111.801L88.9292 111.492L91.0014 115.327L91.0507 115.3L90.5558 110.613L91.1078 110.314L94.7573 113.297L94.8066 113.27L92.7344 109.436L93.3062 109.127L96.0336 114.174Z" fill="white"/>
<path d="M84.6665 113.311L86.4658 118.759L83.1781 119.845L82.9848 119.259L85.6129 118.391L85.0049 116.551L82.5471 117.362L82.3538 116.777L84.8116 115.965L84.2001 114.114L81.5295 114.996L81.3362 114.411L84.6665 113.311Z" fill="white"/>
<path d="M78.1496 121.04L77.0492 115.41L77.731 115.277L78.8314 120.907L78.1496 121.04Z" fill="white"/>
</svg>
