<svg width="12" height="12" viewBox="0 0 12 12" fill="none" xmlns="http://www.w3.org/2000/svg">
<path d="M10.1542 0.667059L0.667215 10.1541C0.35805 10.4632 0.35805 10.9645 0.667215 11.2737L0.72614 11.3326C1.03531 11.6418 1.53656 11.6418 1.84573 11.3326L11.3327 1.84557C11.6419 1.53641 11.6419 1.03515 11.3327 0.725984L11.2738 0.667058C10.9647 0.357893 10.4634 0.357894 10.1542 0.667059Z" fill="#01090E"/>
<path d="M11.3329 10.1542L1.84593 0.667215C1.53676 0.35805 1.03551 0.35805 0.72634 0.667215L0.667414 0.72614C0.358249 1.03531 0.358249 1.53656 0.667414 1.84573L10.1544 11.3327C10.4636 11.6419 10.9649 11.6419 11.274 11.3327L11.3329 11.2738C11.6421 10.9647 11.6421 10.4634 11.3329 10.1542Z" fill="#01090E"/>
</svg>
