<svg width="25" height="18" viewBox="0 0 25 18" fill="none" xmlns="http://www.w3.org/2000/svg">
<path d="M22.6148 4.80359H5.77521C4.85767 4.80359 4.10205 5.55921 4.10205 6.47675V8.31183C4.10205 8.47375 4.23698 8.60868 4.3989 8.60868H23.9911C24.153 8.60868 24.288 8.47375 24.288 8.31183V6.47675C24.288 5.53222 23.5323 4.80359 22.6148 4.80359ZM23.9911 10.2819H4.3989C4.23698 10.2819 4.10205 10.4168 4.10205 10.5787V16.3268C4.10205 17.2444 4.85767 18 5.77521 18H22.6148C23.5323 18 24.288 17.2444 24.288 16.3268V10.5787C24.288 10.4168 24.153 10.2819 23.9911 10.2819ZM9.58031 15.0315C9.58031 15.1124 9.49935 15.1934 9.41839 15.1934H6.88166C6.8007 15.1934 6.71974 15.1124 6.71974 15.0315V12.4948C6.71974 12.4138 6.8007 12.3328 6.88166 12.3328H9.41839C9.49935 12.3328 9.58031 12.4138 9.58031 12.4948V15.0315Z" fill="#005EBD"/>
<path d="M1.67316 12.9265H2.67166C2.77961 12.9265 2.86057 12.8456 2.86057 12.7376V5.99101C2.86057 4.61469 3.96702 3.50825 5.34333 3.50825H19.997C20.105 3.50825 20.1859 3.42729 20.1859 3.31934V1.67316C20.1859 0.755622 19.4303 0 18.5127 0H2.48276C1.10645 0 0 1.10645 0 2.48276V11.2264C0 12.1709 0.755622 12.9265 1.67316 12.9265Z" fill="#005EBD"/>
</svg>
