<svg width="107" height="14" viewBox="0 0 107 14" fill="none" xmlns="http://www.w3.org/2000/svg">
<path d="M0.819336 3.38957H4.00579C5.03562 3.38957 5.93505 3.59688 6.70074 4.01483C7.46643 4.43278 8.0549 5.01791 8.46951 5.77691C8.88412 6.53257 9.08808 7.39856 9.08808 8.37155C9.08808 9.34454 8.88078 10.2105 8.46951 10.9662C8.0549 11.7218 7.46643 12.3103 6.70074 12.7283C5.93505 13.1462 5.03897 13.3535 4.00579 13.3535H0.819336V3.38623V3.38957ZM3.96567 11.9091C5.09915 11.9091 5.97852 11.5948 6.60378 10.9695C7.22903 10.3443 7.54333 9.47828 7.54333 8.37489C7.54333 7.2715 7.22903 6.40551 6.60378 5.78025C5.97852 5.155 5.09915 4.8407 3.96567 4.8407H2.35071V11.9124H3.96567V11.9091Z" fill="#FAFFFF"/>
<path d="M11.0811 3.38965H12.6124V13.3569H11.0811V3.38965Z" fill="#FAFFFF"/>
<path d="M15.8121 12.8552C15.1534 12.3737 14.6954 11.695 14.4346 10.8223L15.8824 10.2372C16.0295 10.7922 16.297 11.2503 16.6748 11.6014C17.056 11.9525 17.514 12.1297 18.0524 12.1297C18.5539 12.1297 18.9785 11.9993 19.3263 11.7385C19.674 11.4777 19.8479 11.1199 19.8479 10.6652C19.8479 10.2472 19.6941 9.90282 19.3898 9.62865C19.0822 9.35447 18.5539 9.08698 17.8016 8.82952L17.1763 8.6055C16.4976 8.36476 15.9359 8.02706 15.4845 7.59573C15.0331 7.16441 14.8091 6.59265 14.8091 5.87712C14.8091 5.38561 14.9428 4.93088 15.2069 4.51293C15.4711 4.09498 15.8422 3.7673 16.3204 3.52322C16.7985 3.27913 17.3402 3.16211 17.942 3.16211C18.8047 3.16211 19.4968 3.37276 20.0151 3.79405C20.5333 4.21535 20.8877 4.69348 21.0716 5.22177L19.6941 5.8069C19.6004 5.47254 19.4065 5.18499 19.1089 4.94425C18.8114 4.70351 18.4268 4.58314 17.952 4.58314C17.4772 4.58314 17.1128 4.70351 16.7952 4.94425C16.4809 5.18499 16.3204 5.4926 16.3204 5.86374C16.3204 6.20814 16.4608 6.49234 16.745 6.71971C17.0292 6.94707 17.4672 7.16441 18.059 7.36837L18.701 7.59239C19.5536 7.88997 20.2123 8.27449 20.6771 8.74928C21.1418 9.22407 21.3726 9.85267 21.3726 10.6418C21.3726 11.2904 21.2087 11.8354 20.8777 12.2768C20.5467 12.7181 20.1254 13.0458 19.6105 13.2598C19.0956 13.4738 18.5673 13.5808 18.0289 13.5808C17.2031 13.5808 16.4608 13.3401 15.8021 12.8586L15.8121 12.8552Z" fill="#FAFFFF"/>
<path d="M23.3857 3.38957H26.8096C27.4048 3.38957 27.9498 3.51998 28.4446 3.77743C28.9395 4.03823 29.334 4.39934 29.6283 4.86411C29.9192 5.32887 30.0663 5.85381 30.0663 6.4356C30.0663 7.01739 29.9192 7.54568 29.6283 8.0071C29.334 8.47186 28.9428 8.83297 28.4446 9.09377C27.9464 9.35457 27.4014 9.48497 26.8096 9.48497H24.9171V13.3535H23.3857V3.38623V3.38957ZM26.8531 8.03719C27.3646 8.03719 27.7726 7.8767 28.0835 7.55571C28.3945 7.23472 28.5483 6.86358 28.5483 6.4356C28.5483 6.00762 28.3945 5.63648 28.0835 5.31549C27.7726 4.99451 27.3613 4.83401 26.8531 4.83401H24.9171V8.03719H26.8531Z" fill="#FAFFFF"/>
<path d="M33.8938 12.8821C33.1047 12.4173 32.4862 11.7887 32.0348 10.9963C31.5834 10.2038 31.3594 9.3278 31.3594 8.37152C31.3594 7.41525 31.5834 6.54257 32.0348 5.74679C32.4862 4.95436 33.1047 4.32576 33.8938 3.861C34.6829 3.39624 35.559 3.16553 36.5253 3.16553C37.4916 3.16553 38.3642 3.39624 39.15 3.861C39.9324 4.32576 40.551 4.95436 41.0023 5.74679C41.4537 6.53923 41.6778 7.41525 41.6778 8.37152C41.6778 9.3278 41.4537 10.2005 41.0023 10.9963C40.551 11.7887 39.9357 12.4173 39.15 12.8821C38.3642 13.3468 37.4916 13.5775 36.5253 13.5775C35.559 13.5775 34.6829 13.3468 33.8938 12.8821ZM38.3542 11.6516C38.9059 11.3306 39.3439 10.8859 39.6615 10.3142C39.9825 9.7424 40.143 9.09709 40.143 8.37152C40.143 7.64596 39.9825 7.00065 39.6615 6.42889C39.3406 5.85713 38.9059 5.41243 38.3542 5.09145C37.8025 4.77046 37.1906 4.60997 36.5253 4.60997C35.8599 4.60997 35.248 4.77046 34.6963 5.09145C34.1446 5.41243 33.7066 5.85713 33.3889 6.42889C33.068 7.00065 32.9075 7.64596 32.9075 8.37152C32.9075 9.09709 33.068 9.7424 33.3889 10.3142C33.7099 10.8859 34.1446 11.3306 34.6963 11.6516C35.248 11.9726 35.8599 12.1331 36.5253 12.1331C37.1906 12.1331 37.8025 11.9726 38.3542 11.6516Z" fill="#FAFFFF"/>
<path d="M43.6514 3.38965H45.4603L49.9708 10.7121H50.0544L49.9708 8.78957V3.38965H51.4888V13.3569H49.9006L45.1694 5.65996H45.0858L45.1694 7.58253V13.3603H43.6514V3.39299V3.38965Z" fill="#FAFFFF"/>
<path d="M54.0225 3.38953H55.5538V13.3568H54.0225V3.38953ZM54.8149 0.771484H56.5135L55.4 2.59375H54.1596L54.8149 0.771484Z" fill="#FAFFFF"/>
<path d="M57.0283 3.38965H58.7001L60.9571 10.0167L61.3048 11.1435H61.3884L61.7629 10.0167L64.1168 3.38965H65.7886L62.1541 13.3569H60.5659L57.0317 3.38965H57.0283Z" fill="#FAFFFF"/>
<path d="M67.2734 3.38965H73.3153V4.83743H68.8048V7.6494H72.8706V9.09719H68.8048V11.9092H73.3153V13.3569H67.2734V3.38965Z" fill="#FAFFFF"/>
<path d="M75.459 3.38965H76.9904V11.9092H81.2769V13.3569H75.459V3.38965Z" fill="#FAFFFF"/>
<path d="M86.0781 3.38965H87.887L92.3975 10.7121H92.4811L92.3975 8.78957V3.38965H93.9155V13.3569H92.3273L87.5961 5.65996H87.5125L87.5961 7.58253V13.3603H86.0781V3.39299V3.38965Z" fill="#FAFFFF"/>
<path d="M98.4397 12.8821C97.6506 12.4173 97.0321 11.7887 96.5807 10.9963C96.1293 10.2038 95.9053 9.3278 95.9053 8.37152C95.9053 7.41525 96.1293 6.54257 96.5807 5.74679C97.0321 4.95436 97.6506 4.32576 98.4397 3.861C99.2288 3.39624 100.105 3.16553 101.071 3.16553C102.037 3.16553 102.91 3.39624 103.696 3.861C104.478 4.32576 105.097 4.95436 105.548 5.74679C106 6.53923 106.224 7.41525 106.224 8.37152C106.224 9.3278 106 10.2005 105.548 10.9963C105.097 11.7887 104.482 12.4173 103.696 12.8821C102.91 13.3468 102.037 13.5775 101.071 13.5775C100.105 13.5775 99.2288 13.3468 98.4397 12.8821ZM102.9 11.6516C103.452 11.3306 103.89 10.8859 104.207 10.3142C104.528 9.7424 104.689 9.09709 104.689 8.37152C104.689 7.64596 104.528 7.00065 104.207 6.42889C103.886 5.85713 103.452 5.41243 102.9 5.09145C102.348 4.77046 101.737 4.60997 101.071 4.60997C100.406 4.60997 99.7939 4.77046 99.2422 5.09145C98.6905 5.41243 98.2525 5.85713 97.9348 6.42889C97.6139 7.00065 97.4534 7.64596 97.4534 8.37152C97.4534 9.09709 97.6139 9.7424 97.9348 10.3142C98.2558 10.8859 98.6905 11.3306 99.2422 11.6516C99.7939 11.9726 100.406 12.1331 101.071 12.1331C101.737 12.1331 102.348 11.9726 102.9 11.6516Z" fill="#FAFFFF"/>
</svg>
