<svg width="322" height="322" viewBox="0 0 322 322" fill="none" xmlns="http://www.w3.org/2000/svg">
<path d="M314.614 143.642C308.595 136.598 306.681 126.918 309.538 118.126C313.588 105.672 307.957 92.1095 296.308 86.1741C288.043 81.9583 282.579 73.7763 281.858 64.5403C280.832 51.4768 270.459 41.1037 257.395 40.0775C248.159 39.3563 239.977 33.8647 235.761 25.6272C229.826 13.9505 216.263 8.3479 203.81 12.3973C194.99 15.2541 185.338 13.3403 178.293 7.32168C168.336 -1.19316 153.664 -1.19316 143.707 7.32168C136.662 13.3403 126.982 15.2541 118.19 12.3973C105.737 8.3479 92.174 13.9782 86.2386 25.6272C82.0228 33.8924 73.8407 39.3563 64.6048 40.0775C51.5413 41.1037 41.1681 51.4768 40.1419 64.5403C39.4208 73.7763 33.9291 81.9583 25.6917 86.1741C14.015 92.1095 8.41235 105.672 12.4618 118.126C15.3185 126.946 13.4048 136.598 7.38613 143.642C-1.12871 153.599 -1.12871 168.272 7.38613 178.229C13.4048 185.274 15.3185 194.953 12.4618 203.746C8.41235 216.199 14.0427 229.762 25.6917 235.697C33.9569 239.913 39.4208 248.095 40.1419 257.331C41.1681 270.394 51.5413 280.767 64.6048 281.794C73.8407 282.515 82.0228 288.006 86.2386 296.244C92.174 307.921 105.737 313.523 118.19 309.474C127.01 306.617 136.662 308.531 143.707 314.549C153.664 323.064 168.336 323.064 178.293 314.549C185.338 308.531 195.018 306.617 203.81 309.474C216.263 313.523 229.826 307.921 235.761 296.244C239.977 287.979 248.159 282.515 257.395 281.794C270.459 280.767 280.832 270.394 281.858 257.331C282.579 248.095 288.071 239.913 296.308 235.697C307.985 229.762 313.588 216.199 309.538 203.746C306.681 194.926 308.595 185.274 314.614 178.229C323.129 168.272 323.129 153.599 314.614 143.642ZM160.958 295.883C86.5437 295.883 26.0245 235.336 26.0245 160.922C26.0245 86.5069 86.5437 25.9878 160.958 25.9878C235.373 25.9878 295.892 86.5347 295.892 160.922C295.892 235.309 235.345 295.883 160.958 295.883Z" stroke="#003B93" stroke-width="1.15942" stroke-dasharray="9.28 9.28"/>
<path d="M253.453 178.58C263.203 127.517 229.712 78.2189 178.649 68.4689C127.586 58.7189 78.2869 92.2096 68.5368 143.272C58.7868 194.335 92.2776 243.634 143.341 253.384C194.404 263.134 243.703 229.643 253.453 178.58Z" fill="white"/>
<path d="M276.217 147.958C271.704 142.675 270.269 135.417 272.411 128.824C275.448 119.486 271.226 109.317 262.491 104.866C256.293 101.705 252.196 95.5697 251.656 88.6442C250.886 78.8488 243.108 71.0706 233.312 70.3011C226.387 69.7604 220.252 65.6426 217.091 59.4658C212.64 50.7102 202.47 46.5092 193.132 49.5456C186.519 51.6877 179.281 50.2527 173.999 45.7397C166.532 39.355 155.531 39.355 148.065 45.7397C142.782 50.2527 135.524 51.6877 128.931 49.5456C119.593 46.5092 109.423 50.731 104.973 59.4658C101.812 65.6634 95.6763 69.7604 88.7509 70.3011C78.9554 71.0706 71.1772 78.8488 70.4077 88.6442C69.867 95.5697 65.7491 101.705 59.5723 104.866C50.8167 109.317 46.6157 119.486 49.6521 128.824C51.7942 135.438 50.3592 142.675 45.8462 147.958C39.4614 155.424 39.4614 166.426 45.8462 173.892C50.3592 179.174 51.7942 186.432 49.6521 193.025C46.6157 202.363 50.8375 212.533 59.5723 216.983C65.7699 220.145 69.867 226.28 70.4077 233.205C71.1772 243.001 78.9554 250.779 88.7509 251.548C95.6763 252.089 101.812 256.207 104.973 262.384C109.423 271.139 119.593 275.34 128.931 272.304C135.545 270.162 142.782 271.597 148.065 276.11C155.531 282.494 166.532 282.494 173.999 276.11C179.281 271.597 186.539 270.162 193.132 272.304C202.47 275.34 212.64 271.139 217.091 262.384C220.252 256.186 226.387 252.089 233.312 251.548C243.108 250.779 250.886 243.001 251.656 233.205C252.196 226.28 256.314 220.145 262.491 216.983C271.247 212.533 275.448 202.363 272.411 193.025C270.269 186.412 271.704 179.174 276.217 173.892C282.602 166.426 282.602 155.424 276.217 147.958ZM161 262.113C105.201 262.113 59.8219 216.713 59.8219 160.914C59.8219 105.116 105.201 59.7362 161 59.7362C216.799 59.7362 262.179 105.136 262.179 160.914C262.179 216.692 216.779 262.113 161 262.113Z" fill="white"/>
<path d="M114.04 134.936C114.04 123.976 118.32 118.296 122.88 113.496V108.136H103.72V113.296H117.4C113.4 117.416 107.68 123.496 107.68 134.936H114.04ZM144.242 134.936C152.362 134.936 157.082 129.576 157.082 121.536C157.082 113.496 152.322 108.136 144.162 108.136H133.402V134.936H144.242ZM143.682 113.216C148.642 113.216 151.082 116.056 151.082 121.536C151.082 127.016 148.682 129.856 143.762 129.856H139.122V113.216H143.682ZM166.271 134.936V108.136H160.551V134.936H166.271ZM173.655 134.936L175.815 128.976H186.615L188.735 134.936H195.015L184.975 108.136H177.615L167.575 134.936H173.655ZM179.615 118.376L181.215 112.696L182.815 118.376L184.855 124.136H177.535L179.615 118.376ZM207.698 135.336C213.498 135.336 217.818 132.576 217.818 127.456C217.818 122.656 214.418 120.616 209.418 119.456L206.378 118.736C203.578 118.096 201.858 117.376 201.858 115.416C201.858 113.856 203.338 112.976 205.378 112.976C208.458 112.976 211.578 114.496 213.338 117.296L217.218 112.936C214.978 109.736 210.938 107.816 205.898 107.816C200.458 107.816 195.938 110.576 195.938 115.816C195.938 120.896 199.858 122.736 204.018 123.576L206.618 124.136C210.178 124.856 211.938 125.536 211.938 127.616C211.938 129.456 210.258 130.176 207.938 130.176C204.738 130.176 200.858 128.696 199.058 125.336L195.298 129.736C197.778 133.656 202.538 135.336 207.698 135.336Z" fill="#003B93"/>
<path d="M106.05 153.1C107.862 153.1 109.101 151.749 109.101 150.013C109.101 148.287 107.862 146.936 106.05 146.936C104.229 146.936 103 148.287 103 150.013C103 151.749 104.229 153.1 106.05 153.1ZM106.06 152.134C104.766 152.134 104.1 151.257 104.1 150.013C104.1 148.779 104.766 147.893 106.06 147.893C107.354 147.893 108.01 148.779 108.01 150.013C108.01 151.257 107.354 152.134 106.06 152.134Z" fill="#003B93"/>
<path d="M112.467 153.109C114.159 153.109 114.944 152.277 114.944 150.461V147.025H113.909V150.47C113.909 151.659 113.512 152.143 112.476 152.143C111.459 152.143 111.043 151.659 111.043 150.47V147.025H110.008V150.461C110.008 152.277 110.812 153.109 112.467 153.109Z" fill="#003B93"/>
<path d="M120.55 153.109C121.807 153.109 122.75 152.483 122.75 151.4C122.75 150.255 121.863 149.879 120.873 149.646L120.18 149.485C119.505 149.324 119.08 149.136 119.08 148.609C119.08 148.152 119.505 147.884 120.097 147.884C120.855 147.884 121.521 148.206 121.863 148.949L122.648 148.224C122.205 147.401 121.299 146.944 120.162 146.944C118.997 146.944 117.989 147.553 117.989 148.68C117.989 149.816 118.923 150.201 119.801 150.38L120.384 150.505C121.188 150.675 121.687 150.836 121.687 151.418C121.687 151.964 121.188 152.178 120.568 152.178C119.81 152.178 118.877 151.838 118.544 150.962L117.804 151.686C118.285 152.697 119.367 153.109 120.55 153.109Z" fill="#003B93"/>
<path d="M128.077 153.019V152.125H124.74V150.407H127.504V149.512H124.74V147.92H128.077V147.025H123.695V153.019H128.077Z" fill="#003B93"/>
<path d="M131.271 153.109C132.962 153.109 133.748 152.277 133.748 150.461V147.025H132.713V150.47C132.713 151.659 132.315 152.143 131.28 152.143C130.263 152.143 129.847 151.659 129.847 150.47V147.025H128.812V150.461C128.812 152.277 129.616 153.109 131.271 153.109Z" fill="#003B93"/>
<path d="M139.16 153.019C141.082 153.019 142.108 151.874 142.108 150.022C142.108 148.17 141.073 147.025 139.16 147.025H136.821V153.019H139.16ZM139.03 147.92C140.315 147.92 141.018 148.519 141.018 150.022C141.018 151.525 140.315 152.125 139.039 152.125H137.865V147.92H139.03Z" fill="#003B93"/>
<path d="M144.13 153.019V147.025H143.086V153.019H144.13Z" fill="#003B93"/>
<path d="M146.559 153.019V149.718L146.485 148.627L147.049 149.476L149.618 153.019H150.58V147.025H149.535V150.317L149.6 151.454L148.99 150.514L146.485 147.025H145.514V153.019H146.559Z" fill="#003B93"/>
<path d="M153.004 153.019V150.407H155.981V153.019H157.025V147.025H155.981V149.512H153.004V147.025H151.96V153.019H153.004Z" fill="#003B93"/>
<path d="M162.787 153.019V152.125H159.45V150.407H162.213V149.512H159.45V147.92H162.787V147.025H158.405V153.019H162.787Z" fill="#003B93"/>
<path d="M164.64 153.019V147.025H163.596V153.019H164.64Z" fill="#003B93"/>
<path d="M167.069 153.019V150.693H167.827C168.409 150.693 168.723 150.836 168.954 151.239L170.027 153.019H171.228L170.174 151.293C169.953 150.917 169.703 150.693 169.333 150.586C170.304 150.479 171.016 149.888 171.016 148.886C171.016 147.651 170.073 147.025 168.816 147.025H166.024V153.019H167.069ZM168.714 147.92C169.37 147.92 169.934 148.152 169.934 148.913C169.934 149.637 169.37 149.87 168.714 149.87H167.069V147.92H168.714Z" fill="#003B93"/>
<path d="M174.649 153.1C176.46 153.1 177.699 151.749 177.699 150.013C177.699 148.287 176.46 146.936 174.649 146.936C172.827 146.936 171.598 148.287 171.598 150.013C171.598 151.749 172.827 153.1 174.649 153.1ZM174.658 152.134C173.364 152.134 172.698 151.257 172.698 150.013C172.698 148.779 173.364 147.893 174.658 147.893C175.952 147.893 176.608 148.779 176.608 150.013C176.608 151.257 175.952 152.134 174.658 152.134Z" fill="#003B93"/>
<path d="M182.978 153.019C184.901 153.019 185.927 151.874 185.927 150.022C185.927 148.17 184.891 147.025 182.978 147.025H180.639V153.019H182.978ZM182.848 147.92C184.133 147.92 184.836 148.519 184.836 150.022C184.836 151.525 184.133 152.125 182.858 152.125H181.684V147.92H182.848Z" fill="#003B93"/>
<path d="M191.286 153.019V152.125H187.949V150.407H190.712V149.512H187.949V147.92H191.286V147.025H186.904V153.019H191.286Z" fill="#003B93"/>
<path d="M197.055 153.019L199.32 147.025H198.183L196.954 150.523L196.482 152.25L196.02 150.523L194.79 147.025H193.598L195.863 153.019H197.055Z" fill="#003B93"/>
<path d="M202.543 153.1C204.355 153.1 205.593 151.749 205.593 150.013C205.593 148.287 204.355 146.936 202.543 146.936C200.722 146.936 199.492 148.287 199.492 150.013C199.492 151.749 200.722 153.1 202.543 153.1ZM202.552 152.134C201.258 152.134 200.592 151.257 200.592 150.013C200.592 148.779 201.258 147.893 202.552 147.893C203.846 147.893 204.502 148.779 204.502 150.013C204.502 151.257 203.846 152.134 202.552 152.134Z" fill="#003B93"/>
<path d="M210.79 153.019V152.125H207.619V147.025H206.574V153.019H210.79Z" fill="#003B93"/>
<path d="M212.753 153.019V147.92H214.658V147.025H209.814V147.92H211.709V153.019H212.753Z" fill="#003B93"/>
<path d="M215.055 153.019L215.646 151.507H218.262L218.854 153.019H220L217.578 147.025H216.376L213.954 153.019H215.055ZM216.626 149.011L216.959 147.929L217.292 149.011L217.92 150.631H215.988L216.626 149.011Z" fill="#003B93"/>
<path d="M142.88 236.258V221.613H140.016C139.273 222.575 138.29 222.925 137 222.925V225.307H139.754V236.258H142.88Z" fill="#003B93"/>
<path d="M151.465 236.455C155.639 236.455 157.934 233.285 157.934 228.914C157.934 224.564 155.639 221.395 151.465 221.395C147.29 221.395 144.973 224.564 144.973 228.914C144.973 233.285 147.29 236.455 151.465 236.455ZM151.465 233.416C149.213 233.416 148.273 231.668 148.273 228.914C148.273 226.181 149.213 224.411 151.465 224.411C153.716 224.411 154.656 226.181 154.656 228.914C154.656 231.668 153.716 233.416 151.465 233.416Z" fill="#003B93"/>
<path d="M166.214 236.455C170.389 236.455 172.684 233.285 172.684 228.914C172.684 224.564 170.389 221.395 166.214 221.395C162.04 221.395 159.723 224.564 159.723 228.914C159.723 233.285 162.04 236.455 166.214 236.455ZM166.214 233.416C163.963 233.416 163.023 231.668 163.023 228.914C163.023 226.181 163.963 224.411 166.214 224.411C168.466 224.411 169.406 226.181 169.406 228.914C169.406 231.668 168.466 233.416 166.214 233.416Z" fill="#003B93"/>
<path d="M178.625 236.936L189.729 220.936H187.019L175.915 236.936H178.625ZM177.839 229.416C180.09 229.416 181.751 227.843 181.751 225.416C181.751 222.968 180.09 221.416 177.839 221.416C175.587 221.416 173.926 222.968 173.926 225.416C173.926 227.843 175.587 229.416 177.839 229.416ZM177.839 227.099C177.052 227.099 176.571 226.597 176.571 225.416C176.571 224.214 177.052 223.69 177.839 223.69C178.647 223.69 179.128 224.214 179.128 225.416C179.128 226.597 178.647 227.099 177.839 227.099ZM187.893 236.258C190.166 236.258 191.806 234.706 191.806 232.258C191.806 229.832 190.166 228.258 187.893 228.258C185.642 228.258 184.003 229.832 184.003 232.258C184.003 234.706 185.642 236.258 187.893 236.258ZM187.893 233.963C187.106 233.963 186.625 233.438 186.625 232.258C186.625 231.056 187.106 230.553 187.893 230.553C188.724 230.553 189.205 231.056 189.205 232.258C189.205 233.438 188.724 233.963 187.893 233.963Z" fill="#003B93"/>
<g opacity="0.32" filter="url(#filter0_f_2_6038)">
<rect width="235" height="48" transform="translate(43 169.936)" fill="#003B93"/>
<path d="M110.488 201.128C113.92 201.128 115.888 198.872 116.056 195.08L116.872 200.936H119.152V192.32H111.448V195.08H115.864C115.216 196.784 114.064 197.888 111.832 197.888C109.096 197.888 107.536 195.968 107.536 192.872C107.536 189.92 108.952 187.904 111.928 187.904C114.256 187.904 115.696 189.272 116.128 191.072L119.032 188.864C117.904 186.2 115.336 184.616 111.928 184.616C106.744 184.616 103.84 188.096 103.84 192.872C103.84 198.32 106.624 201.128 110.488 201.128ZM123.385 200.936L124.681 197.36H131.161L132.433 200.936H136.201L130.177 184.856H125.761L119.737 200.936H123.385ZM126.961 191L127.921 187.592L128.881 191L130.105 194.456H125.713L126.961 191ZM140.4 200.936V194.912H141.648C143.064 194.912 143.784 195.296 144.408 196.376L147.12 200.936H151.08L148.536 196.76C147.84 195.632 147.168 194.84 145.896 194.504C148.512 194.192 150.456 192.728 150.456 189.872C150.456 186.464 147.912 184.856 144.432 184.856H136.968V200.936H140.4ZM144.312 187.904C145.8 187.904 146.856 188.48 146.856 190.04C146.856 191.552 145.8 192.152 144.312 192.152H140.4V187.904H144.312ZM154.627 200.936L155.923 197.36H162.403L163.675 200.936H167.443L161.419 184.856H157.003L150.979 200.936H154.627ZM158.203 191L159.163 187.592L160.123 191L161.347 194.456H156.955L158.203 191ZM171.642 200.936V194.072L171.378 190.088L172.818 192.464L178.674 200.936H181.938V184.856H178.506V191.984L178.722 195.776L177.258 193.256L171.546 184.856H168.21V200.936H171.642ZM191.115 200.936V187.904H195.915V184.856H182.883V187.904H187.683V200.936H191.115ZM200.306 200.936V184.856H196.874V200.936H200.306ZM204.737 200.936L206.033 197.36H212.513L213.785 200.936H217.553L211.529 184.856H207.113L201.089 200.936H204.737ZM208.313 191L209.273 187.592L210.233 191L211.457 194.456H207.065L208.313 191Z" fill="#FAFFFF"/>
</g>
<rect width="261" height="48" transform="translate(30 162.936)" fill="#003B93"/>
<path d="M110.488 194.128C113.92 194.128 115.888 191.872 116.056 188.08L116.872 193.936H119.152V185.32H111.448V188.08H115.864C115.216 189.784 114.064 190.888 111.832 190.888C109.096 190.888 107.536 188.968 107.536 185.872C107.536 182.92 108.952 180.904 111.928 180.904C114.256 180.904 115.696 182.272 116.128 184.072L119.032 181.864C117.904 179.2 115.336 177.616 111.928 177.616C106.744 177.616 103.84 181.096 103.84 185.872C103.84 191.32 106.624 194.128 110.488 194.128ZM123.385 193.936L124.681 190.36H131.161L132.433 193.936H136.201L130.177 177.856H125.761L119.737 193.936H123.385ZM126.961 184L127.921 180.592L128.881 184L130.105 187.456H125.713L126.961 184ZM140.4 193.936V187.912H141.648C143.064 187.912 143.784 188.296 144.408 189.376L147.12 193.936H151.08L148.536 189.76C147.84 188.632 147.168 187.84 145.896 187.504C148.512 187.192 150.456 185.728 150.456 182.872C150.456 179.464 147.912 177.856 144.432 177.856H136.968V193.936H140.4ZM144.312 180.904C145.8 180.904 146.856 181.48 146.856 183.04C146.856 184.552 145.8 185.152 144.312 185.152H140.4V180.904H144.312ZM154.627 193.936L155.923 190.36H162.403L163.675 193.936H167.443L161.419 177.856H157.003L150.979 193.936H154.627ZM158.203 184L159.163 180.592L160.123 184L161.347 187.456H156.955L158.203 184ZM171.642 193.936V187.072L171.378 183.088L172.818 185.464L178.674 193.936H181.938V177.856H178.506V184.984L178.722 188.776L177.258 186.256L171.546 177.856H168.21V193.936H171.642ZM191.115 193.936V180.904H195.915V177.856H182.883V180.904H187.683V193.936H191.115ZM200.306 193.936V177.856H196.874V193.936H200.306ZM204.737 193.936L206.033 190.36H212.513L213.785 193.936H217.553L211.529 177.856H207.113L201.089 193.936H204.737ZM208.313 184L209.273 180.592L210.233 184L211.457 187.456H207.065L208.313 184Z" fill="#FAFFFF"/>
<defs>
<filter id="filter0_f_2_6038" x="39" y="165.936" width="243" height="56" filterUnits="userSpaceOnUse" color-interpolation-filters="sRGB">
<feFlood flood-opacity="0" result="BackgroundImageFix"/>
<feBlend mode="normal" in="SourceGraphic" in2="BackgroundImageFix" result="shape"/>
<feGaussianBlur stdDeviation="2" result="effect1_foregroundBlur_2_6038"/>
</filter>
</defs>
</svg>
