<svg width="322" height="322" viewBox="0 0 322 322" fill="none" xmlns="http://www.w3.org/2000/svg">
<g opacity="0.32">
<path d="M314.614 143.707C308.595 136.662 306.681 126.982 309.538 118.19C313.588 105.737 307.957 92.174 296.308 86.2386C288.043 82.0228 282.579 73.8407 281.858 64.6048C280.832 51.5413 270.459 41.1681 257.395 40.1419C248.159 39.4208 239.977 33.9291 235.761 25.6917C229.826 14.015 216.263 8.41235 203.81 12.4618C194.99 15.3185 185.338 13.4048 178.293 7.38613C168.336 -1.12871 153.664 -1.12871 143.707 7.38613C136.662 13.4048 126.982 15.3185 118.19 12.4618C105.737 8.41235 92.174 14.0427 86.2386 25.6917C82.0228 33.9569 73.8407 39.4208 64.6048 40.1419C51.5413 41.1681 41.1681 51.5413 40.1419 64.6048C39.4208 73.8407 33.9291 82.0228 25.6917 86.2386C14.015 92.174 8.41235 105.737 12.4618 118.19C15.3185 127.01 13.4048 136.662 7.38613 143.707C-1.12871 153.664 -1.12871 168.336 7.38613 178.293C13.4048 185.338 15.3185 195.018 12.4618 203.81C8.41235 216.263 14.0427 229.826 25.6917 235.761C33.9569 239.977 39.4208 248.159 40.1419 257.395C41.1681 270.459 51.5413 280.832 64.6048 281.858C73.8407 282.579 82.0228 288.071 86.2386 296.308C92.174 307.985 105.737 313.588 118.19 309.538C127.01 306.681 136.662 308.595 143.707 314.614C153.664 323.129 168.336 323.129 178.293 314.614C185.338 308.595 195.018 306.681 203.81 309.538C216.263 313.588 229.826 307.985 235.761 296.308C239.977 288.043 248.159 282.579 257.395 281.858C270.459 280.832 280.832 270.459 281.858 257.395C282.579 248.159 288.071 239.977 296.308 235.761C307.985 229.826 313.588 216.263 309.538 203.81C306.681 194.99 308.595 185.338 314.614 178.293C323.129 168.336 323.129 153.664 314.614 143.707ZM160.958 295.948C86.5437 295.948 26.0245 235.401 26.0245 160.986C26.0245 86.5714 86.5437 26.0522 160.958 26.0522C235.373 26.0522 295.892 86.5991 295.892 160.986C295.892 235.373 235.345 295.948 160.958 295.948Z" stroke="#003B93" stroke-width="1.15942" stroke-dasharray="9.28 9.28"/>
</g>
<path d="M253.453 178.645C263.203 127.582 229.712 78.2833 178.649 68.5333C127.586 58.7833 78.2868 92.274 68.5368 143.337C58.7867 194.4 92.2776 243.698 143.341 253.448C194.404 263.198 243.703 229.708 253.453 178.645Z" fill="white"/>
<path d="M276.217 148.022C271.704 142.74 270.269 135.481 272.411 128.889C275.447 119.551 271.225 109.381 262.49 104.93C256.293 101.769 252.196 95.6341 251.655 88.7087C250.886 78.9132 243.107 71.1351 233.312 70.3656C226.386 69.8249 220.251 65.707 217.09 59.5303C212.64 50.7747 202.47 46.5737 193.132 49.61C186.518 51.7521 179.281 50.3171 173.998 45.8042C166.532 39.4194 155.53 39.4194 148.064 45.8042C142.782 50.3171 135.523 51.7521 128.931 49.61C119.593 46.5737 109.423 50.7955 104.972 59.5303C101.811 65.7278 95.6759 69.8249 88.7504 70.3656C78.9549 71.1351 71.1768 78.9132 70.4073 88.7087C69.8665 95.6341 65.7487 101.769 59.5719 104.93C50.8163 109.381 46.6152 119.551 49.6516 128.889C51.7938 135.502 50.3587 142.74 45.8458 148.022C39.461 155.488 39.461 166.49 45.8458 173.956C50.3587 179.239 51.7938 186.497 49.6516 193.089C46.6152 202.427 50.8371 212.597 59.5719 217.048C65.7695 220.209 69.8665 226.344 70.4073 233.27C71.1768 243.065 78.9549 250.843 88.7504 251.613C95.6759 252.153 101.811 256.271 104.972 262.448C109.423 271.204 119.593 275.405 128.931 272.368C135.544 270.226 142.782 271.661 148.064 276.174C155.53 282.559 166.532 282.559 173.998 276.174C179.281 271.661 186.539 270.226 193.132 272.368C202.47 275.405 212.64 271.204 217.09 262.448C220.251 256.25 226.386 252.153 233.312 251.613C243.107 250.843 250.886 243.065 251.655 233.27C252.196 226.344 256.314 220.209 262.49 217.048C271.246 212.597 275.447 202.427 272.411 193.089C270.269 186.476 271.704 179.239 276.217 173.956C282.601 166.49 282.601 155.488 276.217 148.022ZM161 262.178C105.201 262.178 59.8215 216.777 59.8215 160.979C59.8215 105.18 105.201 59.8006 161 59.8006C216.799 59.8006 262.179 105.201 262.179 160.979C262.179 216.757 216.778 262.178 161 262.178Z" fill="white"/>
<path d="M114.04 135C114.04 124.04 118.32 118.36 122.88 113.56V108.2H103.72V113.36H117.4C113.4 117.48 107.68 123.56 107.68 135H114.04ZM144.242 135C152.362 135 157.082 129.64 157.082 121.6C157.082 113.56 152.322 108.2 144.162 108.2H133.402V135H144.242ZM143.682 113.28C148.642 113.28 151.082 116.12 151.082 121.6C151.082 127.08 148.682 129.92 143.762 129.92H139.122V113.28H143.682ZM166.271 135V108.2H160.551V135H166.271ZM173.655 135L175.815 129.04H186.615L188.735 135H195.015L184.975 108.2H177.615L167.575 135H173.655ZM179.615 118.44L181.215 112.76L182.815 118.44L184.855 124.2H177.535L179.615 118.44ZM207.698 135.4C213.498 135.4 217.818 132.64 217.818 127.52C217.818 122.72 214.418 120.68 209.418 119.52L206.378 118.8C203.578 118.16 201.858 117.44 201.858 115.48C201.858 113.92 203.338 113.04 205.378 113.04C208.458 113.04 211.578 114.56 213.338 117.36L217.218 113C214.978 109.8 210.938 107.88 205.898 107.88C200.458 107.88 195.938 110.64 195.938 115.88C195.938 120.96 199.858 122.8 204.018 123.64L206.618 124.2C210.178 124.92 211.938 125.6 211.938 127.68C211.938 129.52 210.258 130.24 207.938 130.24C204.738 130.24 200.858 128.76 199.058 125.4L195.298 129.8C197.778 133.72 202.538 135.4 207.698 135.4Z" fill="#003B93"/>
<path d="M106.05 153.164C107.862 153.164 109.101 151.813 109.101 150.078C109.101 148.351 107.862 147 106.05 147C104.229 147 103 148.351 103 150.078C103 151.813 104.229 153.164 106.05 153.164ZM106.06 152.198C104.766 152.198 104.1 151.321 104.1 150.078C104.1 148.843 104.766 147.957 106.06 147.957C107.354 147.957 108.01 148.843 108.01 150.078C108.01 151.321 107.354 152.198 106.06 152.198Z" fill="#003B93"/>
<path d="M112.467 153.173C114.159 153.173 114.944 152.341 114.944 150.525V147.089H113.909V150.534C113.909 151.724 113.512 152.207 112.476 152.207C111.459 152.207 111.043 151.724 111.043 150.534V147.089H110.008V150.525C110.008 152.341 110.812 153.173 112.467 153.173Z" fill="#003B93"/>
<path d="M120.55 153.173C121.807 153.173 122.75 152.547 122.75 151.464C122.75 150.319 121.863 149.944 120.873 149.711L120.18 149.55C119.505 149.389 119.08 149.201 119.08 148.673C119.08 148.217 119.505 147.948 120.097 147.948C120.855 147.948 121.521 148.27 121.863 149.013L122.648 148.288C122.205 147.465 121.299 147.009 120.162 147.009C118.997 147.009 117.989 147.617 117.989 148.745C117.989 149.881 118.923 150.266 119.801 150.445L120.384 150.57C121.188 150.74 121.687 150.901 121.687 151.482C121.687 152.028 121.188 152.243 120.568 152.243C119.81 152.243 118.877 151.903 118.544 151.026L117.804 151.751C118.285 152.762 119.367 153.173 120.55 153.173Z" fill="#003B93"/>
<path d="M128.077 153.084V152.189H124.74V150.471H127.504V149.577H124.74V147.984H128.077V147.089H123.695V153.084H128.077Z" fill="#003B93"/>
<path d="M131.271 153.173C132.962 153.173 133.748 152.341 133.748 150.525V147.089H132.713V150.534C132.713 151.724 132.315 152.207 131.28 152.207C130.263 152.207 129.847 151.724 129.847 150.534V147.089H128.812V150.525C128.812 152.341 129.616 153.173 131.271 153.173Z" fill="#003B93"/>
<path d="M139.16 153.084C141.082 153.084 142.108 151.939 142.108 150.087C142.108 148.235 141.073 147.089 139.16 147.089H136.821V153.084H139.16ZM139.03 147.984C140.315 147.984 141.018 148.584 141.018 150.087C141.018 151.59 140.315 152.189 139.039 152.189H137.865V147.984H139.03Z" fill="#003B93"/>
<path d="M144.13 153.084V147.089H143.086V153.084H144.13Z" fill="#003B93"/>
<path d="M146.559 153.084V149.782L146.485 148.691L147.049 149.541L149.618 153.084H150.58V147.089H149.535V150.382L149.6 151.518L148.99 150.579L146.485 147.089H145.514V153.084H146.559Z" fill="#003B93"/>
<path d="M153.004 153.084V150.471H155.981V153.084H157.025V147.089H155.981V149.577H153.004V147.089H151.96V153.084H153.004Z" fill="#003B93"/>
<path d="M162.787 153.084V152.189H159.45V150.471H162.213V149.577H159.45V147.984H162.787V147.089H158.405V153.084H162.787Z" fill="#003B93"/>
<path d="M164.64 153.084V147.089H163.596V153.084H164.64Z" fill="#003B93"/>
<path d="M167.069 153.084V150.758H167.827C168.409 150.758 168.723 150.901 168.954 151.303L170.027 153.084H171.228L170.174 151.357C169.953 150.981 169.703 150.758 169.333 150.65C170.304 150.543 171.016 149.952 171.016 148.95C171.016 147.716 170.073 147.089 168.816 147.089H166.024V153.084H167.069ZM168.714 147.984C169.37 147.984 169.934 148.217 169.934 148.977C169.934 149.702 169.37 149.935 168.714 149.935H167.069V147.984H168.714Z" fill="#003B93"/>
<path d="M174.649 153.164C176.46 153.164 177.699 151.813 177.699 150.078C177.699 148.351 176.46 147 174.649 147C172.827 147 171.598 148.351 171.598 150.078C171.598 151.813 172.827 153.164 174.649 153.164ZM174.658 152.198C173.364 152.198 172.698 151.321 172.698 150.078C172.698 148.843 173.364 147.957 174.658 147.957C175.952 147.957 176.608 148.843 176.608 150.078C176.608 151.321 175.952 152.198 174.658 152.198Z" fill="#003B93"/>
<path d="M182.978 153.084C184.901 153.084 185.927 151.939 185.927 150.087C185.927 148.235 184.891 147.089 182.978 147.089H180.639V153.084H182.978ZM182.848 147.984C184.133 147.984 184.836 148.584 184.836 150.087C184.836 151.59 184.133 152.189 182.858 152.189H181.684V147.984H182.848Z" fill="#003B93"/>
<path d="M191.286 153.084V152.189H187.949V150.471H190.712V149.577H187.949V147.984H191.286V147.089H186.904V153.084H191.286Z" fill="#003B93"/>
<path d="M197.055 153.084L199.32 147.089H198.183L196.954 150.588L196.482 152.314L196.02 150.588L194.79 147.089H193.598L195.863 153.084H197.055Z" fill="#003B93"/>
<path d="M202.543 153.164C204.355 153.164 205.593 151.813 205.593 150.078C205.593 148.351 204.355 147 202.543 147C200.722 147 199.492 148.351 199.492 150.078C199.492 151.813 200.722 153.164 202.543 153.164ZM202.552 152.198C201.258 152.198 200.592 151.321 200.592 150.078C200.592 148.843 201.258 147.957 202.552 147.957C203.846 147.957 204.502 148.843 204.502 150.078C204.502 151.321 203.846 152.198 202.552 152.198Z" fill="#003B93"/>
<path d="M210.79 153.084V152.189H207.619V147.089H206.574V153.084H210.79Z" fill="#003B93"/>
<path d="M212.753 153.084V147.984H214.658V147.089H209.814V147.984H211.709V153.084H212.753Z" fill="#003B93"/>
<path d="M215.055 153.084L215.646 151.572H218.262L218.854 153.084H220L217.578 147.089H216.376L213.954 153.084H215.055ZM216.626 149.076L216.959 147.993L217.292 149.076L217.92 150.695H215.988L216.626 149.076Z" fill="#003B93"/>
<path d="M142.88 236.322V221.678H140.016C139.273 222.639 138.29 222.989 137 222.989V225.372H139.754V236.322H142.88Z" fill="#003B93"/>
<path d="M151.465 236.519C155.639 236.519 157.934 233.35 157.934 228.978C157.934 224.628 155.639 221.459 151.465 221.459C147.29 221.459 144.973 224.628 144.973 228.978C144.973 233.35 147.29 236.519 151.465 236.519ZM151.465 233.481C149.213 233.481 148.273 231.732 148.273 228.978C148.273 226.246 149.213 224.475 151.465 224.475C153.716 224.475 154.656 226.246 154.656 228.978C154.656 231.732 153.716 233.481 151.465 233.481Z" fill="#003B93"/>
<path d="M166.214 236.519C170.389 236.519 172.684 233.35 172.684 228.978C172.684 224.628 170.389 221.459 166.214 221.459C162.04 221.459 159.723 224.628 159.723 228.978C159.723 233.35 162.04 236.519 166.214 236.519ZM166.214 233.481C163.963 233.481 163.023 231.732 163.023 228.978C163.023 226.246 163.963 224.475 166.214 224.475C168.466 224.475 169.406 226.246 169.406 228.978C169.406 231.732 168.466 233.481 166.214 233.481Z" fill="#003B93"/>
<path d="M178.625 237L189.729 221H187.019L175.915 237H178.625ZM177.839 229.481C180.09 229.481 181.751 227.907 181.751 225.481C181.751 223.033 180.09 221.481 177.839 221.481C175.587 221.481 173.926 223.033 173.926 225.481C173.926 227.907 175.587 229.481 177.839 229.481ZM177.839 227.164C177.052 227.164 176.571 226.661 176.571 225.481C176.571 224.279 177.052 223.754 177.839 223.754C178.647 223.754 179.128 224.279 179.128 225.481C179.128 226.661 178.647 227.164 177.839 227.164ZM187.893 236.322C190.166 236.322 191.806 234.77 191.806 232.322C191.806 229.896 190.166 228.322 187.893 228.322C185.642 228.322 184.003 229.896 184.003 232.322C184.003 234.77 185.642 236.322 187.893 236.322ZM187.893 234.027C187.106 234.027 186.625 233.503 186.625 232.322C186.625 231.12 187.106 230.617 187.893 230.617C188.724 230.617 189.205 231.12 189.205 232.322C189.205 233.503 188.724 234.027 187.893 234.027Z" fill="#003B93"/>
<g opacity="0.32" filter="url(#filter0_f_1_4583)">
<rect width="235" height="48" transform="translate(43 170)" fill="#003B93"/>
<path d="M110.488 201.192C113.92 201.192 115.888 198.936 116.056 195.144L116.872 201H119.152V192.384H111.448V195.144H115.864C115.216 196.848 114.064 197.952 111.832 197.952C109.096 197.952 107.536 196.032 107.536 192.936C107.536 189.984 108.952 187.968 111.928 187.968C114.256 187.968 115.696 189.336 116.128 191.136L119.032 188.928C117.904 186.264 115.336 184.68 111.928 184.68C106.744 184.68 103.84 188.16 103.84 192.936C103.84 198.384 106.624 201.192 110.488 201.192ZM123.385 201L124.681 197.424H131.161L132.433 201H136.201L130.177 184.92H125.761L119.737 201H123.385ZM126.961 191.064L127.921 187.656L128.881 191.064L130.105 194.52H125.713L126.961 191.064ZM140.4 201V194.976H141.648C143.064 194.976 143.784 195.36 144.408 196.44L147.12 201H151.08L148.536 196.824C147.84 195.696 147.168 194.904 145.896 194.568C148.512 194.256 150.456 192.792 150.456 189.936C150.456 186.528 147.912 184.92 144.432 184.92H136.968V201H140.4ZM144.312 187.968C145.8 187.968 146.856 188.544 146.856 190.104C146.856 191.616 145.8 192.216 144.312 192.216H140.4V187.968H144.312ZM154.627 201L155.923 197.424H162.403L163.675 201H167.443L161.419 184.92H157.003L150.979 201H154.627ZM158.203 191.064L159.163 187.656L160.123 191.064L161.347 194.52H156.955L158.203 191.064ZM171.642 201V194.136L171.378 190.152L172.818 192.528L178.674 201H181.938V184.92H178.506V192.048L178.722 195.84L177.258 193.32L171.546 184.92H168.21V201H171.642ZM191.115 201V187.968H195.915V184.92H182.883V187.968H187.683V201H191.115ZM200.306 201V184.92H196.874V201H200.306ZM204.737 201L206.033 197.424H212.513L213.785 201H217.553L211.529 184.92H207.113L201.089 201H204.737ZM208.313 191.064L209.273 187.656L210.233 191.064L211.457 194.52H207.065L208.313 191.064Z" fill="#FAFFFF"/>
</g>
<rect width="261" height="48" transform="translate(30 163)" fill="#003B93"/>
<path d="M110.488 194.192C113.92 194.192 115.888 191.936 116.056 188.144L116.872 194H119.152V185.384H111.448V188.144H115.864C115.216 189.848 114.064 190.952 111.832 190.952C109.096 190.952 107.536 189.032 107.536 185.936C107.536 182.984 108.952 180.968 111.928 180.968C114.256 180.968 115.696 182.336 116.128 184.136L119.032 181.928C117.904 179.264 115.336 177.68 111.928 177.68C106.744 177.68 103.84 181.16 103.84 185.936C103.84 191.384 106.624 194.192 110.488 194.192ZM123.385 194L124.681 190.424H131.161L132.433 194H136.201L130.177 177.92H125.761L119.737 194H123.385ZM126.961 184.064L127.921 180.656L128.881 184.064L130.105 187.52H125.713L126.961 184.064ZM140.4 194V187.976H141.648C143.064 187.976 143.784 188.36 144.408 189.44L147.12 194H151.08L148.536 189.824C147.84 188.696 147.168 187.904 145.896 187.568C148.512 187.256 150.456 185.792 150.456 182.936C150.456 179.528 147.912 177.92 144.432 177.92H136.968V194H140.4ZM144.312 180.968C145.8 180.968 146.856 181.544 146.856 183.104C146.856 184.616 145.8 185.216 144.312 185.216H140.4V180.968H144.312ZM154.627 194L155.923 190.424H162.403L163.675 194H167.443L161.419 177.92H157.003L150.979 194H154.627ZM158.203 184.064L159.163 180.656L160.123 184.064L161.347 187.52H156.955L158.203 184.064ZM171.642 194V187.136L171.378 183.152L172.818 185.528L178.674 194H181.938V177.92H178.506V185.048L178.722 188.84L177.258 186.32L171.546 177.92H168.21V194H171.642ZM191.115 194V180.968H195.915V177.92H182.883V180.968H187.683V194H191.115ZM200.306 194V177.92H196.874V194H200.306ZM204.737 194L206.033 190.424H212.513L213.785 194H217.553L211.529 177.92H207.113L201.089 194H204.737ZM208.313 184.064L209.273 180.656L210.233 184.064L211.457 187.52H207.065L208.313 184.064Z" fill="#FAFFFF"/>
<defs>
<filter id="filter0_f_1_4583" x="39" y="166" width="243" height="56" filterUnits="userSpaceOnUse" color-interpolation-filters="sRGB">
<feFlood flood-opacity="0" result="BackgroundImageFix"/>
<feBlend mode="normal" in="SourceGraphic" in2="BackgroundImageFix" result="shape"/>
<feGaussianBlur stdDeviation="2" result="effect1_foregroundBlur_1_4583"/>
</filter>
</defs>
</svg>
