<svg width="137" height="28" viewBox="0 0 137 28" fill="none" xmlns="http://www.w3.org/2000/svg">
<path d="M44.1692 8.10727C40.4077 8.10727 37.3382 10.9694 37.3382 14.9149C37.3382 18.8603 40.4043 21.7191 44.1692 21.7191C47.9341 21.7191 51.0002 18.8302 51.0002 14.9149C51.0002 10.9995 47.9341 8.10727 44.1692 8.10727ZM44.1692 19.0375C42.1062 19.0375 40.3274 17.3356 40.3274 14.9149C40.3274 12.4941 42.1062 10.7888 44.1692 10.7888C46.2322 10.7888 48.0077 12.464 48.0077 14.9149C48.0077 17.3657 46.2289 19.0375 44.1692 19.0375ZM29.2668 8.10727C25.5052 8.10727 22.4358 10.9694 22.4358 14.9149C22.4358 18.8603 25.5018 21.7191 29.2668 21.7191C33.0317 21.7191 36.0977 18.8302 36.0977 14.9149C36.0977 10.9995 33.0283 8.10727 29.2668 8.10727ZM29.2668 19.0375C27.2071 19.0375 25.4283 17.3356 25.4283 14.9149C25.4283 12.4941 27.2071 10.7888 29.2668 10.7888C31.3264 10.7888 33.1086 12.464 33.1086 14.9149C33.1086 17.3657 31.3298 19.0375 29.2668 19.0375ZM11.5423 10.197V13.0826H18.4502C18.2429 14.7076 17.7046 15.8912 16.8787 16.7171C15.8723 17.7235 14.3008 18.8302 11.5423 18.8302C7.28922 18.8302 3.96233 15.403 3.96233 11.15C3.96233 6.89689 7.28588 3.46969 11.5423 3.46969C13.836 3.46969 15.5111 4.36912 16.7483 5.52935L18.7845 3.49309C17.0559 1.84469 14.7622 0.580811 11.5423 0.580811C5.71772 0.580811 0.819336 5.32539 0.819336 11.15C0.819336 16.9745 5.71772 21.7191 11.5423 21.7191C14.6853 21.7191 17.0559 20.6859 18.9149 18.7533C20.8208 16.8475 21.416 14.1659 21.416 11.9992C21.416 11.3305 21.3658 10.7119 21.2622 10.197H11.5456H11.5423ZM84.035 12.4372C83.4666 10.9159 81.7413 8.10727 78.2105 8.10727C74.6796 8.10727 71.7941 10.8658 71.7941 14.9149C71.7941 18.7299 74.6796 21.7191 78.5448 21.7191C81.6644 21.7191 83.4666 19.8132 84.2156 18.7032L81.8951 17.1551C81.1194 18.2886 80.0662 19.0375 78.5448 19.0375C77.0235 19.0375 75.9402 18.3421 75.2447 16.9779L84.3427 13.213L84.035 12.4406V12.4372ZM74.7565 14.7076C74.6796 12.0761 76.7928 10.7387 78.3141 10.7387C79.5011 10.7387 80.5075 11.3305 80.8419 12.1831L74.7599 14.7109L74.7565 14.7076ZM67.3571 21.3045H70.3463V1.30303H67.3571V21.3045ZM62.4587 9.62861H62.3551C61.6864 8.82949 60.3957 8.10727 58.7741 8.10727C55.3703 8.10727 52.2541 11.0965 52.2541 14.9383C52.2541 18.7801 55.3736 21.7158 58.7741 21.7158C60.3991 21.7158 61.6864 20.9935 62.3551 20.1677H62.4587V21.1473C62.4587 23.752 61.0678 25.143 58.8242 25.143C56.9953 25.143 55.8585 23.8289 55.397 22.7222L52.7924 23.8055C53.538 25.6111 55.5241 27.8279 58.8242 27.8279C62.3283 27.8279 65.2941 25.7649 65.2941 20.7394V8.52188H62.4587V9.63196V9.62861ZM59.0315 19.0375C56.9685 19.0375 55.2432 17.3122 55.2432 14.9416C55.2432 12.571 56.9685 10.7922 59.0315 10.7922C61.0946 10.7922 62.666 12.5442 62.666 14.9416C62.666 17.339 61.0678 19.0375 59.0315 19.0375ZM98.0414 1.30637H90.8894V21.3078H93.8719V13.7312H98.0414C101.352 13.7312 104.602 11.3339 104.602 7.5188C104.602 3.70374 101.348 1.30637 98.0414 1.30637ZM98.1183 10.946H93.8719V4.08825H98.1183C100.352 4.08825 101.619 5.93727 101.619 7.51545C101.619 9.09364 100.352 10.9427 98.1183 10.9427M116.568 8.07049C114.408 8.07049 112.168 9.02342 111.242 11.1299L113.893 12.2366C114.459 11.1299 115.515 10.7688 116.622 10.7688C118.167 10.7688 119.735 11.695 119.761 13.34V13.5473C119.22 13.2397 118.063 12.775 116.649 12.775C113.793 12.775 110.884 14.3431 110.884 17.2788C110.884 19.957 113.228 21.679 115.849 21.679C117.859 21.679 118.962 20.7795 119.658 19.723H119.761V21.2677H122.644V13.5975C122.644 10.0466 119.996 8.06715 116.572 8.06715M116.211 19.0275C115.231 19.0275 113.867 18.5393 113.867 17.3289C113.867 15.7842 115.565 15.1957 117.033 15.1957C118.344 15.1957 118.962 15.4799 119.761 15.8644C119.531 17.7168 117.936 19.0308 116.211 19.0308M133.143 8.50516L129.719 17.1785H129.615L126.064 8.50516H122.848L128.174 20.6257L125.138 27.3665H128.251L136.459 8.50516H133.139H133.143ZM106.253 21.3011H109.239V1.29969H106.253V21.3011Z" fill="#FAFFFF"/>
</svg>
