<svg width="37" height="42" viewBox="0 0 37 42" fill="none" xmlns="http://www.w3.org/2000/svg">
<path d="M17.1929 19.8786L0.157227 37.9575C0.157227 37.9575 0.157227 37.9642 0.157227 37.9675C0.678829 39.9302 2.471 41.3746 4.60088 41.3746C5.4535 41.3746 6.24928 41.1439 6.93472 40.7427L6.98822 40.7093L26.1638 29.6453L17.1896 19.8752L17.1929 19.8786Z" fill="#FAFFFF"/>
<path d="M34.4255 16.7991L34.4088 16.789L26.13 11.991L16.8047 20.2898L26.1634 29.6452L34.3954 24.8939C35.8398 24.1115 36.8195 22.5902 36.8195 20.8382C36.8195 19.0861 35.8532 17.5815 34.4222 16.7991" fill="#EBF1F6"/>
<path d="M0.157149 3.64209C0.0534969 4.01992 0 4.41781 0 4.82573V36.7739C0 37.1852 0.0534969 37.5797 0.157149 37.9575L17.7746 20.3401L0.153806 3.64209H0.157149Z" fill="#EBF1F6"/>
<path d="M17.3166 20.8014L26.1337 11.9877L6.98153 0.883545C6.28606 0.465594 5.47356 0.224854 4.60423 0.224854C2.47769 0.224854 0.682173 1.67264 0.157227 3.63868C0.157227 3.63868 0.157227 3.63868 0.157227 3.64202L17.32 20.8014H17.3166Z" fill="#FAFFFF"/>
</svg>
