<svg width="184" height="39" viewBox="0 0 184 39" fill="none" xmlns="http://www.w3.org/2000/svg">
<path d="M152.934 29.6901H156.004V9.12268H152.934V29.6901ZM180.586 16.5313L177.067 25.4486H176.962L173.309 16.5313H170.002L175.479 28.9942L172.358 35.9273H175.558L184 16.5313H180.586ZM163.176 27.3538C162.169 27.3538 160.767 26.852 160.767 25.6066C160.767 24.0205 162.513 23.4118 164.022 23.4118C165.371 23.4118 166.008 23.703 166.827 24.0995C166.589 26.0047 164.948 27.3538 163.176 27.3538V27.3538ZM163.546 16.0821C161.324 16.0821 159.02 17.0611 158.069 19.2312L160.794 20.3681C161.376 19.2312 162.461 18.8593 163.599 18.8593C165.187 18.8593 166.801 19.8119 166.827 21.5066V21.7172C166.271 21.3996 165.081 20.9242 163.625 20.9242C160.689 20.9242 157.698 22.5382 157.698 25.5539C157.698 28.3065 160.106 30.08 162.804 30.08C164.869 30.08 166.008 29.1538 166.722 28.0679H166.827V29.6556H169.79V21.7698C169.79 18.119 167.066 16.0822 163.547 16.0822L163.546 16.0821ZM144.573 19.0354H140.207V11.9854H144.573C146.869 11.9854 148.172 13.8857 148.172 15.5096C148.172 17.1038 146.869 19.0354 144.573 19.0354ZM144.495 9.12268H137.139V29.6901H140.207V21.8981H144.495C147.897 21.8981 151.242 19.4335 151.242 15.5096C151.242 11.5856 147.897 9.12268 144.495 9.12268V9.12268ZM104.382 27.3571C102.261 27.3571 100.486 25.5819 100.486 23.1436C100.486 20.679 102.261 18.8758 104.382 18.8758C106.476 18.8758 108.118 20.679 108.118 23.1436C108.118 25.5819 106.476 27.3571 104.382 27.3571ZM107.907 17.683H107.8C107.111 16.862 105.787 16.12 104.117 16.12C100.617 16.12 97.4106 19.1933 97.4106 23.1436C97.4106 27.0659 100.617 30.1146 104.117 30.1146C105.787 30.1146 107.111 29.3726 107.8 28.5236H107.907V29.5322C107.907 32.209 106.476 33.6404 104.169 33.6404C102.287 33.6404 101.121 32.288 100.644 31.1478L97.9667 32.2616C98.735 34.1175 100.777 36.3962 104.169 36.3962C107.774 36.3962 110.823 34.2755 110.823 29.1077V16.5428H107.907V17.683ZM112.943 29.6901H116.018V9.12104H112.943V29.6901ZM120.55 22.905C120.471 20.2019 122.644 18.8231 124.207 18.8231C125.428 18.8231 126.461 19.4319 126.805 20.3072L120.55 22.905ZM130.092 20.5721C129.51 19.0091 127.733 16.12 124.102 16.12C120.497 16.12 117.502 18.9548 117.502 23.1173C117.502 27.0396 120.471 30.1146 124.445 30.1146C127.654 30.1146 129.51 28.1534 130.278 27.0133L127.892 25.4223C127.098 26.5888 126.01 27.3571 124.446 27.3571C122.883 27.3571 121.769 26.6414 121.053 25.238L130.41 21.3667L130.092 20.5721ZM55.5481 18.2671V21.2351H62.6506C62.4384 22.905 61.8823 24.1242 61.035 24.9715C60.0001 26.0064 58.3828 27.1465 55.5481 27.1465C51.1733 27.1465 47.7544 23.6207 47.7544 19.2476C47.7544 14.8729 51.1733 11.3487 55.5481 11.3487C57.9073 11.3487 59.6299 12.2767 60.9017 13.4695L62.9961 11.3751C61.2192 9.67879 58.8616 8.37903 55.5481 8.37903C49.5576 8.37903 44.5215 13.2572 44.5215 19.2476C44.5215 25.238 49.5576 30.1146 55.5481 30.1146C58.781 30.1146 61.2192 29.0534 63.1278 27.0659C65.0906 25.1048 65.6993 22.3489 65.6993 20.1213C65.6993 19.4319 65.6466 18.7968 65.5398 18.2671H55.5481ZM73.7759 27.3571C71.6552 27.3571 69.8256 25.6082 69.8256 23.1173C69.8256 20.5984 71.6552 18.8758 73.7759 18.8758C75.895 18.8758 77.7245 20.5984 77.7245 23.1173C77.7245 25.6082 75.895 27.3571 73.7759 27.3571ZM73.7759 16.12C69.9046 16.12 66.7506 19.0617 66.7506 23.1173C66.7506 27.1465 69.9046 30.1146 73.7759 30.1146C77.6456 30.1146 80.7995 27.1465 80.7995 23.1173C80.7995 19.0617 77.6456 16.12 73.7759 16.12ZM89.0982 27.3571C86.9775 27.3571 85.1479 25.6082 85.1479 23.1173C85.1479 20.5984 86.9775 18.8758 89.0982 18.8758C91.219 18.8758 93.0468 20.5984 93.0468 23.1173C93.0468 25.6082 91.219 27.3571 89.0982 27.3571ZM89.0982 16.12C85.2286 16.12 82.0746 19.0617 82.0746 23.1173C82.0746 27.1465 85.2286 30.1146 89.0982 30.1146C92.9679 30.1146 96.1219 27.1465 96.1219 23.1173C96.1219 19.0617 92.9679 16.12 89.0982 16.12Z" fill="white"/>
<path d="M0.759673 1.5218C0.331861 1.97616 0.078125 2.68132 0.078125 3.59447V36.2203C0.078125 37.1349 0.331861 37.8386 0.759673 38.293L0.868841 38.3992L19.1467 20.1228V19.9074V19.6905L0.868841 1.41411L0.759673 1.5218Z" fill="white"/>
<path d="M19.1465 19.6904V19.9073V20.1227L25.2376 26.2183L25.3763 26.1401L32.5945 22.039C34.6554 20.8662 34.6554 18.9484 32.5945 17.7786L25.3763 13.676L25.2391 13.5978L19.1465 19.6904Z" fill="white"/>
<path d="M0.759766 38.2929C1.43984 39.0113 2.56248 39.1013 3.82673 38.3843L25.3766 26.1386L19.1468 19.9073L0.759766 38.2929Z" fill="#DBDBDB"/>
<path d="M0.759766 1.52165L19.1468 19.9072L25.3766 13.6759L3.82673 1.43166C3.2337 1.09384 2.67164 0.934513 2.17302 0.934513C1.60654 0.934513 1.12119 1.13957 0.759766 1.52165" fill="#DBDBDB"/>
</svg>
