<svg width="184" height="39" viewBox="0 0 184 39" fill="none" xmlns="http://www.w3.org/2000/svg">
<path d="M152.934 29.69H156.004V9.12256H152.934V29.69ZM180.586 16.5312L177.067 25.4485H176.962L173.309 16.5312H170.002L175.479 28.994L172.358 35.9272H175.558L184 16.5312H180.586ZM163.176 27.3537C162.169 27.3537 160.767 26.8519 160.767 25.6064C160.767 24.0204 162.513 23.4117 164.022 23.4117C165.371 23.4117 166.008 23.7029 166.827 24.0994C166.589 26.0046 164.948 27.3537 163.176 27.3537ZM163.546 16.082C161.324 16.082 159.02 17.061 158.069 19.2311L160.794 20.3679C161.376 19.2311 162.46 18.8592 163.599 18.8592C165.187 18.8592 166.801 19.8118 166.827 21.5064V21.717C166.271 21.3995 165.081 20.924 163.625 20.924C160.689 20.924 157.697 22.538 157.697 25.5538C157.697 28.3063 160.106 30.0799 162.804 30.0799C164.869 30.0799 166.008 29.1537 166.722 28.0678H166.827V29.6555H169.79V21.7697C169.79 18.1189 167.066 16.082 163.546 16.082L163.546 16.082ZM144.573 19.0353H140.207V11.9853H144.573C146.868 11.9853 148.172 13.8856 148.172 15.5095C148.172 17.1037 146.868 19.0353 144.573 19.0353ZM144.494 9.12256H137.139V29.69H140.207V21.898H144.494C147.897 21.898 151.242 19.4334 151.242 15.5095C151.242 11.5855 147.897 9.12256 144.494 9.12256ZM104.381 27.357C102.261 27.357 100.485 25.5818 100.485 23.1435C100.485 20.6789 102.261 18.8757 104.381 18.8757C106.476 18.8757 108.118 20.6789 108.118 23.1435C108.118 25.5818 106.476 27.357 104.381 27.357ZM107.907 17.6829H107.8C107.111 16.8619 105.787 16.1199 104.117 16.1199C100.617 16.1199 97.4105 19.1932 97.4105 23.1435C97.4105 27.0658 100.617 30.1145 104.117 30.1145C105.787 30.1145 107.111 29.3725 107.8 28.5235H107.907V29.532C107.907 32.2089 106.476 33.6402 104.169 33.6402C102.287 33.6402 101.12 32.2879 100.643 31.1477L97.9665 32.2615C98.7349 34.1174 100.777 36.3961 104.169 36.3961C107.774 36.3961 110.823 34.2753 110.823 29.1075V16.5427H107.907V17.6829ZM112.943 29.69H116.018V9.12092H112.943V29.69ZM120.549 22.9049C120.471 20.2018 122.644 18.823 124.207 18.823C125.428 18.823 126.461 19.4318 126.805 20.3071L120.549 22.9049ZM130.092 20.5719C129.509 19.0089 127.733 16.1199 124.102 16.1199C120.497 16.1199 117.502 18.9546 117.502 23.1172C117.502 27.0395 120.47 30.1145 124.445 30.1145C127.654 30.1145 129.509 28.1533 130.278 27.0131L127.892 25.4222C127.098 26.5887 126.01 27.357 124.445 27.357C122.882 27.357 121.769 26.6413 121.053 25.2379L130.41 21.3666L130.092 20.5719ZM55.5479 18.2669V21.235H62.6505C62.4383 22.9049 61.8822 24.1241 61.0349 24.9714C60 26.0062 58.3827 27.1464 55.5479 27.1464C51.1732 27.1464 47.7543 23.6206 47.7543 19.2475C47.7543 14.8728 51.1732 11.3486 55.5479 11.3486C57.9072 11.3486 59.6298 12.2765 60.9016 13.4694L62.996 11.3749C61.2191 9.67867 58.8615 8.37891 55.5479 8.37891C49.5575 8.37891 44.5214 13.2571 44.5214 19.2475C44.5214 25.2379 49.5575 30.1145 55.5479 30.1145C58.7809 30.1145 61.2191 29.0532 63.1277 27.0658C65.0904 25.1046 65.6992 22.3488 65.6992 20.1211C65.6992 19.4318 65.6465 18.7967 65.5397 18.2669H55.5479ZM73.7758 27.357C71.655 27.357 69.8255 25.6081 69.8255 23.1172C69.8255 20.5983 71.655 18.8757 73.7758 18.8757C75.8949 18.8757 77.7244 20.5983 77.7244 23.1172C77.7244 25.6081 75.8949 27.357 73.7758 27.357ZM73.7758 16.1199C69.9045 16.1199 66.7505 19.0616 66.7505 23.1172C66.7505 27.1464 69.9045 30.1145 73.7758 30.1145C77.6454 30.1145 80.7994 27.1464 80.7994 23.1172C80.7994 19.0616 77.6454 16.1199 73.7758 16.1199ZM89.0981 27.357C86.9774 27.357 85.1478 25.6081 85.1478 23.1172C85.1478 20.5983 86.9774 18.8757 89.0981 18.8757C91.2188 18.8757 93.0467 20.5983 93.0467 23.1172C93.0467 25.6081 91.2188 27.357 89.0981 27.357ZM89.0981 16.1199C85.2284 16.1199 82.0745 19.0616 82.0745 23.1172C82.0745 27.1464 85.2284 30.1145 89.0981 30.1145C92.9678 30.1145 96.1217 27.1464 96.1217 23.1172C96.1217 19.0616 92.9678 16.1199 89.0981 16.1199Z" fill="white"/>
<path d="M0.759917 1.5218C0.332106 1.97616 0.0783691 2.68132 0.0783691 3.59447V36.2203C0.0783691 37.1349 0.332106 37.8386 0.759917 38.293L0.869085 38.3992L19.147 20.1228V19.9074V19.6905L0.869085 1.41411L0.759917 1.5218Z" fill="white"/>
<path d="M19.1469 19.6904V19.9073V20.1227L25.2381 26.2183L25.3767 26.1401L32.595 22.039C34.6558 20.8662 34.6558 18.9484 32.595 17.7786L25.3767 13.676L25.2395 13.5978L19.1469 19.6904Z" fill="white"/>
<path d="M0.759888 38.293C1.43996 39.0114 2.5626 39.1014 3.82686 38.3845L25.3768 26.1387L19.1469 19.9074L0.759888 38.293Z" fill="#DBDBDB"/>
<path d="M0.759888 1.52165L19.1469 19.9072L25.3768 13.6759L3.82686 1.43166C3.23382 1.09384 2.67176 0.934513 2.17314 0.934513C1.60666 0.934513 1.12131 1.13957 0.759888 1.52165Z" fill="#DBDBDB"/>
</svg>
