<svg width="20" height="20" viewBox="0 0 20 20" fill="none" xmlns="http://www.w3.org/2000/svg">
<path d="M7.68506 7.6847C7.92208 6.66314 8.85252 5.95484 9.90031 5.99832C11.073 5.93337 12.0783 6.82697 12.1512 7.99916C12.1512 9.50369 10.0004 9.99999 10.0004 11.0004" stroke="#707579" stroke-width="1.5" stroke-linecap="round" stroke-linejoin="round"/>
<path d="M10.1253 13.7517C10.1252 13.8207 10.0692 13.8766 10.0002 13.8766C9.93113 13.8766 9.87519 13.8206 9.87516 13.7516C9.87513 13.6826 9.93103 13.6266 10 13.6265C10.0333 13.6265 10.0651 13.6396 10.0886 13.6631C10.1121 13.6866 10.1253 13.7185 10.1253 13.7517" stroke="#707579" stroke-width="1.5" stroke-linecap="round" stroke-linejoin="round"/>
<path fill-rule="evenodd" clip-rule="evenodd" d="M2.62861 15.1604C-0.0544891 11.3307 0.635021 6.08534 4.21672 3.07913C7.79842 0.0729299 13.0839 0.303349 16.3903 3.60985C19.6968 6.91634 19.9273 12.2018 16.9211 15.7835C13.9149 19.3652 8.66953 20.0547 4.8398 17.3716L1.99688 18.0033L2.62861 15.1604Z" stroke="#707579" stroke-width="1.5" stroke-linecap="round" stroke-linejoin="round"/>
</svg>
