<svg width="326" height="218" viewBox="0 0 326 218" fill="none" xmlns="http://www.w3.org/2000/svg">
<circle cx="67.9786" cy="149.642" r="63.9786" fill="#005EBD" stroke="#E9F4FF" stroke-width="8"/>
<path d="M65.7207 151.081C65.7207 151.081 65.7207 151.107 65.7207 151.081C65.7207 151.107 65.7207 151.107 65.7207 151.081C65.8781 151.239 66.1404 151.37 66.4552 151.317C66.5076 151.317 78.3119 147.986 79.2824 147.724C79.3349 147.698 79.3874 147.698 79.4136 147.671C79.7284 147.488 79.8333 147.173 79.8333 146.937C79.8333 146.727 79.7284 146.439 79.466 146.281C79.4136 146.229 73.3541 143.448 73.3541 143.448C73.3541 143.448 70.5735 137.389 70.5473 137.337C70.3899 137.101 70.1276 136.996 69.8915 136.97C69.6292 136.97 69.3406 137.075 69.157 137.389C69.1308 137.442 69.1046 137.468 69.1046 137.521C68.8422 138.491 65.5108 150.294 65.5108 150.347C65.4321 150.662 65.5633 150.924 65.7207 151.081Z" fill="white"/>
<path d="M75.9774 142.006L76.0561 141.927C76.0824 141.901 76.0824 141.901 76.1086 141.875C76.1348 141.848 76.1348 141.848 76.161 141.822L76.2397 141.743C76.266 141.717 76.266 141.717 76.2922 141.691C76.3184 141.665 76.3184 141.665 76.3447 141.639L76.4234 141.56C76.4496 141.534 76.4496 141.534 76.4758 141.507C76.5021 141.481 76.5021 141.481 76.5283 141.455L76.607 141.376C76.6332 141.35 76.6332 141.35 76.6595 141.324C76.6857 141.298 76.6857 141.298 76.7119 141.271L76.7906 141.193C77.1054 140.878 77.1054 140.353 76.7906 140.039C76.4758 139.724 75.9512 139.724 75.6364 140.039L75.5577 140.117C75.5315 140.143 75.5315 140.143 75.5053 140.17C75.479 140.196 75.479 140.196 75.4528 140.222L75.3741 140.301C75.3479 140.327 75.3479 140.327 75.3216 140.353C75.2954 140.38 75.2954 140.38 75.2692 140.406L75.1905 140.484C75.1642 140.511 75.1642 140.511 75.138 140.537C75.1118 140.563 75.1118 140.563 75.0856 140.589L75.0069 140.668C74.9806 140.694 74.9806 140.694 74.9544 140.721C74.9282 140.747 74.9282 140.747 74.9019 140.773L74.8232 140.852C74.5085 141.166 74.5085 141.691 74.8232 142.006C75.138 142.321 75.6626 142.321 75.9774 142.006ZM78.9154 136.76L78.8367 136.839C78.8104 136.865 78.8104 136.865 78.7842 136.891C78.758 136.917 78.758 136.917 78.7317 136.943L78.6531 137.022C78.6268 137.048 78.6268 137.048 78.6006 137.075C78.5744 137.101 78.5744 137.101 78.5481 137.127L78.4694 137.206C78.4432 137.232 78.4432 137.232 78.417 137.258C78.3907 137.284 78.3907 137.284 78.3645 137.311L78.2858 137.389C78.2596 137.416 78.2596 137.416 78.2333 137.442C78.2071 137.468 78.2071 137.468 78.1809 137.494L78.1022 137.573C77.7874 137.888 77.7874 138.412 78.1022 138.727C78.417 139.042 78.9416 139.042 79.2564 138.727L79.3351 138.648C79.3613 138.622 79.3613 138.622 79.3875 138.596C79.4138 138.57 79.4138 138.57 79.44 138.543L79.5187 138.465C79.5449 138.439 79.5449 138.439 79.5712 138.412C79.5974 138.386 79.5974 138.386 79.6236 138.36L79.7023 138.281C79.7285 138.255 79.7285 138.255 79.7548 138.229C79.781 138.202 79.781 138.202 79.8072 138.176L79.8859 138.098C79.9122 138.071 79.9122 138.071 79.9384 138.045C79.9646 138.019 79.9646 138.019 79.9909 137.993L80.0696 137.914C80.3843 137.599 80.3843 137.075 80.0696 136.76C79.7548 136.445 79.2301 136.445 78.9154 136.76ZM83.3485 133.481C83.0337 133.166 82.5091 133.166 82.1943 133.481L82.1156 133.56C82.0894 133.586 82.0894 133.586 82.0632 133.612C82.0369 133.639 82.0369 133.639 82.0107 133.665L81.932 133.743C81.9058 133.77 81.9058 133.77 81.8795 133.796C81.8533 133.822 81.8533 133.822 81.8271 133.848L81.7484 133.927C81.7222 133.953 81.7222 133.953 81.6959 133.98C81.6697 134.006 81.6697 134.006 81.6435 134.032L81.5648 134.111C81.5385 134.137 81.5385 134.137 81.5123 134.163C81.4861 134.189 81.4861 134.189 81.4598 134.216L81.3811 134.294C81.0664 134.609 81.0664 135.134 81.3811 135.448C81.6959 135.763 82.2206 135.763 82.5353 135.448L82.614 135.37C82.6403 135.343 82.6403 135.343 82.6665 135.317C82.6927 135.291 82.6927 135.291 82.719 135.265L82.7976 135.186C82.8239 135.16 82.8239 135.16 82.8501 135.134C82.8763 135.107 82.8763 135.107 82.9026 135.081L82.9813 135.002C83.0075 134.976 83.0075 134.976 83.0337 134.95C83.06 134.924 83.06 134.924 83.0862 134.898L83.1649 134.819C83.1911 134.793 83.1911 134.793 83.2174 134.766C83.2436 134.74 83.2436 134.74 83.2698 134.714L83.3485 134.635C83.6633 134.321 83.6633 133.796 83.3485 133.481ZM79.7285 149.35L79.4138 149.429C78.2333 149.77 77.1579 150.058 76.1873 150.347C76.1873 150.557 76.2135 150.766 76.2135 151.002C76.2135 156.721 71.5705 161.389 65.8258 161.389C60.1073 161.389 55.4381 156.747 55.4381 151.002C55.4381 145.258 60.0811 140.616 65.8258 140.616C66.0356 140.616 66.2455 140.616 66.4554 140.642C66.7439 139.566 67.0849 138.386 67.4522 137.075C67.4784 136.996 67.5046 136.917 67.5309 136.865C66.98 136.786 66.4029 136.76 65.8258 136.76C57.9825 136.76 51.582 143.16 51.582 151.002C51.582 158.845 57.9825 165.245 65.8258 165.245C73.6953 165.245 80.0696 158.845 80.0696 151.002C80.0696 150.425 80.0433 149.848 79.9646 149.271C79.9122 149.324 79.8335 149.35 79.7285 149.35Z" fill="white"/>
<path d="M64.1993 148.668C64.4354 147.855 64.8026 146.491 65.4322 144.288C61.9171 144.497 59.1104 147.435 59.1104 151.002C59.1104 154.701 62.127 157.743 65.8519 157.743C69.4456 157.743 72.3835 154.937 72.5672 151.396C70.3899 151.999 69.0259 152.393 68.2127 152.629C67.6881 153.389 66.8224 153.888 65.8519 153.888C64.278 153.888 62.9926 152.602 62.9926 151.029C62.9664 150.032 63.4648 149.193 64.1993 148.668Z" fill="white"/>
<path d="M58.1905 202.817L57.3857 202.617L56.6412 197.525L56.576 197.509L53.536 201.661L52.7313 201.461L54.114 195.893L54.7447 196.05L53.6942 200.28L53.7486 200.294L56.5391 196.496L57.1481 196.647L57.8375 201.309L57.8919 201.323L58.9424 197.092L59.5732 197.249L58.1905 202.817Z" fill="white"/>
<path d="M50.3685 194.524L48.0302 199.763L44.8684 198.352L45.1196 197.789L47.647 198.917L48.4371 197.147L46.0734 196.092L46.3246 195.529L48.6883 196.584L49.483 194.804L46.9147 193.658L47.1659 193.095L50.3685 194.524Z" fill="white"/>
<path d="M40.3456 195.849L43.3238 190.946L43.9176 191.307L40.9394 196.21L40.3456 195.849Z" fill="white"/>
<path d="M36.2342 185.683L32.2296 189.792L29.7503 187.375L30.1804 186.933L32.1623 188.865L33.5154 187.477L31.662 185.67L32.0921 185.229L33.9456 187.036L35.3066 185.64L33.2926 183.677L33.7228 183.235L36.2342 185.683Z" fill="white"/>
<path d="M26.6018 183.888L26.1188 183.214L28.8543 178.855L28.8151 178.8L23.8085 179.989L23.3255 179.315L27.9889 175.974L28.3675 176.502L24.8244 179.041L24.857 179.086L29.4444 178.005L29.8098 178.515L27.311 182.511L27.3436 182.557L30.8867 180.018L31.2653 180.546L26.6018 183.888Z" fill="white"/>
<path d="M24.0208 168.157L18.6209 170.094L17.459 166.857L18.0391 166.648L18.9663 169.232L20.7909 168.578L19.9507 166.236L20.5308 166.028L21.371 168.37L23.7862 167.503L24.0208 168.157Z" fill="white"/>
<path d="M18.1481 157.087C18.7436 156.98 19.2776 156.995 19.7501 157.132C20.2226 157.268 20.6103 157.503 20.913 157.836C21.2158 158.168 21.4106 158.575 21.4973 159.057C21.5841 159.539 21.5436 159.988 21.3758 160.405C21.2081 160.823 20.9267 161.178 20.5317 161.471C20.1367 161.764 19.6414 161.964 19.0459 162.072C18.4504 162.179 17.9164 162.164 17.4439 162.027C16.9714 161.89 16.5838 161.655 16.281 161.323C15.9782 160.99 15.7834 160.583 15.6967 160.102C15.61 159.62 15.6505 159.171 15.8182 158.753C15.9859 158.336 16.2673 157.981 16.6624 157.688C17.0574 157.395 17.5526 157.194 18.1481 157.087ZM18.2673 157.749C17.7784 157.837 17.3805 157.993 17.0736 158.217C16.7664 158.439 16.5514 158.705 16.4286 159.013C16.3055 159.32 16.2748 159.645 16.3363 159.986C16.3979 160.328 16.5401 160.622 16.7628 160.869C16.9852 161.113 17.2793 161.287 17.6452 161.39C18.0106 161.491 18.4378 161.498 18.9267 161.41C19.4156 161.322 19.8137 161.167 20.1209 160.944C20.4278 160.72 20.6428 160.455 20.7659 160.148C20.8887 159.839 20.9193 159.514 20.8577 159.172C20.7961 158.83 20.6541 158.537 20.4317 158.292C20.209 158.046 19.9149 157.872 19.5494 157.771C19.1836 157.668 18.7562 157.661 18.2673 157.749Z" fill="white"/>
<path d="M16.685 148.197L16.6862 148.892C16.4864 148.933 16.311 149.006 16.1599 149.108C16.0088 149.21 15.8821 149.333 15.7796 149.479C15.6753 149.623 15.5971 149.783 15.5452 149.958C15.4932 150.134 15.4674 150.317 15.4677 150.508C15.4683 150.855 15.5567 151.169 15.7327 151.451C15.9088 151.731 16.1678 151.954 16.5099 152.119C16.8519 152.283 17.2713 152.364 17.7681 152.364C18.2649 152.363 18.684 152.28 19.0254 152.115C19.3669 151.948 19.6252 151.724 19.8002 151.444C19.9752 151.162 20.0625 150.847 20.0618 150.499C20.0615 150.309 20.035 150.126 19.9824 149.95C19.9298 149.775 19.852 149.615 19.7491 149.472C19.6442 149.326 19.5161 149.203 19.3646 149.103C19.2113 149 19.0356 148.929 18.8376 148.888L18.8364 148.193C19.1296 148.245 19.3922 148.34 19.624 148.478C19.8558 148.615 20.0532 148.787 20.216 148.992C20.377 149.197 20.4997 149.428 20.5842 149.683C20.6687 149.937 20.7112 150.209 20.7117 150.498C20.7126 150.988 20.5939 151.423 20.3555 151.804C20.1171 152.186 19.7778 152.486 19.3374 152.705C18.8971 152.925 18.3744 153.035 17.7693 153.036C17.1642 153.037 16.6411 152.929 16.2 152.711C15.7589 152.493 15.4184 152.194 15.1787 151.814C14.939 151.433 14.8187 150.998 14.8178 150.509C14.8173 150.219 14.8588 149.947 14.9424 149.693C15.026 149.437 15.1488 149.206 15.3109 149.001C15.4712 148.795 15.667 148.623 15.8983 148.484C16.1278 148.346 16.39 148.25 16.685 148.197Z" fill="white"/>
<path d="M18.9351 139.418C19.5309 139.524 20.0269 139.722 20.423 140.014C20.8191 140.305 21.1017 140.66 21.2709 141.076C21.4401 141.493 21.4822 141.942 21.3972 142.424C21.3122 142.906 21.1189 143.314 20.8173 143.648C20.5157 143.981 20.1289 144.217 19.6569 144.356C19.1849 144.494 18.651 144.511 18.0551 144.406C17.4592 144.301 16.9633 144.103 16.5672 143.811C16.1711 143.519 15.8885 143.165 15.7192 142.748C15.55 142.331 15.5079 141.882 15.5929 141.4C15.6779 140.918 15.8713 140.511 16.1729 140.177C16.4745 139.843 16.8613 139.607 17.3333 139.469C17.8052 139.33 18.3392 139.313 18.9351 139.418ZM18.8183 140.08C18.329 139.994 17.9017 140.003 17.5363 140.107C17.1712 140.21 16.8777 140.385 16.6558 140.632C16.4343 140.877 16.2933 141.171 16.233 141.513C16.1726 141.855 16.2044 142.18 16.3283 142.489C16.4525 142.795 16.6684 143.06 16.9761 143.283C17.2841 143.504 17.6827 143.658 18.1719 143.744C18.6611 143.83 19.0883 143.822 19.4534 143.72C19.8188 143.615 20.1123 143.441 20.3339 143.195C20.5558 142.948 20.6969 142.653 20.7572 142.311C20.8176 141.969 20.7856 141.645 20.6614 141.339C20.5376 141.03 20.3216 140.766 20.0136 140.545C19.7059 140.321 19.3075 140.167 18.8183 140.08Z" fill="white"/>
<path d="M17.9045 127.848L26.5132 131.709L26.2839 132.221L17.6753 128.36L17.9045 127.848Z" fill="white"/>
<path d="M29.4677 122.822L29.022 123.398L25.7736 118.221L26.2124 117.654L32.039 119.499L31.5933 120.075L26.7246 118.475L26.6971 118.511L29.4677 122.822ZM27.8598 121.238L29.6563 118.916L30.1437 119.293L28.3472 121.615L27.8598 121.238Z" fill="white"/>
<path d="M34.3262 109.24L34.9962 108.751L39.3774 111.451L39.4317 111.411L38.2013 106.414L38.8713 105.926L42.2514 110.561L41.7263 110.944L39.1582 107.422L39.1129 107.455L40.2324 112.034L39.7254 112.403L35.7087 109.938L35.6634 109.971L38.2315 113.493L37.7064 113.876L34.3262 109.24Z" fill="white"/>
<path d="M45.7065 108.569L43.1923 103.412L46.3045 101.895L46.5746 102.449L44.0869 103.662L44.9364 105.404L47.263 104.27L47.5331 104.824L45.2064 105.958L46.0609 107.711L48.5889 106.478L48.859 107.032L45.7065 108.569Z" fill="white"/>
<path d="M52.2815 105.68L50.5452 100.212L51.2074 100.001L52.7571 104.882L55.2989 104.075L55.4854 104.662L52.2815 105.68Z" fill="white"/>
<path d="M58.7112 103.875L57.847 98.2038L58.5338 98.0991L58.9186 100.625L61.9428 100.164L61.5579 97.6383L62.2447 97.5337L63.1089 103.205L62.4221 103.31L62.0356 100.773L59.0115 101.234L59.398 103.771L58.7112 103.875Z" fill="white"/>
<path d="M71.6973 100.199C71.682 100.804 71.5596 101.324 71.3301 101.759C71.1006 102.194 70.7924 102.526 70.4055 102.756C70.0186 102.985 69.5806 103.094 69.0914 103.081C68.6023 103.069 68.1703 102.938 67.7955 102.69C67.4207 102.441 67.1296 102.094 66.9222 101.648C66.7149 101.202 66.6189 100.676 66.6341 100.071C66.6494 99.4665 66.7718 98.9465 67.0013 98.5114C67.2308 98.0763 67.5391 97.7441 67.9259 97.5147C68.3128 97.2854 68.7508 97.1768 69.24 97.1892C69.7291 97.2015 70.1611 97.3319 70.5359 97.5805C70.9108 97.8291 71.2018 98.1764 71.4092 98.6225C71.6165 99.0686 71.7125 99.5941 71.6973 100.199ZM71.0252 100.182C71.0377 99.6855 70.9652 99.2642 70.8076 98.9184C70.652 98.5726 70.4354 98.3084 70.1579 98.1258C69.8823 97.9433 69.5708 97.8476 69.2236 97.8389C68.8763 97.8301 68.5595 97.9099 68.2732 98.0783C67.9887 98.2467 67.7591 98.4997 67.5844 98.8372C67.4115 99.1747 67.3187 99.5917 67.3062 100.088C67.2937 100.585 67.3653 101.006 67.521 101.352C67.6785 101.698 67.8951 101.962 68.1707 102.145C68.4482 102.327 68.7606 102.423 69.1078 102.432C69.4551 102.44 69.7709 102.36 70.0554 102.192C70.3417 102.024 70.5713 101.771 70.7442 101.433C70.919 101.096 71.0127 100.679 71.0252 100.182Z" fill="white"/>
<path d="M75.3913 103.513L76.5118 97.8863L78.413 98.2649C78.8526 98.3524 79.1984 98.4994 79.4506 98.7057C79.7031 98.9103 79.8712 99.1561 79.955 99.4431C80.0387 99.7302 80.0476 100.04 79.9816 100.371C79.9156 100.703 79.7892 100.983 79.6026 101.212C79.416 101.442 79.168 101.602 78.8586 101.693C78.5496 101.782 78.1771 101.783 77.7412 101.696L76.2027 101.389L76.3252 100.774L77.8418 101.076C78.1421 101.136 78.3927 101.14 78.5933 101.089C78.7958 101.037 78.9543 100.94 79.0688 100.795C79.1856 100.649 79.2664 100.463 79.3112 100.238C79.3561 100.012 79.3532 99.807 79.3025 99.6217C79.2518 99.4364 79.143 99.2795 78.9763 99.1511C78.8099 99.0209 78.5747 98.9255 78.2707 98.8649L77.0728 98.6264L76.0727 103.649L75.3913 103.513ZM78.5431 101.513L79.4244 104.316L78.6332 104.158L77.7739 101.36L78.5431 101.513Z" fill="white"/>
<path d="M87.3065 107.006L89.8466 101.862L91.5847 102.72C91.9883 102.919 92.2822 103.155 92.4665 103.427C92.6532 103.698 92.7478 103.988 92.7501 104.295C92.7525 104.602 92.6789 104.908 92.5292 105.211C92.3795 105.514 92.1816 105.759 91.9353 105.945C91.6907 106.133 91.4039 106.237 91.0749 106.258C90.7468 106.277 90.3826 106.188 89.9824 105.99L88.7366 105.375L89.0094 104.822L90.2352 105.428C90.5115 105.564 90.7569 105.626 90.9715 105.613C91.1861 105.6 91.3711 105.531 91.5267 105.406C91.6847 105.28 91.8146 105.114 91.9163 104.908C92.018 104.702 92.0705 104.499 92.0737 104.298C92.0785 104.099 92.0191 103.911 91.8955 103.736C91.7726 103.558 91.5714 103.401 91.2918 103.262L90.1966 102.722L87.9294 107.313L87.3065 107.006Z" fill="white"/>
<path d="M94.0362 110.677L97.3222 105.975L97.8916 106.372L94.9586 110.57L97.1447 112.098L96.7917 112.603L94.0362 110.677Z" fill="white"/>
<path d="M99.5464 114.86L99.019 114.358L104.501 111.657L105.021 112.151L102.589 117.759L102.062 117.256L104.151 112.577L104.119 112.546L99.5464 114.86ZM101.287 113.423L103.413 115.448L102.987 115.894L100.862 113.869L101.287 113.423Z" fill="white"/>
<path d="M108.605 116.843L109.096 116.471L111.695 119.9L111.204 120.272L110.114 118.834L106.033 121.927L105.613 121.373L109.695 118.281L108.605 116.843Z" fill="white"/>
<path d="M109.21 126.666L108.869 126.023L114.925 125.199L115.26 125.832L111.177 130.379L110.836 129.736L114.301 125.96L114.28 125.921L109.21 126.666ZM111.316 125.855L112.69 128.449L112.145 128.738L110.771 126.143L111.316 125.855Z" fill="white"/>
<path d="M112.415 133.364L117.84 131.5L118.958 134.754L118.375 134.954L117.483 132.357L115.65 132.987L116.458 135.34L115.875 135.54L115.067 133.187L112.64 134.021L112.415 133.364Z" fill="white"/>
<path d="M118.135 144.513C117.538 144.612 117.004 144.59 116.533 144.447C116.063 144.303 115.678 144.063 115.38 143.727C115.082 143.39 114.893 142.98 114.813 142.498C114.732 142.015 114.779 141.566 114.953 141.151C115.126 140.736 115.412 140.385 115.811 140.097C116.21 139.809 116.708 139.616 117.305 139.517C117.902 139.418 118.436 139.44 118.906 139.583C119.377 139.726 119.761 139.966 120.059 140.303C120.358 140.64 120.547 141.049 120.627 141.532C120.707 142.015 120.66 142.464 120.487 142.879C120.314 143.294 120.027 143.645 119.628 143.933C119.229 144.221 118.732 144.414 118.135 144.513ZM118.024 143.85C118.515 143.768 118.915 143.618 119.224 143.398C119.535 143.18 119.753 142.917 119.88 142.61C120.008 142.305 120.043 141.981 119.986 141.639C119.929 141.296 119.791 141 119.571 140.75C119.352 140.503 119.061 140.325 118.696 140.217C118.332 140.111 117.905 140.099 117.415 140.18C116.925 140.261 116.525 140.411 116.215 140.629C115.905 140.849 115.686 141.112 115.559 141.417C115.432 141.724 115.397 142.049 115.454 142.391C115.511 142.734 115.649 143.029 115.868 143.277C116.087 143.526 116.379 143.704 116.743 143.81C117.107 143.918 117.534 143.931 118.024 143.85Z" fill="white"/>
<path d="M115.577 148.766L121.314 148.805L121.301 150.743C121.298 151.191 121.219 151.559 121.064 151.845C120.911 152.132 120.701 152.343 120.435 152.48C120.169 152.616 119.867 152.683 119.529 152.681C119.191 152.679 118.891 152.607 118.631 152.467C118.37 152.327 118.166 152.114 118.019 151.827C117.873 151.541 117.802 151.175 117.805 150.731L117.816 149.162L118.443 149.166L118.433 150.712C118.431 151.019 118.474 151.266 118.562 151.453C118.651 151.642 118.777 151.779 118.94 151.864C119.106 151.951 119.304 151.996 119.533 151.997C119.763 151.999 119.964 151.957 120.137 151.873C120.309 151.788 120.442 151.652 120.537 151.464C120.634 151.276 120.683 151.027 120.685 150.717L120.693 149.495L115.573 149.46L115.577 148.766ZM118.136 151.484L115.549 152.878L115.555 152.071L118.142 150.699L118.136 151.484Z" fill="white"/>
<path d="M120.923 157.466L120.768 158.281L115.725 159.305L115.713 159.371L120.026 162.178L119.871 162.992L114.235 161.918L114.357 161.28L118.638 162.096L118.649 162.041L114.703 159.464L114.82 158.847L119.437 157.902L119.448 157.847L115.166 157.031L115.288 156.393L120.923 157.466Z" fill="white"/>
<path d="M113.001 165.95L113.265 165.271L117.853 169.308L117.594 169.977L111.483 169.868L111.746 169.189L116.869 169.335L116.885 169.294L113.001 165.95ZM114.994 167.011L113.933 169.748L113.358 169.525L114.419 166.788L114.994 167.011Z" fill="white"/>
<path d="M106.553 178.289L107.605 176.866L112.218 180.277L111.118 181.764C110.787 182.211 110.412 182.526 109.992 182.707C109.573 182.89 109.129 182.939 108.66 182.855C108.192 182.771 107.719 182.553 107.242 182.2C106.761 181.844 106.411 181.453 106.191 181.025C105.972 180.598 105.891 180.152 105.947 179.687C106.004 179.224 106.206 178.757 106.553 178.289ZM107.688 177.791L107.075 178.619C106.793 179.001 106.632 179.371 106.594 179.731C106.556 180.09 106.627 180.432 106.808 180.756C106.988 181.08 107.266 181.381 107.642 181.659C108.014 181.934 108.38 182.111 108.738 182.188C109.098 182.266 109.44 182.238 109.763 182.103C110.087 181.969 110.383 181.722 110.649 181.361L111.309 180.469L107.688 177.791Z" fill="white"/>
<path d="M102.499 183.211L106.504 187.32L104.025 189.736L103.594 189.295L105.576 187.363L104.223 185.975L102.37 187.782L101.94 187.341L103.793 185.534L102.432 184.138L100.418 186.101L99.9879 185.66L102.499 183.211Z" fill="white"/>
<path d="M96.0337 195.837L95.3042 196.231L91.3249 192.968L91.2658 193L91.8145 198.117L91.085 198.511L88.3576 193.464L88.9293 193.155L91.0015 196.99L91.0508 196.963L90.5559 192.276L91.1079 191.978L94.7574 194.96L94.8067 194.933L92.7345 191.099L93.3063 190.79L96.0337 195.837Z" fill="white"/>
<path d="M84.6663 194.975L86.4656 200.422L83.1779 201.508L82.9846 200.923L85.6126 200.055L85.0046 198.214L82.5468 199.026L82.3536 198.441L84.8114 197.629L84.1999 195.778L81.5293 196.66L81.336 196.075L84.6663 194.975Z" fill="white"/>
<path d="M78.1496 202.704L77.0492 197.073L77.731 196.94L78.8314 202.571L78.1496 202.704Z" fill="white"/>
<path d="M130.351 115.728L139.445 123.931L147.649 114.837L138.555 106.634L130.351 115.728ZM272.23 205.907C272.942 206.332 273.863 206.1 274.288 205.389L281.214 193.801C281.639 193.09 281.407 192.169 280.696 191.744C279.985 191.319 279.064 191.551 278.639 192.262L272.482 202.562L262.182 196.406C261.471 195.98 260.55 196.212 260.125 196.923C259.7 197.635 259.931 198.556 260.643 198.981L272.23 205.907ZM139.077 116.781C140.408 116.712 141.749 116.621 143.101 116.509L142.852 113.519C141.531 113.629 140.221 113.718 138.923 113.785L139.077 116.781ZM151.17 115.603C153.808 115.233 156.476 114.79 159.17 114.279L158.611 111.331C155.962 111.834 153.341 112.269 150.754 112.632L151.17 115.603ZM167.093 112.598C169.69 111.99 172.306 111.325 174.935 110.606L174.144 107.712C171.549 108.422 168.969 109.078 166.409 109.676L167.093 112.598ZM182.697 108.341C185.251 107.551 187.813 106.714 190.38 105.833L189.406 102.996C186.867 103.866 184.334 104.694 181.81 105.476L182.697 108.341ZM197.984 103.105C200.493 102.166 203.004 101.189 205.51 100.176L204.387 97.3947C201.903 98.3974 199.417 99.3654 196.932 100.295L197.984 103.105ZM212.959 97.0628C215.425 95.9975 217.883 94.9011 220.33 93.7769L219.078 91.0508C216.651 92.1657 214.213 93.2528 211.769 94.3089L212.959 97.0628ZM227.624 90.3289C230.045 89.1519 232.451 87.95 234.839 86.7263L233.47 84.0566C231.101 85.2708 228.714 86.4632 226.312 87.6308L227.624 90.3289ZM241.979 82.972C244.358 81.6898 246.713 80.3882 249.042 79.0703L247.564 76.4595C245.253 77.7673 242.916 79.0589 240.556 80.3313L241.979 82.972ZM256.023 75.0231C258.356 73.6381 260.656 72.2394 262.919 70.8302L261.333 68.2836C259.088 69.6815 256.806 71.0693 254.491 72.4435L256.023 75.0231ZM269.723 66.489C272.005 64.9973 274.242 63.4978 276.428 61.9946L274.729 59.5224C272.562 61.0122 270.344 62.4987 268.081 63.978L269.723 66.489ZM283.025 57.3388C285.247 55.7273 287.407 54.116 289.497 52.5096L287.669 50.1308C285.602 51.7196 283.465 53.3143 281.264 54.91L283.025 57.3388ZM295.823 47.4909C297.964 45.7341 300.014 43.989 301.965 42.2619L299.976 40.0159C298.056 41.7164 296.034 43.437 293.92 45.1715L295.823 47.4909ZM307.937 36.7251C309.978 34.737 311.868 32.7819 313.594 30.8705L311.367 28.8601C309.689 30.7185 307.844 32.6275 305.844 34.5764L307.937 36.7251ZM318.789 24.5781C320.587 22.1563 322.07 19.8189 323.191 17.5932L320.512 16.2435C319.486 18.2803 318.102 20.4705 316.381 22.7899L318.789 24.5781ZM325.649 9.30167C325.713 7.69668 325.476 6.16715 324.883 4.75571L322.117 5.91741C322.517 6.86865 322.701 7.95165 322.651 9.181L325.649 9.30167ZM324.883 4.75571C324.187 3.09845 323.2 1.77067 321.914 0.858063L320.178 3.3048C320.919 3.83026 321.591 4.66513 322.117 5.91741L324.883 4.75571ZM312.653 0.558393C310.335 1.51086 307.861 3.08861 305.314 5.2147L307.236 7.51791C309.627 5.52303 311.839 4.1362 313.793 3.33325L312.653 0.558393ZM299.309 11.0958C297.585 13.0283 295.839 15.1926 294.093 17.5803L296.515 19.3512C298.209 17.0346 299.894 14.9467 301.548 13.0931L299.309 11.0958ZM289.423 24.5167C288.025 26.7644 286.638 29.155 285.274 31.6844L287.914 33.1085C289.25 30.6315 290.606 28.2946 291.97 26.1012L289.423 24.5167ZM281.546 39.0763C280.404 41.5004 279.286 44.0275 278.201 46.655L280.974 47.8001C282.04 45.2171 283.138 42.7348 284.26 40.3555L281.546 39.0763ZM275.215 54.3794C274.3 56.9143 273.417 59.5289 272.572 62.2213L275.434 63.1199C276.267 60.4676 277.136 57.8932 278.037 55.3983L275.215 54.3794ZM270.254 70.1602C269.549 72.7698 268.879 75.4437 268.251 78.1806L271.175 78.8521C271.795 76.1526 272.455 73.5158 273.15 70.9433L270.254 70.1602ZM266.55 86.2705C266.041 88.934 265.571 91.6509 265.143 94.4203L268.108 94.8781C268.53 92.144 268.994 89.4622 269.497 86.8337L266.55 86.2705ZM264.023 102.622C263.701 105.322 263.42 108.068 263.183 110.858L266.172 111.112C266.406 108.356 266.684 105.644 267.002 102.977L264.023 102.622ZM262.619 119.07C262.477 121.779 262.376 124.526 262.319 127.311L265.318 127.372C265.375 124.619 265.474 121.904 265.615 119.227L262.619 119.07ZM262.279 135.576C262.308 138.306 262.379 141.069 262.494 143.865L265.491 143.742C265.377 140.976 265.307 138.243 265.279 135.544L262.279 135.576ZM262.953 152.072C263.145 154.781 263.378 157.519 263.654 160.286L266.639 159.988C266.366 157.25 266.135 154.541 265.946 151.86L262.953 152.072ZM264.594 168.515C264.94 171.207 265.327 173.926 265.756 176.668L268.72 176.204C268.295 173.489 267.912 170.798 267.569 168.132L264.594 168.515ZM267.14 184.786C267.635 187.474 268.171 190.185 268.749 192.918L271.684 192.297C271.111 189.59 270.58 186.905 270.09 184.243L267.14 184.786ZM270.552 200.932C270.873 202.278 271.204 203.629 271.545 204.985L274.455 204.253C274.116 202.909 273.788 201.57 273.47 200.237L270.552 200.932Z" fill="#005EBD"/>
</svg>
