<svg width="154" height="41" viewBox="0 0 154 41" fill="none" xmlns="http://www.w3.org/2000/svg">
<path d="M17.6736 23.2297C17.6736 23.2297 17.6736 23.2625 17.6736 23.2297C17.6736 23.2625 17.6736 23.2625 17.6736 23.2297C17.8703 23.4264 18.1982 23.5903 18.5917 23.5248C18.6572 23.5248 33.4125 19.3608 34.6257 19.033C34.6913 19.0002 34.7568 19.0002 34.7896 18.9674C35.1831 18.7379 35.3143 18.3444 35.3143 18.0493C35.3143 17.7871 35.1831 17.4264 34.8552 17.2297C34.7896 17.1641 27.2153 13.6887 27.2153 13.6887C27.2153 13.6887 23.7396 6.11492 23.7068 6.04935C23.5101 5.75427 23.1822 5.62312 22.8871 5.59033C22.5592 5.59033 22.1985 5.72148 21.969 6.11492C21.9362 6.1805 21.9034 6.21328 21.9034 6.27886C21.5755 7.49197 17.4112 22.2461 17.4112 22.3116C17.3129 22.7051 17.4768 23.033 17.6736 23.2297Z" fill="#FAFFFF"/>
<path d="M30.4941 11.8854L30.5925 11.787C30.6253 11.7542 30.6253 11.7542 30.6581 11.7215C30.6909 11.6887 30.6909 11.6887 30.7237 11.6559L30.822 11.5575C30.8548 11.5247 30.8548 11.5247 30.8876 11.4919C30.9204 11.4592 30.9204 11.4592 30.9532 11.4264L31.0515 11.328C31.0843 11.2952 31.0843 11.2952 31.1171 11.2624C31.1499 11.2297 31.1499 11.2297 31.1827 11.1969L31.2811 11.0985C31.3139 11.0657 31.3139 11.0657 31.3467 11.0329C31.3794 11.0001 31.3794 11.0001 31.4122 10.9674L31.5106 10.869C31.9041 10.4756 31.9041 9.81982 31.5106 9.42637C31.1171 9.03293 30.4613 9.03293 30.0679 9.42637L29.9695 9.52473C29.9367 9.55752 29.9367 9.55752 29.9039 9.59031C29.8711 9.6231 29.8711 9.62309 29.8383 9.65588L29.74 9.75424C29.7072 9.78703 29.7072 9.78703 29.6744 9.81982C29.6416 9.8526 29.6416 9.8526 29.6088 9.88539L29.5104 9.98375C29.4777 10.0165 29.4777 10.0165 29.4449 10.0493C29.4121 10.0821 29.4121 10.0821 29.3793 10.1149L29.2809 10.2133C29.2481 10.246 29.2481 10.246 29.2153 10.2788C29.1826 10.3116 29.1826 10.3116 29.1498 10.3444L29.0514 10.4428C28.6579 10.8362 28.6579 11.4919 29.0514 11.8854C29.4449 12.2788 30.1007 12.2788 30.4941 11.8854ZM34.1665 5.32801L34.0682 5.42637C34.0354 5.45916 34.0354 5.45916 34.0026 5.49195C33.9698 5.52473 33.9698 5.52473 33.937 5.55752L33.8386 5.65588C33.8059 5.68867 33.8059 5.68867 33.7731 5.72146C33.7403 5.75424 33.7403 5.75424 33.7075 5.78703L33.6091 5.88539C33.5763 5.91818 33.5763 5.91818 33.5435 5.95096C33.5108 5.98375 33.5108 5.98375 33.478 6.01654L33.3796 6.1149C33.3468 6.14768 33.3468 6.14769 33.314 6.18047C33.2812 6.21326 33.2812 6.21326 33.2484 6.24605L33.1501 6.34441C32.7566 6.73785 32.7566 7.39359 33.1501 7.78703C33.5435 8.18047 34.1993 8.18047 34.5928 7.78703L34.6912 7.68867C34.724 7.65588 34.724 7.65588 34.7567 7.62309C34.7895 7.59031 34.7895 7.59031 34.8223 7.55752L34.9207 7.45916C34.9535 7.42637 34.9535 7.42637 34.9863 7.39359C35.0191 7.3608 35.0191 7.3608 35.0519 7.32801L35.1502 7.22965C35.183 7.19687 35.183 7.19687 35.2158 7.16408C35.2486 7.13129 35.2486 7.13129 35.2814 7.0985L35.3797 7.00014C35.4125 6.96736 35.4125 6.96736 35.4453 6.93457C35.4781 6.90178 35.4781 6.90178 35.5109 6.869L35.6093 6.77064C36.0027 6.37719 36.0027 5.72146 35.6093 5.32801C35.2158 4.93457 34.56 4.93457 34.1665 5.32801ZM39.7079 1.22965C39.3145 0.83621 38.6587 0.83621 38.2652 1.22965L38.1668 1.32801C38.1341 1.3608 38.1341 1.3608 38.1013 1.39359C38.0685 1.42637 38.0685 1.42637 38.0357 1.45916L37.9373 1.55752C37.9045 1.59031 37.9045 1.59031 37.8717 1.62309C37.839 1.65588 37.839 1.65588 37.8062 1.68867L37.7078 1.78703C37.675 1.81982 37.675 1.81982 37.6422 1.8526C37.6094 1.88539 37.6094 1.88539 37.5766 1.91818L37.4783 2.01654C37.4455 2.04932 37.4455 2.04932 37.4127 2.08211C37.3799 2.1149 37.3799 2.1149 37.3471 2.14769L37.2487 2.24605C36.8553 2.63949 36.8553 3.29523 37.2487 3.68867C37.6422 4.08211 38.298 4.08211 38.6915 3.68867L38.7898 3.59031C38.8226 3.55752 38.8226 3.55752 38.8554 3.52473C38.8882 3.49195 38.8882 3.49195 38.921 3.45916L39.0194 3.3608C39.0522 3.32801 39.0522 3.32801 39.0849 3.29523C39.1177 3.26244 39.1177 3.26244 39.1505 3.22965L39.2489 3.13129C39.2817 3.0985 39.2817 3.0985 39.3145 3.06572C39.3473 3.03293 39.3473 3.03293 39.3801 3.00014L39.4784 2.90178C39.5112 2.869 39.5112 2.869 39.544 2.83621C39.5768 2.80342 39.5768 2.80342 39.6096 2.77064L39.7079 2.67228C40.1014 2.27883 40.1014 1.62309 39.7079 1.22965ZM35.183 21.0657L34.7895 21.1641C33.314 21.5903 31.9697 21.951 30.7564 22.3116C30.7564 22.5739 30.7892 22.8362 30.7892 23.1313C30.7892 30.2788 24.9855 36.1149 17.8046 36.1149C10.6566 36.1149 4.82004 30.3116 4.82004 23.1313C4.82004 15.951 10.6238 10.1477 17.8046 10.1477C18.067 10.1477 18.3293 10.1477 18.5916 10.1805C18.9523 8.83621 19.3785 7.3608 19.8376 5.72146C19.8704 5.6231 19.9032 5.52473 19.9359 5.45916C19.2474 5.3608 18.526 5.32801 17.8046 5.32801C8.00061 5.32801 0 13.328 0 23.1313C0 32.9346 8.00061 40.9346 17.8046 40.9346C27.6415 40.9346 35.6093 32.9346 35.6093 23.1313C35.6093 22.41 35.5765 21.6887 35.4781 20.9674C35.4125 21.0329 35.3142 21.0657 35.183 21.0657Z" fill="#FAFFFF"/>
<path d="M15.7723 20.2132C16.0674 19.1968 16.5264 17.4919 17.3134 14.7378C12.9196 15.0001 9.41113 18.6722 9.41113 23.1312C9.41113 27.7542 13.1819 31.5575 17.838 31.5575C22.3302 31.5575 26.0026 28.0493 26.2321 23.623C23.5106 24.3771 21.8055 24.8689 20.7891 25.164C20.1333 26.1148 19.0512 26.7378 17.838 26.7378C15.8706 26.7378 14.264 25.1312 14.264 23.164C14.2312 21.9181 14.8542 20.8689 15.7723 20.2132Z" fill="#FAFFFF"/>
<path d="M51.4229 26.9346V21.4746C51.4229 19.8746 51.9829 18.8146 53.3029 18.8146C54.6229 18.8146 55.1829 19.4946 55.1829 20.8346V26.9346H57.4229V21.4746C57.4229 19.8746 57.9829 18.8146 59.3029 18.8146C60.6229 18.8146 61.1829 19.4946 61.1829 20.8346V26.9346H63.4229V20.1546C63.4229 18.1346 62.4429 16.9946 60.5829 16.9946C58.7229 16.9946 57.7629 18.3346 57.4229 19.8746C57.3229 18.0346 56.3629 16.9946 54.5829 16.9946C52.7429 16.9946 51.7829 18.3146 51.4229 19.8546V17.1946H49.1829V26.9346H51.4229ZM70.0068 27.1346C72.1668 27.1346 73.4868 26.1546 74.2268 25.0346L72.8468 23.5946C72.4868 24.4146 71.7268 25.2946 70.0268 25.2946C68.4868 25.2946 67.4668 24.3546 67.3468 22.6146H74.3068C74.3468 22.4146 74.3868 21.9946 74.3868 21.6346C74.3868 18.9346 72.7668 16.9946 69.8468 16.9946C67.1068 16.9946 65.2068 19.0146 65.2068 22.0746C65.2068 25.1146 67.1068 27.1346 70.0068 27.1346ZM69.8468 18.7946C71.3268 18.7946 72.2068 19.6346 72.3668 21.1746H67.3668C67.5468 19.5946 68.4668 18.7946 69.8468 18.7946ZM78.63 15.8146V13.5346H76.39V15.8146H78.63ZM78.63 26.9346V17.1946H76.39V26.9346H78.63ZM89.4795 27.1346C91.6395 27.1346 92.9595 26.1546 93.6995 25.0346L92.3195 23.5946C91.9595 24.4146 91.1995 25.2946 89.4995 25.2946C87.9595 25.2946 86.9395 24.3546 86.8195 22.6146H93.7795C93.8195 22.4146 93.8595 21.9946 93.8595 21.6346C93.8595 18.9346 92.2395 16.9946 89.3195 16.9946C86.5795 16.9946 84.6795 19.0146 84.6795 22.0746C84.6795 25.1146 86.5795 27.1346 89.4795 27.1346ZM89.3195 18.7946C90.7995 18.7946 91.6795 19.6346 91.8395 21.1746H86.8395C87.0195 19.5946 87.9395 18.7946 89.3195 18.7946ZM98.0636 26.9346V21.4746C98.0636 19.8746 98.6236 18.8146 99.9436 18.8146C101.264 18.8146 101.824 19.4946 101.824 20.8346V26.9346H104.064V21.4746C104.064 19.8746 104.624 18.8146 105.944 18.8146C107.264 18.8146 107.824 19.4946 107.824 20.8346V26.9346H110.064V20.1546C110.064 18.1346 109.084 16.9946 107.224 16.9946C105.364 16.9946 104.404 18.3346 104.064 19.8746C103.964 18.0346 103.004 16.9946 101.224 16.9946C99.3836 16.9946 98.4236 18.3146 98.0636 19.8546V17.1946H95.8236V26.9346H98.0636ZM119.507 26.9346V18.9346H122.347V17.1946H119.507V16.3746C119.507 15.5746 119.847 15.1346 120.667 15.1346C121.407 15.1346 121.987 15.5746 122.347 16.1546L123.327 14.5546C122.927 14.0346 121.987 13.3346 120.567 13.3346C118.507 13.3346 117.267 14.5746 117.267 16.5946V17.1946H115.767V18.9346H117.267V26.9346H119.507ZM127.541 27.1346C130.381 27.1346 132.301 25.0946 132.301 22.0746C132.301 19.0346 130.381 16.9946 127.541 16.9946C124.741 16.9946 122.821 19.0346 122.821 22.0746C122.821 25.0946 124.741 27.1346 127.541 27.1346ZM127.561 25.2746C126.121 25.2746 125.121 24.3146 125.121 22.0746C125.121 19.8146 126.121 18.8546 127.561 18.8546C129.021 18.8546 130.021 19.8146 130.021 22.0746C130.021 24.3146 129.021 25.2746 127.561 25.2746ZM138.637 27.1346C141.077 27.1346 142.617 25.7546 143.137 23.9146L141.117 22.9146C140.897 24.3146 140.197 25.2546 138.677 25.2546C137.137 25.2546 136.197 24.1146 136.197 22.0746C136.197 20.0146 137.137 18.8746 138.677 18.8746C140.177 18.8746 140.897 19.8146 141.117 21.2146L143.137 20.2146C142.617 18.3746 141.077 16.9946 138.637 16.9946C135.737 16.9946 133.917 19.0346 133.917 22.0746C133.917 25.0946 135.737 27.1346 138.637 27.1346ZM148.791 27.1346C151.631 27.1346 153.551 25.0946 153.551 22.0746C153.551 19.0346 151.631 16.9946 148.791 16.9946C145.991 16.9946 144.071 19.0346 144.071 22.0746C144.071 25.0946 145.991 27.1346 148.791 27.1346ZM148.811 25.2746C147.371 25.2746 146.371 24.3146 146.371 22.0746C146.371 19.8146 147.371 18.8546 148.811 18.8546C150.271 18.8546 151.271 19.8146 151.271 22.0746C151.271 24.3146 150.271 25.2746 148.811 25.2746Z" fill="#FAFFFF"/>
</svg>
