<svg width="154" height="40" viewBox="0 0 154 40" fill="none" xmlns="http://www.w3.org/2000/svg">
<path d="M17.6734 22.2951C17.6734 22.2951 17.6734 22.3279 17.6734 22.2951C17.6734 22.3279 17.6734 22.3279 17.6734 22.2951C17.8702 22.4918 18.1981 22.6558 18.5915 22.5902C18.6571 22.5902 33.4123 18.4263 34.6256 18.0984C34.6911 18.0656 34.7567 18.0656 34.7895 18.0328C35.183 17.8033 35.3141 17.4099 35.3141 17.1148C35.3141 16.8525 35.183 16.4918 34.8551 16.2951C34.7895 16.2295 27.2151 12.7541 27.2151 12.7541C27.2151 12.7541 23.7395 5.18035 23.7067 5.11478C23.5099 4.8197 23.1821 4.68855 22.8869 4.65576C22.5591 4.65576 22.1984 4.78691 21.9688 5.18035C21.9361 5.24593 21.9033 5.27871 21.9033 5.34429C21.5754 6.5574 17.4111 21.3115 17.4111 21.3771C17.3127 21.7705 17.4767 22.0984 17.6734 22.2951Z" fill="#005EBD"/>
<path d="M30.4941 10.9508L30.5925 10.8525C30.6253 10.8197 30.6253 10.8197 30.6581 10.7869C30.6909 10.7541 30.6909 10.7541 30.7237 10.7213L30.822 10.623C30.8548 10.5902 30.8548 10.5902 30.8876 10.5574C30.9204 10.5246 30.9204 10.5246 30.9532 10.4918L31.0515 10.3934C31.0843 10.3607 31.0843 10.3607 31.1171 10.3279C31.1499 10.2951 31.1499 10.2951 31.1827 10.2623L31.2811 10.1639C31.3139 10.1311 31.3139 10.1311 31.3467 10.0984C31.3794 10.0656 31.3794 10.0656 31.4122 10.0328L31.5106 9.93443C31.9041 9.54098 31.9041 8.88525 31.5106 8.4918C31.1171 8.09836 30.4613 8.09836 30.0679 8.4918L29.9695 8.59016C29.9367 8.62295 29.9367 8.62295 29.9039 8.65574C29.8711 8.68853 29.8711 8.68852 29.8383 8.72131L29.74 8.81967C29.7072 8.85246 29.7072 8.85246 29.6744 8.88525C29.6416 8.91803 29.6416 8.91803 29.6088 8.95082L29.5104 9.04918C29.4777 9.08197 29.4777 9.08197 29.4449 9.11475C29.4121 9.14754 29.4121 9.14754 29.3793 9.18033L29.2809 9.27869C29.2481 9.31148 29.2481 9.31148 29.2153 9.34426C29.1826 9.37705 29.1826 9.37705 29.1498 9.40984L29.0514 9.5082C28.6579 9.90164 28.6579 10.5574 29.0514 10.9508C29.4449 11.3443 30.1007 11.3443 30.4941 10.9508ZM34.1665 4.39344L34.0682 4.4918C34.0354 4.52459 34.0354 4.52459 34.0026 4.55738C33.9698 4.59016 33.9698 4.59016 33.937 4.62295L33.8386 4.72131C33.8059 4.7541 33.8059 4.7541 33.7731 4.78689C33.7403 4.81967 33.7403 4.81967 33.7075 4.85246L33.6091 4.95082C33.5763 4.98361 33.5763 4.98361 33.5435 5.01639C33.5108 5.04918 33.5107 5.04918 33.478 5.08197L33.3796 5.18033C33.3468 5.21311 33.3468 5.21311 33.314 5.2459C33.2812 5.27869 33.2812 5.27869 33.2484 5.31148L33.1501 5.40984C32.7566 5.80328 32.7566 6.45902 33.1501 6.85246C33.5435 7.2459 34.1993 7.2459 34.5928 6.85246L34.6912 6.7541C34.724 6.72131 34.724 6.72131 34.7567 6.68852C34.7895 6.65574 34.7895 6.65574 34.8223 6.62295L34.9207 6.52459C34.9535 6.4918 34.9535 6.4918 34.9863 6.45902C35.0191 6.42623 35.0191 6.42623 35.0519 6.39344L35.1502 6.29508C35.183 6.2623 35.183 6.2623 35.2158 6.22951C35.2486 6.19672 35.2486 6.19672 35.2814 6.16393L35.3797 6.06557C35.4125 6.03279 35.4125 6.03279 35.4453 6C35.4781 5.96721 35.4781 5.96721 35.5109 5.93443L35.6093 5.83607C36.0027 5.44262 36.0027 4.78689 35.6093 4.39344C35.2158 4 34.56 4 34.1665 4.39344ZM39.7079 0.295082C39.3145 -0.0983607 38.6587 -0.0983607 38.2652 0.295082L38.1668 0.393443C38.1341 0.426229 38.1341 0.42623 38.1013 0.459016C38.0685 0.491803 38.0685 0.491803 38.0357 0.52459L37.9373 0.622951C37.9045 0.655738 37.9045 0.655738 37.8717 0.688525C37.839 0.721312 37.839 0.721312 37.8062 0.754098L37.7078 0.852459C37.675 0.885246 37.675 0.885246 37.6422 0.918033C37.6094 0.95082 37.6094 0.95082 37.5766 0.983607L37.4783 1.08197C37.4455 1.11475 37.4455 1.11475 37.4127 1.14754C37.3799 1.18033 37.3799 1.18033 37.3471 1.21311L37.2487 1.31148C36.8553 1.70492 36.8553 2.36066 37.2487 2.7541C37.6422 3.14754 38.298 3.14754 38.6915 2.7541L38.7898 2.65574C38.8226 2.62295 38.8226 2.62295 38.8554 2.59016C38.8882 2.55738 38.8882 2.55738 38.921 2.52459L39.0194 2.42623C39.0522 2.39344 39.0522 2.39344 39.0849 2.36066C39.1177 2.32787 39.1177 2.32787 39.1505 2.29508L39.2489 2.19672C39.2817 2.16393 39.2817 2.16393 39.3145 2.13115C39.3473 2.09836 39.3473 2.09836 39.3801 2.06557L39.4784 1.96721C39.5112 1.93443 39.5112 1.93443 39.544 1.90164C39.5768 1.86885 39.5768 1.86885 39.6096 1.83607L39.7079 1.7377C40.1014 1.34426 40.1014 0.688525 39.7079 0.295082ZM35.183 20.1311L34.7895 20.2295C33.314 20.6557 31.9697 21.0164 30.7564 21.377C30.7564 21.6393 30.7892 21.9016 30.7892 22.1967C30.7892 29.3443 24.9855 35.1803 17.8046 35.1803C10.6566 35.1803 4.82004 29.377 4.82004 22.1967C4.82004 15.0164 10.6238 9.21312 17.8046 9.21312C18.067 9.21312 18.3293 9.21311 18.5916 9.2459C18.9523 7.90164 19.3785 6.42623 19.8376 4.78689C19.8704 4.68852 19.9032 4.59016 19.9359 4.52459C19.2474 4.42623 18.526 4.39344 17.8046 4.39344C8.00061 4.39344 0 12.3934 0 22.1967C0 32 8.00061 40 17.8046 40C27.6415 40 35.6093 32 35.6093 22.1967C35.6093 21.4754 35.5765 20.7541 35.4781 20.0328C35.4125 20.0984 35.3142 20.1311 35.183 20.1311Z" fill="#005EBD"/>
<path d="M15.7719 19.2786C16.067 18.2622 16.5261 16.5573 17.313 13.8032C12.9192 14.0655 9.41077 17.7376 9.41077 22.1967C9.41077 26.8196 13.1815 30.6229 17.8376 30.6229C22.3298 30.6229 26.0022 27.1147 26.2317 22.6885C23.5102 23.4426 21.8052 23.9344 20.7887 24.2295C20.1329 25.1803 19.0508 25.8032 17.8376 25.8032C15.8703 25.8032 14.2636 24.1967 14.2636 22.2295C14.2308 20.9836 14.8538 19.9344 15.7719 19.2786Z" fill="#005EBD"/>
<path d="M51.4231 26V20.54C51.4231 18.94 51.9831 17.88 53.3031 17.88C54.6231 17.88 55.1831 18.56 55.1831 19.9V26H57.4231V20.54C57.4231 18.94 57.9831 17.88 59.3031 17.88C60.6231 17.88 61.1831 18.56 61.1831 19.9V26H63.4231V19.22C63.4231 17.2 62.4431 16.06 60.5831 16.06C58.7231 16.06 57.7631 17.4 57.4231 18.94C57.3231 17.1 56.3631 16.06 54.5831 16.06C52.7431 16.06 51.7831 17.38 51.4231 18.92V16.26H49.1831V26H51.4231ZM70.007 26.2C72.167 26.2 73.487 25.22 74.227 24.1L72.847 22.66C72.487 23.48 71.727 24.36 70.027 24.36C68.487 24.36 67.467 23.42 67.347 21.68H74.307C74.347 21.48 74.387 21.06 74.387 20.7C74.387 18 72.767 16.06 69.847 16.06C67.107 16.06 65.207 18.08 65.207 21.14C65.207 24.18 67.107 26.2 70.007 26.2ZM69.847 17.86C71.327 17.86 72.207 18.7 72.367 20.24H67.367C67.547 18.66 68.467 17.86 69.847 17.86ZM78.6301 14.88V12.6H76.3901V14.88H78.6301ZM78.6301 26V16.26H76.3901V26H78.6301ZM89.4796 26.2C91.6396 26.2 92.9596 25.22 93.6996 24.1L92.3196 22.66C91.9596 23.48 91.1996 24.36 89.4996 24.36C87.9596 24.36 86.9396 23.42 86.8196 21.68H93.7796C93.8196 21.48 93.8596 21.06 93.8596 20.7C93.8596 18 92.2396 16.06 89.3196 16.06C86.5796 16.06 84.6796 18.08 84.6796 21.14C84.6796 24.18 86.5796 26.2 89.4796 26.2ZM89.3196 17.86C90.7996 17.86 91.6796 18.7 91.8396 20.24H86.8396C87.0196 18.66 87.9396 17.86 89.3196 17.86ZM98.0637 26V20.54C98.0637 18.94 98.6237 17.88 99.9437 17.88C101.264 17.88 101.824 18.56 101.824 19.9V26H104.064V20.54C104.064 18.94 104.624 17.88 105.944 17.88C107.264 17.88 107.824 18.56 107.824 19.9V26H110.064V19.22C110.064 17.2 109.084 16.06 107.224 16.06C105.364 16.06 104.404 17.4 104.064 18.94C103.964 17.1 103.004 16.06 101.224 16.06C99.3837 16.06 98.4237 17.38 98.0637 18.92V16.26H95.8237V26H98.0637ZM119.507 26V18H122.347V16.26H119.507V15.44C119.507 14.64 119.847 14.2 120.667 14.2C121.407 14.2 121.987 14.64 122.347 15.22L123.327 13.62C122.927 13.1 121.987 12.4 120.567 12.4C118.507 12.4 117.267 13.64 117.267 15.66V16.26H115.767V18H117.267V26H119.507ZM127.541 26.2C130.381 26.2 132.301 24.16 132.301 21.14C132.301 18.1 130.381 16.06 127.541 16.06C124.741 16.06 122.821 18.1 122.821 21.14C122.821 24.16 124.741 26.2 127.541 26.2ZM127.561 24.34C126.121 24.34 125.121 23.38 125.121 21.14C125.121 18.88 126.121 17.92 127.561 17.92C129.021 17.92 130.021 18.88 130.021 21.14C130.021 23.38 129.021 24.34 127.561 24.34ZM138.637 26.2C141.077 26.2 142.617 24.82 143.137 22.98L141.117 21.98C140.897 23.38 140.197 24.32 138.677 24.32C137.137 24.32 136.197 23.18 136.197 21.14C136.197 19.08 137.137 17.94 138.677 17.94C140.177 17.94 140.897 18.88 141.117 20.28L143.137 19.28C142.617 17.44 141.077 16.06 138.637 16.06C135.737 16.06 133.917 18.1 133.917 21.14C133.917 24.16 135.737 26.2 138.637 26.2ZM148.791 26.2C151.631 26.2 153.551 24.16 153.551 21.14C153.551 18.1 151.631 16.06 148.791 16.06C145.991 16.06 144.071 18.1 144.071 21.14C144.071 24.16 145.991 26.2 148.791 26.2ZM148.811 24.34C147.371 24.34 146.371 23.38 146.371 21.14C146.371 18.88 147.371 17.92 148.811 17.92C150.271 17.92 151.271 18.88 151.271 21.14C151.271 23.38 150.271 24.34 148.811 24.34Z" fill="#14181B"/>
</svg>
