<svg width="344" height="248" viewBox="0 0 344 248" fill="none" xmlns="http://www.w3.org/2000/svg">
<path d="M111.856 230.336C111.554 230.035 111.554 230.035 111.856 230.336ZM111.856 230.336C108.24 230.336 103.72 231.843 100.706 236.062C100.104 236.664 2.775 410.53 -5.36085 424.693C-5.66218 425.597 -6.26483 426.199 -6.26483 426.802C-7.77147 432.527 -5.36086 437.348 -2.64891 440.06C-0.238294 442.471 4.28161 444.58 9.10285 443.375C10.3082 443.375 111.856 405.709 111.856 405.709C111.856 405.709 213.403 443.375 214.307 443.676C218.827 444.58 223.045 442.772 226.059 440.362C229.072 437.348 231.181 432.828 229.675 427.103C229.373 426.199 229.373 425.596 228.771 424.994C220.635 410.831 123.306 236.966 122.703 236.363C119.991 231.843 115.472 230.336 111.856 230.336ZM-29.1614 411.132L-26.4495 406.612C-16.807 389.135 -7.76716 373.466 0.0673499 359.003C-2.34327 356.592 -5.05521 354.483 -7.76716 351.771C-73.4565 286.081 -73.7579 179.11 -7.76721 113.119C57.9222 47.4299 164.893 47.1286 230.884 113.119C296.875 179.11 296.875 285.78 230.884 351.771C228.474 354.181 226.063 356.592 223.351 358.701C232.391 374.37 242.033 391.847 252.881 411.132C253.484 412.337 254.086 413.543 254.388 414.447C261.62 409.023 268.55 402.695 275.179 396.066C365.276 305.969 365.276 158.921 275.179 68.8242C185.082 -21.2728 38.0346 -21.2728 -52.0623 68.8241C-142.461 159.222 -142.159 305.969 -52.0623 396.066C-45.4331 402.695 -38.5026 409.023 -30.9694 414.748C-30.9694 413.543 -30.3668 412.337 -29.1614 411.132ZM157.054 240.584C163.683 252.637 175.134 272.524 193.214 305.068C231.181 262.279 229.674 196.289 188.694 155.308C146.206 112.821 76.5998 112.519 33.8113 155.308C-7.47059 196.59 -8.97719 262.581 29.5927 305.369C47.6724 273.428 58.8215 253.239 65.4507 241.186C62.7387 226.421 66.9573 210.752 78.1064 199.603C96.1861 181.523 125.716 181.523 143.796 199.603C155.548 210.752 159.465 226.12 157.054 240.584Z" stroke="#BFE5FF" stroke-width="2"/>
</svg>
