<svg width="83" height="83" viewBox="0 0 83 83" fill="none" xmlns="http://www.w3.org/2000/svg">
<circle cx="41.5" cy="41.5" r="41.5" fill="#0060BD"/>
<path d="M38.4067 44.5513C38.4067 44.5988 38.4067 44.5988 38.4067 44.5513C38.681 44.8362 39.1382 45.0736 39.6866 44.9788C39.7781 44.9788 60.3487 38.9471 62.0401 38.4722C62.1315 38.4247 62.2229 38.4247 62.2686 38.3772C62.8172 38.0448 63 37.4748 63 37.0473C63 36.6675 62.8172 36.145 62.3601 35.8601C62.2686 35.7651 51.709 30.7308 51.709 30.7308C51.709 30.7308 46.8636 19.7599 46.8178 19.6649C46.5435 19.2375 46.0865 19.0475 45.6749 19C45.218 19 44.7151 19.19 44.395 19.7599C44.3494 19.8549 44.3037 19.9024 44.3037 19.9974C43.8466 21.7546 38.041 43.1265 38.041 43.2214C37.9038 43.7914 38.1325 44.2664 38.4067 44.5513Z" fill="#FAFFFF"/>
<path d="M56.6885 28.3311L56.8263 28.1934C56.8722 28.1475 56.8722 28.1475 56.9181 28.1017C56.964 28.0558 56.964 28.0558 57.0099 28.0098L57.1475 27.8721C57.1935 27.8262 57.1935 27.8262 57.2394 27.7803C57.2853 27.7345 57.2853 27.7345 57.3312 27.6886L57.4688 27.5508C57.5147 27.5049 57.5147 27.5049 57.5606 27.4589C57.6066 27.4132 57.6066 27.4132 57.6525 27.3673L57.7902 27.2295C57.8361 27.1836 57.8361 27.1836 57.8821 27.1377C57.9278 27.0917 57.9278 27.0917 57.9738 27.0459L58.1115 26.9082C58.6624 26.3574 58.6624 25.4393 58.1115 24.8885C57.5606 24.3377 56.6426 24.3377 56.0919 24.8885L55.9541 25.0262C55.9082 25.0721 55.9082 25.0721 55.8623 25.118C55.8164 25.1639 55.8164 25.1639 55.7705 25.2098L55.6329 25.3475C55.5869 25.3934 55.5869 25.3934 55.541 25.4393C55.4951 25.4852 55.4951 25.4852 55.4492 25.5311L55.3114 25.6688C55.2657 25.7147 55.2657 25.7147 55.2197 25.7606C55.1738 25.8065 55.1738 25.8065 55.1279 25.8525L54.9902 25.9902C54.9442 26.036 54.9442 26.036 54.8983 26.0819C54.8525 26.1278 54.8525 26.1278 54.8066 26.1738L54.6689 26.3115C54.118 26.8623 54.118 27.7802 54.6689 28.3311C55.2197 28.8819 56.1378 28.8819 56.6885 28.3311ZM61.8295 19.1508L61.6919 19.2885C61.646 19.3344 61.646 19.3344 61.6 19.3803C61.5541 19.4262 61.5541 19.4262 61.5082 19.4721L61.3705 19.6098C61.3247 19.6557 61.3247 19.6557 61.2788 19.7016C61.2329 19.7475 61.2328 19.7475 61.1869 19.7934L61.0492 19.9311C61.0033 19.977 61.0033 19.977 60.9573 20.0229C60.9116 20.0688 60.9114 20.0688 60.8657 20.1148L60.7279 20.2525C60.682 20.2983 60.682 20.2984 60.6361 20.3443C60.5902 20.3902 60.5902 20.3902 60.5442 20.4361L60.4066 20.5738C59.8558 21.1246 59.8558 22.0426 60.4066 22.5934C60.9573 23.1443 61.8754 23.1443 62.4263 22.5934L62.564 22.4557C62.6099 22.4098 62.6099 22.4098 62.6557 22.3639C62.7016 22.318 62.7016 22.318 62.7475 22.2721L62.8853 22.1344C62.9312 22.0885 62.9312 22.0885 62.9771 22.0426C63.023 21.9967 63.023 21.9967 63.0689 21.9508L63.2066 21.8131C63.2525 21.7672 63.2525 21.7672 63.2984 21.7213C63.3443 21.6754 63.3443 21.6754 63.3902 21.6295L63.5278 21.4918C63.5738 21.4459 63.5738 21.4459 63.6197 21.4C63.6656 21.3541 63.6656 21.3541 63.7115 21.3082L63.8492 21.1705C64.4 20.6197 64.4 19.7016 63.8492 19.1508C63.2984 18.6 62.3803 18.6 61.8295 19.1508ZM69.5869 13.4131C69.0361 12.8623 68.1181 12.8623 67.5672 13.4131L67.4295 13.5508C67.3837 13.5967 67.3837 13.5967 67.3378 13.6426C67.2919 13.6885 67.2919 13.6885 67.246 13.7344L67.1082 13.8721C67.0623 13.918 67.0623 13.918 67.0164 13.9639C66.9706 14.0098 66.9706 14.0098 66.9247 14.0557L66.7869 14.1934C66.741 14.2393 66.741 14.2393 66.6951 14.2852C66.6492 14.3311 66.6492 14.3311 66.6033 14.3771L66.4656 14.5148C66.4197 14.5606 66.4197 14.5606 66.3738 14.6066C66.3279 14.6525 66.3279 14.6525 66.282 14.6984L66.1442 14.8361C65.5935 15.3869 65.5935 16.3049 66.1442 16.8557C66.6951 17.4066 67.6131 17.4066 68.164 16.8557L68.3016 16.718C68.3475 16.6721 68.3475 16.6721 68.3934 16.6262C68.4394 16.5803 68.4394 16.5803 68.4853 16.5344L68.623 16.3967C68.6689 16.3508 68.6689 16.3508 68.7147 16.3049C68.7606 16.259 68.7606 16.259 68.8066 16.2131L68.9443 16.0754C68.9902 16.0295 68.9902 16.0295 69.0361 15.9836C69.0821 15.9377 69.0821 15.9377 69.128 15.8918L69.2656 15.7541C69.3115 15.7082 69.3115 15.7082 69.3574 15.6623C69.4033 15.6164 69.4033 15.6164 69.4492 15.5705L69.5869 15.4328C70.1377 14.882 70.1377 13.9639 69.5869 13.4131ZM63.2525 41.1836L62.7016 41.3213C60.6361 41.918 58.7542 42.423 57.0557 42.9278C57.0557 43.295 57.1016 43.6623 57.1016 44.0754C57.1016 54.0819 48.9771 62.2524 38.9246 62.2524C28.9181 62.2524 20.7475 54.1278 20.7475 44.0754C20.7475 34.023 28.8722 25.8984 38.9246 25.8984C39.2919 25.8984 39.6591 25.8984 40.0263 25.9443C40.5312 24.0623 41.1278 21.9967 41.7705 19.7016C41.8165 19.5639 41.8624 19.4262 41.9081 19.3344C40.9443 19.1967 39.9344 19.1508 38.9246 19.1508C25.2 19.1508 14 30.3508 14 44.0754C14 57.8 25.2 69 38.9246 69C52.6952 69 63.8492 57.8 63.8492 44.0754C63.8492 43.0656 63.8033 42.0558 63.6656 41.0459C63.5738 41.1376 63.4361 41.1836 63.2525 41.1836Z" fill="#FAFFFF"/>
<path d="M36.076 39.8128C36.4971 38.3625 37.1521 35.9298 38.2749 32C32.0058 32.3743 27 37.614 27 43.9765C27 50.5731 32.3801 56 39.0233 56C45.4328 56 50.6726 50.9942 51 44.6783C47.117 45.7543 44.6843 46.456 43.234 46.8771C42.2983 48.2338 40.7543 49.1228 39.0233 49.1228C36.2164 49.1228 33.924 46.8303 33.924 44.0233C33.8772 42.2456 34.7661 40.7485 36.076 39.8128Z" fill="#FAFFFF"/>
</svg>
