<svg width="25" height="24" viewBox="0 0 25 24" fill="none" xmlns="http://www.w3.org/2000/svg">
<path d="M19.2163 18.3598C18.2747 18.3598 17.3891 17.9932 16.7233 17.3277L13.1235 13.728C12.8708 13.4745 12.4303 13.4753 12.1776 13.728L8.56477 17.3409C7.89888 18.0063 7.01332 18.3729 6.07166 18.3729H5.3623L9.92141 22.9321C11.3452 24.3559 13.6538 24.3559 15.0777 22.9321L19.65 18.3598H19.2163Z" fill="#005EBD"/>
<path d="M6.07203 5.62689C7.0137 5.62689 7.89926 5.99364 8.56502 6.6592L12.1779 10.2727C12.4381 10.5329 12.863 10.534 13.1239 10.2723L16.7236 6.67229C17.3895 6.00674 18.275 5.64009 19.2167 5.64009H19.6503L15.0781 1.06792C13.6542 -0.355974 11.3457 -0.355974 9.92174 1.06792L5.36279 5.62689H6.07203Z" fill="#005EBD"/>
<path d="M23.4322 9.42193L20.6691 6.6589C20.6083 6.68329 20.5425 6.69853 20.473 6.69853H19.2168C18.5673 6.69853 17.9315 6.96188 17.4726 7.42108L13.8729 11.0209C13.5362 11.3577 13.0935 11.5263 12.6513 11.5263C12.2086 11.5263 11.7664 11.3577 11.4295 11.0212L7.81628 7.40798C7.3573 6.94878 6.72166 6.68543 6.07214 6.68543H4.52746C4.46165 6.68543 4.40002 6.66985 4.34188 6.64795L1.56792 9.42193C0.144027 10.8457 0.144027 13.1543 1.56792 14.5783L4.34177 17.3521C4.3999 17.3302 4.46165 17.3147 4.52746 17.3147H6.07214C6.72166 17.3147 7.3573 17.0513 7.81628 16.5921L11.4292 12.9791C12.0822 12.3267 13.2205 12.3263 13.8729 12.9795L17.4726 16.5789C17.9315 17.0382 18.5673 17.3015 19.2168 17.3015H20.473C20.5426 17.3015 20.6083 17.3167 20.6693 17.3411L23.4322 14.5783C24.8561 13.1543 24.8561 10.8457 23.4322 9.42193Z" fill="#005EBD"/>
</svg>
