<svg width="165" height="164" viewBox="0 0 165 164" fill="none" xmlns="http://www.w3.org/2000/svg">
<g clip-path="url(#clip0_67_796)">
<path d="M62 0H0.5V61.5H62V0ZM51.75 51.25H10.75V10.25H51.75V51.25Z" fill="#444444"/>
<path d="M21 20.5H41.5V41H21V20.5ZM0.5 164H62V102.5H0.5V164ZM10.75 112.75H51.75V153.75H10.75V112.75Z" fill="#444444"/>
<path d="M21 123H41.5V143.5H21V123ZM103 0V61.5H164.5V0H103ZM154.25 51.25H113.25V10.25H154.25V51.25Z" fill="#444444"/>
<path d="M123.5 20.5H144V41H123.5V20.5ZM21 71.75H0.5V92.25H31.25V82H21V71.75ZM72.25 92.25H92.75V112.75H72.25V92.25ZM31.25 71.75H51.75V82H31.25V71.75ZM92.75 123H72.25V133.25H82.5V143.5H92.75V133.25V123ZM62 71.75V82H51.75V92.25H72.25V71.75H62ZM82.5 41H92.75V61.5H82.5V41ZM92.75 82V92.25H113.25V71.75H82.5V82H92.75ZM72.25 61.5H82.5V71.75H72.25V61.5ZM92.75 143.5H113.25V164H92.75V143.5ZM72.25 143.5H82.5V164H72.25V143.5ZM92.75 112.75H103V123H92.75V112.75ZM92.75 30.75V10.25H82.5V0H72.25V41H82.5V30.75H92.75ZM123.5 143.5H133.75V164H123.5V143.5ZM123.5 123H144V133.25H123.5V123ZM113.25 133.25H123.5V143.5H113.25V133.25ZM103 123H113.25V133.25H103V123ZM144 102.5V112.75H154.25V123H164.5V102.5H154.25H144ZM154.25 133.25H144V164H164.5V143.5H154.25V133.25ZM103 102.5V112.75H133.75V92.25H113.25V102.5H103ZM123.5 71.75V82H144V92.25H164.5V71.75H144H123.5Z" fill="#444444"/>
</g>
<defs>
<clipPath id="clip0_67_796">
<rect width="164" height="164" fill="white" transform="translate(0.5)"/>
</clipPath>
</defs>
</svg>
