<svg width="360" height="112" viewBox="0 0 360 112" fill="none" xmlns="http://www.w3.org/2000/svg">
<rect width="360" height="112" fill="#005EBD"/>
<path d="M25.233 33V22.8182H31.3778V23.9119H26.4659V27.3523H31.0597V28.446H26.4659V31.9062H31.4574V33H25.233ZM33.4411 33V25.3636H34.5746V26.5568H34.674C34.8331 26.1491 35.09 25.8326 35.4446 25.6072C35.7992 25.3786 36.2251 25.2642 36.7223 25.2642C37.2261 25.2642 37.6454 25.3786 37.9801 25.6072C38.3182 25.8326 38.5817 26.1491 38.7706 26.5568H38.8501C39.0457 26.1624 39.339 25.8492 39.7301 25.6172C40.1212 25.3819 40.5902 25.2642 41.1371 25.2642C41.8198 25.2642 42.3783 25.478 42.8125 25.9055C43.2467 26.3298 43.4638 26.991 43.4638 27.8892V33H42.2905V27.8892C42.2905 27.3258 42.1364 26.9231 41.8281 26.6811C41.5199 26.4392 41.157 26.3182 40.7393 26.3182C40.2024 26.3182 39.7865 26.4806 39.4915 26.8054C39.1965 27.1269 39.049 27.5346 39.049 28.0284V33H37.8558V27.7699C37.8558 27.3357 37.715 26.986 37.4332 26.7209C37.1515 26.4524 36.7886 26.3182 36.3445 26.3182C36.0395 26.3182 35.7545 26.3994 35.4893 26.5618C35.2275 26.7242 35.0154 26.9496 34.853 27.2379C34.6939 27.523 34.6143 27.8527 34.6143 28.2273V33H33.4411ZM45.609 35.8636V25.3636H46.7425V26.5767H46.8817C46.9679 26.4441 47.0872 26.2751 47.2397 26.0696C47.3955 25.8608 47.6175 25.6752 47.9059 25.5128C48.1976 25.3471 48.592 25.2642 49.0891 25.2642C49.7321 25.2642 50.2989 25.425 50.7894 25.7464C51.2799 26.0679 51.6628 26.5237 51.9379 27.1136C52.2129 27.7036 52.3505 28.3996 52.3505 29.2017C52.3505 30.0104 52.2129 30.7114 51.9379 31.3047C51.6628 31.8946 51.2816 32.352 50.7944 32.6768C50.3072 32.9983 49.7454 33.1591 49.109 33.1591C48.6185 33.1591 48.2257 33.0779 47.9308 32.9155C47.6358 32.7498 47.4087 32.5625 47.2496 32.3537C47.0906 32.1416 46.9679 31.9659 46.8817 31.8267H46.7823V35.8636H45.609ZM46.7624 29.1818C46.7624 29.7585 46.8469 30.2673 47.016 30.7081C47.185 31.1456 47.4319 31.4886 47.7567 31.7372C48.0816 31.9825 48.4793 32.1051 48.9499 32.1051C49.4405 32.1051 49.8498 31.9759 50.1779 31.7173C50.5094 31.4555 50.7579 31.1042 50.9237 30.6634C51.0927 30.2192 51.1772 29.7254 51.1772 29.1818C51.1772 28.6449 51.0943 28.161 50.9286 27.7301C50.7662 27.2959 50.5193 26.9529 50.1879 26.701C49.8597 26.4458 49.4471 26.3182 48.9499 26.3182C48.4727 26.3182 48.0716 26.4392 47.7468 26.6811C47.422 26.9197 47.1767 27.2545 47.011 27.6854C46.8453 28.1129 46.7624 28.6117 46.7624 29.1818ZM54.1403 33V25.3636H55.2738V26.517H55.3533C55.4925 26.1392 55.7444 25.8326 56.109 25.5973C56.4736 25.362 56.8846 25.2443 57.342 25.2443C57.4281 25.2443 57.5359 25.246 57.6651 25.2493C57.7944 25.2526 57.8922 25.2576 57.9585 25.2642V26.4574C57.9187 26.4474 57.8275 26.4325 57.685 26.4126C57.5458 26.3894 57.3983 26.3778 57.2425 26.3778C56.8713 26.3778 56.5399 26.4557 56.2482 26.6115C55.9599 26.764 55.7312 26.9761 55.5621 27.2479C55.3964 27.5163 55.3136 27.8229 55.3136 28.1676V33H54.1403ZM62.3185 33.1591C61.5827 33.1591 60.948 32.9967 60.4144 32.6719C59.8841 32.3438 59.4748 31.8864 59.1864 31.2997C58.9014 30.7098 58.7589 30.0237 58.7589 29.2415C58.7589 28.4593 58.9014 27.7699 59.1864 27.1733C59.4748 26.5734 59.8758 26.1061 60.3896 25.7713C60.9066 25.4332 61.5098 25.2642 62.1992 25.2642C62.5969 25.2642 62.9897 25.3305 63.3775 25.4631C63.7653 25.5956 64.1183 25.8111 64.4364 26.1094C64.7546 26.4044 65.0082 26.7955 65.1971 27.2827C65.386 27.7699 65.4805 28.3698 65.4805 29.0824V29.5795H59.5941V28.5653H64.2873C64.2873 28.1345 64.2011 27.75 64.0288 27.4119C63.8597 27.0739 63.6178 26.8071 63.3029 26.6115C62.9914 26.416 62.6235 26.3182 62.1992 26.3182C61.7319 26.3182 61.3275 26.4342 60.9862 26.6662C60.6481 26.8949 60.3879 27.1932 60.2056 27.5611C60.0233 27.929 59.9322 28.3234 59.9322 28.7443V29.4205C59.9322 29.9972 60.0316 30.486 60.2305 30.8871C60.4326 31.2848 60.7127 31.5881 61.0707 31.7969C61.4286 32.0024 61.8446 32.1051 62.3185 32.1051C62.6268 32.1051 62.9052 32.062 63.1538 31.9759C63.4057 31.8864 63.6228 31.7538 63.805 31.5781C63.9873 31.3991 64.1282 31.1771 64.2276 30.9119L65.3612 31.2301C65.2418 31.6146 65.0413 31.9527 64.7596 32.2443C64.4779 32.5327 64.1299 32.758 63.7156 32.9205C63.3013 33.0795 62.8356 33.1591 62.3185 33.1591ZM72.6744 27.0739L71.6204 27.3722C71.5541 27.1965 71.4563 27.0258 71.3271 26.8601C71.2011 26.6911 71.0288 26.5518 70.81 26.4425C70.5913 26.3331 70.3112 26.2784 69.9698 26.2784C69.5025 26.2784 69.113 26.3861 68.8015 26.6016C68.4933 26.8137 68.3391 27.0838 68.3391 27.4119C68.3391 27.7036 68.4452 27.9339 68.6573 28.103C68.8694 28.272 69.2009 28.4129 69.6516 28.5256L70.7852 28.804C71.4679 28.9697 71.9767 29.2232 72.3114 29.5646C72.6462 29.9027 72.8136 30.3385 72.8136 30.8722C72.8136 31.3097 72.6876 31.7008 72.4357 32.0455C72.1871 32.3902 71.8391 32.6619 71.3917 32.8608C70.9442 33.0597 70.4239 33.1591 69.8306 33.1591C69.0517 33.1591 68.4071 32.9901 67.8967 32.652C67.3862 32.3139 67.0631 31.8201 66.9272 31.1705L68.0408 30.892C68.1469 31.303 68.3474 31.6113 68.6424 31.8168C68.9407 32.0223 69.3301 32.125 69.8107 32.125C70.3576 32.125 70.7918 32.009 71.1133 31.777C71.4381 31.5417 71.6005 31.2599 71.6005 30.9318C71.6005 30.6667 71.5077 30.4446 71.3221 30.2656C71.1365 30.0833 70.8514 29.9474 70.467 29.858L69.1942 29.5597C68.4949 29.3939 67.9812 29.1371 67.6531 28.7891C67.3282 28.4377 67.1658 27.9986 67.1658 27.4716C67.1658 27.0407 67.2868 26.6596 67.5288 26.3281C67.774 25.9967 68.1071 25.7365 68.5281 25.5476C68.9523 25.3587 69.4329 25.2642 69.9698 25.2642C70.7255 25.2642 71.3188 25.4299 71.7496 25.7614C72.1838 26.0928 72.4921 26.5303 72.6744 27.0739ZM76.8269 33.179C76.343 33.179 75.9038 33.0878 75.5094 32.9055C75.115 32.7199 74.8018 32.4531 74.5698 32.1051C74.3378 31.7538 74.2218 31.3295 74.2218 30.8324C74.2218 30.3949 74.3079 30.0402 74.4803 29.7685C74.6526 29.4934 74.883 29.2779 75.1713 29.1222C75.4597 28.9664 75.7779 28.8504 76.1259 28.7741C76.4772 28.6946 76.8302 28.6316 77.1848 28.5852C77.6489 28.5256 78.025 28.4808 78.3134 28.451C78.6051 28.4179 78.8172 28.3632 78.9498 28.2869C79.0856 28.2107 79.1536 28.0781 79.1536 27.8892V27.8494C79.1536 27.3589 79.0194 26.9777 78.7509 26.706C78.4857 26.4342 78.083 26.2983 77.5428 26.2983C76.9827 26.2983 76.5435 26.4209 76.2253 26.6662C75.9071 26.9115 75.6834 27.1733 75.5542 27.4517L74.4405 27.054C74.6394 26.59 74.9045 26.2287 75.236 25.9702C75.5707 25.7083 75.9353 25.526 76.3297 25.4233C76.7275 25.3172 77.1185 25.2642 77.503 25.2642C77.7483 25.2642 78.03 25.294 78.3482 25.3537C78.6697 25.41 78.9796 25.5277 79.2779 25.7067C79.5795 25.8857 79.8297 26.1558 80.0286 26.517C80.2275 26.8783 80.3269 27.3622 80.3269 27.9688V33H79.1536V31.9659H79.0939C79.0144 32.1316 78.8818 32.3089 78.6962 32.4979C78.5106 32.6868 78.2637 32.8475 77.9554 32.9801C77.6472 33.1127 77.271 33.179 76.8269 33.179ZM77.0059 32.125C77.4699 32.125 77.861 32.0339 78.1792 31.8516C78.5007 31.6693 78.7426 31.4339 78.905 31.1456C79.0707 30.8572 79.1536 30.554 79.1536 30.2358V29.1619C79.1039 29.2216 78.9945 29.2763 78.8255 29.326C78.6597 29.3724 78.4675 29.4138 78.2488 29.4503C78.0333 29.4834 77.8229 29.5133 77.6174 29.5398C77.4152 29.563 77.2511 29.5829 77.1252 29.5994C76.8203 29.6392 76.5352 29.7038 76.2701 29.7933C76.0082 29.8795 75.7961 30.0104 75.6337 30.1861C75.4746 30.3584 75.3951 30.5937 75.3951 30.892C75.3951 31.2997 75.5459 31.608 75.8475 31.8168C76.1524 32.0223 76.5385 32.125 77.0059 32.125ZM86.4059 33V25.3636H87.5394V26.517H87.619C87.7582 26.1392 88.0101 25.8326 88.3746 25.5973C88.7392 25.362 89.1502 25.2443 89.6076 25.2443C89.6938 25.2443 89.8015 25.246 89.9308 25.2493C90.06 25.2526 90.1578 25.2576 90.2241 25.2642V26.4574C90.1843 26.4474 90.0932 26.4325 89.9506 26.4126C89.8114 26.3894 89.6639 26.3778 89.5082 26.3778C89.137 26.3778 88.8055 26.4557 88.5138 26.6115C88.2255 26.764 87.9968 26.9761 87.8278 27.2479C87.6621 27.5163 87.5792 27.8229 87.5792 28.1676V33H86.4059ZM94.5842 33.1591C93.8484 33.1591 93.2137 32.9967 92.68 32.6719C92.1497 32.3438 91.7404 31.8864 91.4521 31.2997C91.167 30.7098 91.0245 30.0237 91.0245 29.2415C91.0245 28.4593 91.167 27.7699 91.4521 27.1733C91.7404 26.5734 92.1415 26.1061 92.6552 25.7713C93.1722 25.4332 93.7754 25.2642 94.4648 25.2642C94.8626 25.2642 95.2553 25.3305 95.6431 25.4631C96.0309 25.5956 96.3839 25.8111 96.7021 26.1094C97.0202 26.4044 97.2738 26.7955 97.4627 27.2827C97.6516 27.7699 97.7461 28.3698 97.7461 29.0824V29.5795H91.8597V28.5653H96.5529C96.5529 28.1345 96.4667 27.75 96.2944 27.4119C96.1254 27.0739 95.8834 26.8071 95.5685 26.6115C95.257 26.416 94.8891 26.3182 94.4648 26.3182C93.9975 26.3182 93.5932 26.4342 93.2518 26.6662C92.9137 26.8949 92.6535 27.1932 92.4712 27.5611C92.2889 27.929 92.1978 28.3234 92.1978 28.7443V29.4205C92.1978 29.9972 92.2972 30.486 92.4961 30.8871C92.6983 31.2848 92.9783 31.5881 93.3363 31.7969C93.6942 32.0024 94.1102 32.1051 94.5842 32.1051C94.8924 32.1051 95.1708 32.062 95.4194 31.9759C95.6713 31.8864 95.8884 31.7538 96.0707 31.5781C96.253 31.3991 96.3938 31.1771 96.4933 30.9119L97.6268 31.2301C97.5075 31.6146 97.3069 31.9527 97.0252 32.2443C96.7435 32.5327 96.3955 32.758 95.9812 32.9205C95.5669 33.0795 95.1012 33.1591 94.5842 33.1591ZM102.633 33.1591C101.917 33.1591 101.301 32.9901 100.784 32.652C100.267 32.3139 99.869 31.8482 99.5906 31.255C99.3121 30.6617 99.1729 29.9839 99.1729 29.2216C99.1729 28.446 99.3155 27.7616 99.6005 27.1683C99.8888 26.5717 100.29 26.1061 100.804 25.7713C101.321 25.4332 101.924 25.2642 102.613 25.2642C103.15 25.2642 103.634 25.3636 104.065 25.5625C104.496 25.7614 104.849 26.0398 105.124 26.3977C105.399 26.7557 105.57 27.1733 105.636 27.6506H104.463C104.373 27.3026 104.174 26.9943 103.866 26.7259C103.561 26.4541 103.15 26.3182 102.633 26.3182C102.176 26.3182 101.775 26.4375 101.43 26.6761C101.089 26.9115 100.822 27.2446 100.63 27.6754C100.441 28.103 100.346 28.6051 100.346 29.1818C100.346 29.7718 100.439 30.2855 100.625 30.723C100.814 31.1605 101.079 31.5002 101.42 31.7422C101.765 31.9841 102.169 32.1051 102.633 32.1051C102.938 32.1051 103.215 32.0521 103.463 31.946C103.712 31.84 103.922 31.6875 104.095 31.4886C104.267 31.2898 104.39 31.0511 104.463 30.7727H105.636C105.57 31.2235 105.406 31.6295 105.144 31.9908C104.885 32.3487 104.542 32.6338 104.115 32.8459C103.69 33.0547 103.197 33.1591 102.633 33.1591ZM110.453 33.1591C109.764 33.1591 109.159 32.995 108.639 32.6669C108.122 32.3388 107.717 31.8797 107.426 31.2898C107.137 30.6998 106.993 30.0104 106.993 29.2216C106.993 28.4261 107.137 27.7318 107.426 27.1385C107.717 26.5452 108.122 26.0845 108.639 25.7564C109.159 25.4283 109.764 25.2642 110.453 25.2642C111.143 25.2642 111.746 25.4283 112.263 25.7564C112.783 26.0845 113.188 26.5452 113.476 27.1385C113.768 27.7318 113.914 28.4261 113.914 29.2216C113.914 30.0104 113.768 30.6998 113.476 31.2898C113.188 31.8797 112.783 32.3388 112.263 32.6669C111.746 32.995 111.143 33.1591 110.453 33.1591ZM110.453 32.1051C110.977 32.1051 111.408 31.9709 111.746 31.7024C112.084 31.4339 112.334 31.081 112.497 30.6435C112.659 30.206 112.74 29.732 112.74 29.2216C112.74 28.7112 112.659 28.2356 112.497 27.7947C112.334 27.3539 112.084 26.9976 111.746 26.7259C111.408 26.4541 110.977 26.3182 110.453 26.3182C109.93 26.3182 109.499 26.4541 109.161 26.7259C108.823 26.9976 108.573 27.3539 108.41 27.7947C108.248 28.2356 108.167 28.7112 108.167 29.2216C108.167 29.732 108.248 30.206 108.41 30.6435C108.573 31.081 108.823 31.4339 109.161 31.7024C109.499 31.9709 109.93 32.1051 110.453 32.1051ZM116.878 28.4062V33H115.705V25.3636H116.838V26.5568H116.938C117.117 26.169 117.388 25.8575 117.753 25.6222C118.118 25.3835 118.588 25.2642 119.165 25.2642C119.682 25.2642 120.134 25.3703 120.522 25.5824C120.91 25.7912 121.212 26.1094 121.427 26.5369C121.642 26.9612 121.75 27.4981 121.75 28.1477V33H120.577V28.2273C120.577 27.6274 120.421 27.16 120.11 26.8253C119.798 26.4872 119.37 26.3182 118.827 26.3182C118.452 26.3182 118.118 26.3994 117.823 26.5618C117.531 26.7242 117.301 26.9612 117.132 27.2727C116.963 27.5843 116.878 27.9621 116.878 28.4062ZM125.067 28.4062V33H123.894V22.8182H125.067V26.5568H125.167C125.346 26.1624 125.614 25.8492 125.972 25.6172C126.334 25.3819 126.814 25.2642 127.414 25.2642C127.934 25.2642 128.39 25.3686 128.781 25.5774C129.172 25.7829 129.476 26.0994 129.691 26.527C129.91 26.9512 130.019 27.4915 130.019 28.1477V33H128.846V28.2273C128.846 27.6207 128.688 27.1518 128.374 26.8203C128.062 26.4856 127.629 26.3182 127.076 26.3182C126.692 26.3182 126.347 26.3994 126.042 26.5618C125.74 26.7242 125.502 26.9612 125.326 27.2727C125.154 27.5843 125.067 27.9621 125.067 28.4062ZM135.367 33.1591C134.632 33.1591 133.997 32.9967 133.463 32.6719C132.933 32.3438 132.524 31.8864 132.235 31.2997C131.95 30.7098 131.808 30.0237 131.808 29.2415C131.808 28.4593 131.95 27.7699 132.235 27.1733C132.524 26.5734 132.925 26.1061 133.438 25.7713C133.955 25.4332 134.559 25.2642 135.248 25.2642C135.646 25.2642 136.039 25.3305 136.426 25.4631C136.814 25.5956 137.167 25.8111 137.485 26.1094C137.803 26.4044 138.057 26.7955 138.246 27.2827C138.435 27.7699 138.529 28.3698 138.529 29.0824V29.5795H132.643V28.5653H137.336C137.336 28.1345 137.25 27.75 137.078 27.4119C136.909 27.0739 136.667 26.8071 136.352 26.6115C136.04 26.416 135.672 26.3182 135.248 26.3182C134.781 26.3182 134.376 26.4342 134.035 26.6662C133.697 26.8949 133.437 27.1932 133.254 27.5611C133.072 27.929 132.981 28.3234 132.981 28.7443V29.4205C132.981 29.9972 133.08 30.486 133.279 30.8871C133.481 31.2848 133.762 31.5881 134.119 31.7969C134.477 32.0024 134.893 32.1051 135.367 32.1051C135.676 32.1051 135.954 32.062 136.203 31.9759C136.454 31.8864 136.672 31.7538 136.854 31.5781C137.036 31.3991 137.177 31.1771 137.276 30.9119L138.41 31.2301C138.291 31.6146 138.09 31.9527 137.808 32.2443C137.527 32.5327 137.179 32.758 136.764 32.9205C136.35 33.0795 135.884 33.1591 135.367 33.1591ZM143.416 33.1591C142.7 33.1591 142.084 32.9901 141.567 32.652C141.05 32.3139 140.652 31.8482 140.374 31.255C140.095 30.6617 139.956 29.9839 139.956 29.2216C139.956 28.446 140.099 27.7616 140.384 27.1683C140.672 26.5717 141.073 26.1061 141.587 25.7713C142.104 25.4332 142.707 25.2642 143.396 25.2642C143.933 25.2642 144.417 25.3636 144.848 25.5625C145.279 25.7614 145.632 26.0398 145.907 26.3977C146.182 26.7557 146.353 27.1733 146.419 27.6506H145.246C145.156 27.3026 144.958 26.9943 144.649 26.7259C144.344 26.4541 143.933 26.3182 143.416 26.3182C142.959 26.3182 142.558 26.4375 142.213 26.6761C141.872 26.9115 141.605 27.2446 141.413 27.6754C141.224 28.103 141.129 28.6051 141.129 29.1818C141.129 29.7718 141.222 30.2855 141.408 30.723C141.597 31.1605 141.862 31.5002 142.203 31.7422C142.548 31.9841 142.952 32.1051 143.416 32.1051C143.721 32.1051 143.998 32.0521 144.247 31.946C144.495 31.84 144.706 31.6875 144.878 31.4886C145.05 31.2898 145.173 31.0511 145.246 30.7727H146.419C146.353 31.2235 146.189 31.6295 145.927 31.9908C145.669 32.3487 145.325 32.6338 144.898 32.8459C144.474 33.0547 143.98 33.1591 143.416 33.1591ZM148.134 33V25.3636H149.308V33H148.134ZM148.731 24.0909C148.502 24.0909 148.305 24.013 148.139 23.8572C147.977 23.7015 147.896 23.5142 147.896 23.2955C147.896 23.0767 147.977 22.8894 148.139 22.7337C148.305 22.5779 148.502 22.5 148.731 22.5C148.96 22.5 149.155 22.5779 149.318 22.7337C149.483 22.8894 149.566 23.0767 149.566 23.2955C149.566 23.5142 149.483 23.7015 149.318 23.8572C149.155 24.013 148.96 24.0909 148.731 24.0909ZM154.34 33.1591C153.704 33.1591 153.142 32.9983 152.655 32.6768C152.168 32.352 151.786 31.8946 151.511 31.3047C151.236 30.7114 151.099 30.0104 151.099 29.2017C151.099 28.3996 151.236 27.7036 151.511 27.1136C151.786 26.5237 152.169 26.0679 152.66 25.7464C153.15 25.425 153.717 25.2642 154.36 25.2642C154.857 25.2642 155.25 25.3471 155.538 25.5128C155.83 25.6752 156.052 25.8608 156.205 26.0696C156.36 26.2751 156.481 26.4441 156.567 26.5767H156.667V22.8182H157.84V33H156.707V31.8267H156.567C156.481 31.9659 156.359 32.1416 156.2 32.3537C156.04 32.5625 155.813 32.7498 155.518 32.9155C155.223 33.0779 154.831 33.1591 154.34 33.1591ZM154.499 32.1051C154.97 32.1051 155.368 31.9825 155.692 31.7372C156.017 31.4886 156.264 31.1456 156.433 30.7081C156.602 30.2673 156.687 29.7585 156.687 29.1818C156.687 28.6117 156.604 28.1129 156.438 27.6854C156.272 27.2545 156.027 26.9197 155.702 26.6811C155.378 26.4392 154.977 26.3182 154.499 26.3182C154.002 26.3182 153.588 26.4458 153.256 26.701C152.928 26.9529 152.681 27.2959 152.516 27.7301C152.353 28.161 152.272 28.6449 152.272 29.1818C152.272 29.7254 152.355 30.2192 152.521 30.6634C152.69 31.1042 152.938 31.4555 153.266 31.7173C153.598 31.9759 154.009 32.1051 154.499 32.1051ZM162.399 33.179C161.915 33.179 161.476 33.0878 161.082 32.9055C160.687 32.7199 160.374 32.4531 160.142 32.1051C159.91 31.7538 159.794 31.3295 159.794 30.8324C159.794 30.3949 159.88 30.0402 160.053 29.7685C160.225 29.4934 160.455 29.2779 160.744 29.1222C161.032 28.9664 161.35 28.8504 161.698 28.7741C162.049 28.6946 162.402 28.6316 162.757 28.5852C163.221 28.5256 163.597 28.4808 163.886 28.451C164.177 28.4179 164.389 28.3632 164.522 28.2869C164.658 28.2107 164.726 28.0781 164.726 27.8892V27.8494C164.726 27.3589 164.592 26.9777 164.323 26.706C164.058 26.4342 163.655 26.2983 163.115 26.2983C162.555 26.2983 162.116 26.4209 161.798 26.6662C161.479 26.9115 161.256 27.1733 161.126 27.4517L160.013 27.054C160.212 26.59 160.477 26.2287 160.808 25.9702C161.143 25.7083 161.508 25.526 161.902 25.4233C162.3 25.3172 162.691 25.2642 163.075 25.2642C163.321 25.2642 163.602 25.294 163.92 25.3537C164.242 25.41 164.552 25.5277 164.85 25.7067C165.152 25.8857 165.402 26.1558 165.601 26.517C165.8 26.8783 165.899 27.3622 165.899 27.9688V33H164.726V31.9659H164.666C164.587 32.1316 164.454 32.3089 164.268 32.4979C164.083 32.6868 163.836 32.8475 163.528 32.9801C163.219 33.1127 162.843 33.179 162.399 33.179ZM162.578 32.125C163.042 32.125 163.433 32.0339 163.751 31.8516C164.073 31.6693 164.315 31.4339 164.477 31.1456C164.643 30.8572 164.726 30.554 164.726 30.2358V29.1619C164.676 29.2216 164.567 29.2763 164.398 29.326C164.232 29.3724 164.04 29.4138 163.821 29.4503C163.606 29.4834 163.395 29.5133 163.19 29.5398C162.987 29.563 162.823 29.5829 162.697 29.5994C162.393 29.6392 162.107 29.7038 161.842 29.7933C161.58 29.8795 161.368 30.0104 161.206 30.1861C161.047 30.3584 160.967 30.5937 160.967 30.892C160.967 31.2997 161.118 31.608 161.42 31.8168C161.725 32.0223 162.111 32.125 162.578 32.125Z" fill="#FAFFFF"/>
<g clip-path="url(#clip0_1_4417)">
<path d="M47.6429 52.5117H53.3047V54.713H47.6429V66.6774C47.6429 68.6525 48.1371 70.1275 49.1134 71.0649C49.9984 71.9139 51.2922 72.3137 52.9483 72.2433L53.3047 72.2284V74.2918L52.9932 74.3203C52.7087 74.3457 52.4287 74.3592 52.1547 74.3592C50.3652 74.3592 48.8274 73.8126 47.6729 72.757C46.1859 71.3988 45.4013 69.2964 45.4013 66.6774V48.6005L47.6444 48V52.5117H47.6429ZM76.5238 63.4789V74.3233H74.3226V70.1395C72.3595 73.0519 69.134 74.8144 65.639 74.8144C59.6373 74.8144 54.7542 69.7292 54.7542 63.4789C54.7542 57.2286 59.6373 51.9787 65.639 51.9787C71.6407 51.9787 76.5238 57.1373 76.5238 63.4789ZM74.3226 63.4789C74.3226 58.3742 70.4278 54.2218 65.639 54.2218C60.8502 54.2218 56.9554 58.3742 56.9554 63.4789C56.9554 68.5836 60.8502 72.6132 65.639 72.6132C70.4278 72.6132 74.3226 68.5147 74.3226 63.4789ZM33.4054 62.1073C29.3982 61.0022 27.3647 59.9315 27.3647 57.8037C27.3647 55.6758 29.7112 54.111 32.9441 54.111C36.7087 54.111 39.7604 56.5982 39.7604 56.5982L40.9853 54.7624C40.9853 54.7624 37.4469 51.9787 32.9456 51.9787C28.4444 51.9787 25.1485 54.4464 25.1485 57.8456C25.1485 61.8946 28.9909 63.1105 32.9996 64.2486C36.6578 65.2863 39.0552 66.3015 39.0552 68.7858C39.0552 71.0439 36.6054 72.6836 33.2302 72.6836C28.6196 72.6836 25.3312 69.4836 25.3312 69.4836L24 71.2236C24 71.2236 27.6373 74.8159 33.1882 74.8159C37.8707 74.8159 41.2699 72.2628 41.2699 68.7438C41.2699 64.4073 36.9078 63.0641 33.4039 62.1088L33.4054 62.1073ZM121.129 65.6112C121.129 69.6678 118.167 72.6117 114.087 72.6117C110.006 72.6117 107.085 69.6678 107.085 65.6112V52.5132H104.884V65.6127C104.884 70.9451 108.755 74.8159 114.087 74.8159C119.419 74.8159 123.33 70.9466 123.33 65.6127V52.5132H121.129V65.6127V65.6112ZM83.4435 54.1754C81.6361 55.8046 80.6822 58.2409 80.6822 61.2223V74.3218H82.8834V61.2223C82.8834 58.8653 83.5588 57.0504 84.89 55.827C86.3095 54.5243 88.4673 53.9553 91.1283 54.1784L91.4981 54.2098V52.1359L91.1912 52.1044C87.9956 51.775 85.3152 52.4893 83.4435 54.1769V54.1754ZM148.603 63.3546C148.603 69.6738 143.719 74.8129 137.718 74.8129C134.217 74.8129 130.991 73.0385 129.034 70.108V83.1251L126.833 83.7151V52.5132H129.034V56.5054C131.023 53.7591 134.175 51.9802 137.718 51.9802C143.719 51.9802 148.603 57.0834 148.603 63.3576V63.3546ZM146.401 63.3546C146.401 58.3188 142.507 54.2203 137.718 54.2203C132.929 54.2203 129.034 58.3188 129.034 63.3546C129.034 68.3905 132.929 72.6117 137.718 72.6117C142.507 72.6117 146.401 68.4593 146.401 63.3546ZM95.7643 48L93.5212 48.6005V66.6789C93.5212 69.2964 94.3073 71.3988 95.7928 72.7584C96.9473 73.8141 98.4851 74.3607 100.275 74.3607C100.549 74.3607 100.827 74.3487 101.113 74.3218L101.425 74.2933V72.2299L101.068 72.2448C99.4105 72.3152 98.1183 71.9154 97.2333 71.0664C96.2585 70.1305 95.7628 68.654 95.7628 66.6789V54.7145H101.423V52.5132H95.7628V48H95.7643Z" fill="#FAFFFF"/>
<path d="M166.973 58.6407C166.973 60.6997 166.341 62.3693 165.154 63.5418C163.568 65.1545 161.09 65.9392 158.253 65.9392C158.096 65.9392 157.945 65.9362 157.794 65.9332L157.03 63.0821C157.403 63.1195 157.816 63.1375 158.279 63.1375C161.476 63.1375 163.42 61.5547 163.42 58.789C163.42 56.0232 161.56 54.7953 158.628 54.7953C157.458 54.7953 156.602 54.9001 156.144 55.0005V74.3218H152.595V52.4773C154.026 52.2272 155.95 52.0281 158.507 52.0281C161.398 52.0281 163.521 52.66 164.895 53.8489C166.166 54.9211 166.971 56.6042 166.971 58.6392L166.973 58.6407ZM178.002 65.3222C179.153 64.9239 180.159 64.3384 180.941 63.5418C182.128 62.3693 182.76 60.7012 182.76 58.6407C182.76 56.5803 181.955 54.9211 180.683 53.8504C179.309 52.66 177.187 52.0296 174.295 52.0296C171.739 52.0296 169.815 52.2287 168.384 52.4788V74.3233H171.932V55.002C172.391 54.9016 173.247 54.7968 174.417 54.7968C177.349 54.7968 179.208 56.155 179.208 58.7905C179.208 61.5562 177.265 63.139 174.068 63.139C173.605 63.139 173.192 63.121 172.819 63.0836L179.309 74.3248H183.201L178.003 65.3237L178.002 65.3222Z" fill="#FAFFFF"/>
<path d="M139.148 86.8358V95.8113H137.072V86.8358H134.148V84.9026H142.072V86.8358H139.148ZM152.577 90.3098C152.577 93.4858 150.329 96 147.247 96C144.166 96 141.902 93.4858 141.902 90.3098C141.902 87.1338 144.149 84.6346 147.247 84.6346C150.346 84.6346 152.577 87.1502 152.577 90.3098ZM150.486 90.3098C150.486 88.2823 149.04 86.6007 147.247 86.6007C145.455 86.6007 143.993 88.2823 143.993 90.3098C143.993 92.3373 145.44 94.0354 147.247 94.0354C149.055 94.0354 150.486 92.3538 150.486 90.3098ZM158.273 91.9135H155.711V95.8113H153.635V84.9011H158.225C160.504 84.9011 161.825 86.2847 161.825 88.423C161.825 90.4506 160.426 91.912 158.271 91.912L158.273 91.9135ZM155.711 86.8343V90.0103H158.21C159.168 90.0103 159.751 89.5237 159.751 88.423C159.751 87.3224 159.168 86.8343 158.21 86.8343H155.711ZM170.053 95.8098H167.978V86.8343H166.72V84.9011H170.053V95.8113V95.8098ZM182.946 90.3083C182.946 93.4843 180.698 95.9985 177.617 95.9985C174.535 95.9985 172.271 93.4843 172.271 90.3083C172.271 87.1323 174.519 84.6331 177.617 84.6331C180.715 84.6331 182.946 87.1487 182.946 90.3083ZM180.856 90.3083C180.856 88.2808 179.409 86.5992 177.617 86.5992C175.824 86.5992 174.363 88.2808 174.363 90.3083C174.363 92.3358 175.809 94.0339 177.617 94.0339C179.424 94.0339 180.856 92.3523 180.856 90.3083Z" fill="#FAFFFF"/>
</g>
<g clip-path="url(#clip1_1_4417)">
<path opacity="0.997" fill-rule="evenodd" clip-rule="evenodd" d="M244.683 31.9854C257.162 31.9854 269.64 31.9854 282.118 31.9854C281.663 34.2897 281.2 36.5926 280.73 38.8941C268.252 38.923 255.774 38.9326 243.296 38.923C243.755 36.6097 244.217 34.2972 244.683 31.9854Z" fill="white"/>
<path opacity="0.997" fill-rule="evenodd" clip-rule="evenodd" d="M242.4 42.71C254.878 42.71 267.356 42.71 279.835 42.71C279.387 45.0159 278.924 47.3188 278.447 49.6187C265.969 49.6476 253.491 49.6573 241.013 49.6476C241.471 47.3343 241.934 45.0217 242.4 42.71Z" fill="white"/>
<path opacity="0.996" fill-rule="evenodd" clip-rule="evenodd" d="M240.175 53.7523C243.991 53.7475 247.806 53.7523 251.622 53.7668C252.736 53.8492 253.758 54.196 254.686 54.8074C255.903 55.7507 256.39 56.9889 256.146 58.5219C255.87 60.2077 255.008 61.4939 253.559 62.381C252.65 62.9025 251.686 63.2878 250.668 63.5373C251.694 63.6989 252.629 64.0747 253.472 64.6647C254.127 65.1992 254.518 65.8883 254.643 66.7315C254.818 68.6816 254.231 70.3582 252.88 71.7613C251.535 73.0934 249.912 73.8305 248.009 73.9727C247.355 74.0479 246.7 74.0959 246.043 74.1172C242.642 74.1317 239.24 74.1366 235.839 74.1317C237.269 67.3354 238.715 60.5422 240.175 53.7523ZM244.973 57.3946C246.149 57.3897 247.324 57.3946 248.5 57.409C249.793 57.4876 250.376 58.1669 250.249 59.447C249.915 61.164 248.869 61.9784 247.113 61.8896C246.081 61.9136 245.05 61.909 244.02 61.8752C244.348 60.3839 244.666 58.8904 244.973 57.3946ZM243.239 65.5463C244.357 65.5414 245.474 65.5463 246.592 65.5608C248.705 65.6995 249.365 66.7546 248.572 68.7261C248.128 69.5936 247.42 70.1093 246.448 70.2726C246.209 70.3177 245.968 70.3466 245.725 70.3593C244.559 70.3738 243.393 70.3787 242.227 70.3738C242.568 68.7654 242.905 67.1562 243.239 65.5463Z" fill="white"/>
<path opacity="0.994" fill-rule="evenodd" clip-rule="evenodd" d="M199.185 69.767C199.185 69.3817 199.185 68.9961 199.185 68.6108C199.242 68.2387 199.3 67.8629 199.358 67.4834C201.256 67.4834 203.154 67.4834 205.053 67.4834C204.629 69.2823 205.333 70.2796 207.163 70.4753C208.034 70.5686 208.882 70.4724 209.707 70.1862C210.729 69.7384 211.278 68.9533 211.354 67.8303C211.324 67.3027 211.074 66.922 210.603 66.6885C210.407 66.5942 210.205 66.5173 209.996 66.4572C208.25 65.9993 206.506 65.5368 204.764 65.0697C201.562 64.0573 200.545 61.9714 201.714 58.8113C202.171 57.6995 202.87 56.7697 203.81 56.0218C205.224 54.9251 206.823 54.2457 208.608 53.9839C210.106 53.7673 211.609 53.7239 213.118 53.8538C214.031 53.9284 214.917 54.1211 215.777 54.4319C217.866 55.279 218.738 56.8255 218.393 59.0715C218.35 59.3818 218.297 59.6901 218.234 59.9965C216.326 59.9965 214.419 59.9965 212.511 59.9965C212.539 59.7935 212.572 59.5912 212.612 59.3895C212.753 58.239 212.256 57.5597 211.123 57.3515C210.03 57.1697 209.037 57.4009 208.146 58.0453C207.521 58.5698 207.247 59.2394 207.322 60.0543C207.398 60.3527 207.557 60.5984 207.799 60.7914C207.993 60.9368 208.205 61.0525 208.435 61.1383C209.963 61.5661 211.495 61.9804 213.031 62.3813C213.981 62.6302 214.886 62.9869 215.748 63.4509C216.825 64.1577 217.364 65.1599 217.367 66.4572C217.232 69.2346 215.96 71.2965 213.551 72.6433C211.71 73.5828 209.754 74.0742 207.683 74.1175C206.274 74.1872 204.877 74.0907 203.492 73.8285C202.432 73.6308 201.478 73.2067 200.63 72.5566C199.784 71.8148 199.303 70.8849 199.185 69.767Z" fill="white"/>
<path opacity="0.996" fill-rule="evenodd" clip-rule="evenodd" d="M222.282 53.8101C227.447 53.8101 232.611 53.8101 237.776 53.8101C237.511 55.1119 237.241 56.4127 236.967 57.7125C233.691 57.7125 230.414 57.7125 227.138 57.7125C226.832 59.1177 226.534 60.5245 226.242 61.9329C229.316 61.9329 232.39 61.9329 235.464 61.9329C235.188 63.2346 234.908 64.5354 234.625 65.8354C231.542 65.8258 228.458 65.8354 225.375 65.8643C225.068 67.2963 224.76 68.7272 224.45 70.1569C227.803 70.1619 231.156 70.1763 234.51 70.2003C234.221 71.5011 233.931 72.8019 233.642 74.1027C228.401 74.1412 223.159 74.1412 217.917 74.1027C219.379 67.34 220.834 60.5758 222.282 53.8101Z" fill="white"/>
<path opacity="0.995" fill-rule="evenodd" clip-rule="evenodd" d="M259.688 53.8099C263.494 53.8051 267.3 53.8099 271.106 53.8244C272.136 53.7951 273.128 53.9686 274.084 54.3447C275.283 54.9485 275.934 55.9265 276.035 57.2788C276.11 60.9132 274.371 63.1055 270.817 63.8551C270.501 63.9242 270.183 63.982 269.863 64.0285C269.823 64.0392 269.794 64.0632 269.777 64.1008C270.413 64.1303 271.039 64.2216 271.656 64.3754C272.747 64.663 273.339 65.3713 273.433 66.5001C273.463 66.7883 273.477 67.0773 273.477 67.3673C273.412 68.7745 273.34 70.1811 273.26 71.5877C273.233 72.4078 273.242 73.2267 273.289 74.0448C277.444 67.3433 281.592 60.6368 285.733 53.9255C288.075 53.8966 290.416 53.887 292.758 53.8966C293.999 60.6436 295.252 67.3887 296.516 74.1315C294.357 74.141 292.199 74.1315 290.04 74.1026C289.85 72.7645 289.667 71.4252 289.491 70.0845C286.745 70.075 283.999 70.0845 281.253 70.1134C280.497 71.4458 279.746 72.7801 278.998 74.1171C275.018 74.1315 271.039 74.1364 267.059 74.1315C267.054 73.6011 267.068 73.0709 267.103 72.5416C267.239 71.0003 267.369 69.4587 267.493 67.9165C267.51 67.5127 267.418 67.1369 267.218 66.7891C267.031 66.5628 266.795 66.4133 266.51 66.3411C266.263 66.2838 266.012 66.2451 265.759 66.2255C265.267 66.2205 264.776 66.2159 264.284 66.211C263.782 66.2113 263.286 66.2304 262.796 66.2688C262.227 68.8889 261.663 71.5099 261.105 74.1315C259.177 74.141 257.25 74.1315 255.323 74.1026C256.787 67.3401 258.242 60.576 259.688 53.8099ZM264.66 57.5678C265.769 57.557 266.877 57.5714 267.984 57.6112C268.4 57.6323 268.805 57.7093 269.199 57.8424C269.864 58.1265 270.201 58.6323 270.21 59.3601C270.073 61.4197 268.975 62.4649 266.915 62.4965C265.816 62.5109 264.718 62.5158 263.62 62.5109C263.966 60.8632 264.313 59.2155 264.66 57.5678ZM288.075 57.8858C288.104 57.8858 288.133 57.8858 288.162 57.8858C288.427 60.6998 288.697 63.5134 288.971 66.3266C287.121 66.3315 285.271 66.3266 283.421 66.3122C284.991 63.5134 286.542 60.7046 288.075 57.8858Z" fill="white"/>
<path opacity="0.996" fill-rule="evenodd" clip-rule="evenodd" d="M317.587 53.8105C317.587 53.8587 317.587 53.9069 317.587 53.9551C317.309 55.2025 317.039 56.4551 316.777 57.713C313.501 57.713 310.225 57.713 306.949 57.713C306.65 59.1197 306.351 60.5266 306.053 61.9334C309.126 61.9334 312.2 61.9334 315.274 61.9334C315.01 63.2276 314.73 64.5188 314.436 65.8069C311.353 65.8358 308.269 65.8454 305.186 65.8358C304.879 67.2797 304.581 68.7251 304.289 70.1719C307.633 70.1719 310.976 70.1719 314.32 70.1719C314.04 71.4898 313.751 72.805 313.453 74.1177C308.211 74.1371 302.969 74.1371 297.728 74.1177C299.195 67.352 300.65 60.583 302.092 53.8105C307.257 53.8105 312.422 53.8105 317.587 53.8105Z" fill="white"/>
<path opacity="0.997" fill-rule="evenodd" clip-rule="evenodd" d="M234.914 78.3232C247.392 78.3232 259.87 78.3232 272.348 78.3232C271.893 80.6277 271.431 82.9304 270.961 85.232C258.483 85.2609 246.005 85.2705 233.526 85.2609C233.985 82.9475 234.448 80.6349 234.914 78.3232Z" fill="white"/>
<path opacity="0.997" fill-rule="evenodd" clip-rule="evenodd" d="M268.676 95.985C256.197 95.985 243.719 95.985 231.241 95.985C231.7 93.6716 232.162 91.3591 232.629 89.0474C245.107 89.0474 257.585 89.0474 270.063 89.0474C269.612 91.3622 269.149 93.6748 268.676 95.985Z" fill="white"/>
</g>
<defs>
<clipPath id="clip0_1_4417">
<rect width="159.199" height="48" fill="white" transform="translate(24 48)"/>
</clipPath>
<clipPath id="clip1_1_4417">
<rect width="118.403" height="64" fill="white" transform="translate(199.199 32)"/>
</clipPath>
</defs>
</svg>
