<svg width="474" height="112" viewBox="0 0 474 112" fill="none" xmlns="http://www.w3.org/2000/svg">
<rect width="474" height="112" fill="#005EBD"/>
<path d="M49.233 33V22.8182H55.3778V23.9119H50.4659V27.3523H55.0597V28.446H50.4659V31.9062H55.4574V33H49.233ZM57.4411 33V25.3636H58.5746V26.5568H58.674C58.8331 26.1491 59.09 25.8326 59.4446 25.6072C59.7992 25.3786 60.2251 25.2642 60.7223 25.2642C61.2261 25.2642 61.6454 25.3786 61.9801 25.6072C62.3182 25.8326 62.5817 26.1491 62.7706 26.5568H62.8501C63.0457 26.1624 63.339 25.8492 63.7301 25.6172C64.1212 25.3819 64.5902 25.2642 65.1371 25.2642C65.8198 25.2642 66.3783 25.478 66.8125 25.9055C67.2467 26.3298 67.4638 26.991 67.4638 27.8892V33H66.2905V27.8892C66.2905 27.3258 66.1364 26.9231 65.8281 26.6811C65.5199 26.4392 65.157 26.3182 64.7393 26.3182C64.2024 26.3182 63.7865 26.4806 63.4915 26.8054C63.1965 27.1269 63.049 27.5346 63.049 28.0284V33H61.8558V27.7699C61.8558 27.3357 61.715 26.986 61.4332 26.7209C61.1515 26.4524 60.7886 26.3182 60.3445 26.3182C60.0395 26.3182 59.7545 26.3994 59.4893 26.5618C59.2275 26.7242 59.0154 26.9496 58.853 27.2379C58.6939 27.523 58.6143 27.8527 58.6143 28.2273V33H57.4411ZM69.609 35.8636V25.3636H70.7425V26.5767H70.8817C70.9679 26.4441 71.0872 26.2751 71.2397 26.0696C71.3955 25.8608 71.6175 25.6752 71.9059 25.5128C72.1976 25.3471 72.592 25.2642 73.0891 25.2642C73.7321 25.2642 74.2989 25.425 74.7894 25.7464C75.2799 26.0679 75.6628 26.5237 75.9379 27.1136C76.2129 27.7036 76.3505 28.3996 76.3505 29.2017C76.3505 30.0104 76.2129 30.7114 75.9379 31.3047C75.6628 31.8946 75.2816 32.352 74.7944 32.6768C74.3072 32.9983 73.7454 33.1591 73.109 33.1591C72.6185 33.1591 72.2257 33.0779 71.9308 32.9155C71.6358 32.7498 71.4087 32.5625 71.2496 32.3537C71.0906 32.1416 70.9679 31.9659 70.8817 31.8267H70.7823V35.8636H69.609ZM70.7624 29.1818C70.7624 29.7585 70.8469 30.2673 71.016 30.7081C71.185 31.1456 71.4319 31.4886 71.7567 31.7372C72.0816 31.9825 72.4793 32.1051 72.9499 32.1051C73.4405 32.1051 73.8498 31.9759 74.1779 31.7173C74.5094 31.4555 74.7579 31.1042 74.9237 30.6634C75.0927 30.2192 75.1772 29.7254 75.1772 29.1818C75.1772 28.6449 75.0943 28.161 74.9286 27.7301C74.7662 27.2959 74.5193 26.9529 74.1879 26.701C73.8597 26.4458 73.4471 26.3182 72.9499 26.3182C72.4727 26.3182 72.0716 26.4392 71.7468 26.6811C71.422 26.9197 71.1767 27.2545 71.011 27.6854C70.8453 28.1129 70.7624 28.6117 70.7624 29.1818ZM78.1403 33V25.3636H79.2738V26.517H79.3533C79.4925 26.1392 79.7444 25.8326 80.109 25.5973C80.4736 25.362 80.8846 25.2443 81.342 25.2443C81.4281 25.2443 81.5359 25.246 81.6651 25.2493C81.7944 25.2526 81.8922 25.2576 81.9585 25.2642V26.4574C81.9187 26.4474 81.8275 26.4325 81.685 26.4126C81.5458 26.3894 81.3983 26.3778 81.2425 26.3778C80.8713 26.3778 80.5399 26.4557 80.2482 26.6115C79.9599 26.764 79.7312 26.9761 79.5621 27.2479C79.3964 27.5163 79.3136 27.8229 79.3136 28.1676V33H78.1403ZM86.3185 33.1591C85.5827 33.1591 84.948 32.9967 84.4144 32.6719C83.8841 32.3438 83.4748 31.8864 83.1864 31.2997C82.9014 30.7098 82.7589 30.0237 82.7589 29.2415C82.7589 28.4593 82.9014 27.7699 83.1864 27.1733C83.4748 26.5734 83.8758 26.1061 84.3896 25.7713C84.9066 25.4332 85.5098 25.2642 86.1992 25.2642C86.5969 25.2642 86.9897 25.3305 87.3775 25.4631C87.7653 25.5956 88.1183 25.8111 88.4364 26.1094C88.7546 26.4044 89.0082 26.7955 89.1971 27.2827C89.386 27.7699 89.4805 28.3698 89.4805 29.0824V29.5795H83.5941V28.5653H88.2873C88.2873 28.1345 88.2011 27.75 88.0288 27.4119C87.8597 27.0739 87.6178 26.8071 87.3029 26.6115C86.9914 26.416 86.6235 26.3182 86.1992 26.3182C85.7319 26.3182 85.3275 26.4342 84.9862 26.6662C84.6481 26.8949 84.3879 27.1932 84.2056 27.5611C84.0233 27.929 83.9322 28.3234 83.9322 28.7443V29.4205C83.9322 29.9972 84.0316 30.486 84.2305 30.8871C84.4326 31.2848 84.7127 31.5881 85.0707 31.7969C85.4286 32.0024 85.8446 32.1051 86.3185 32.1051C86.6268 32.1051 86.9052 32.062 87.1538 31.9759C87.4057 31.8864 87.6228 31.7538 87.805 31.5781C87.9873 31.3991 88.1282 31.1771 88.2276 30.9119L89.3612 31.2301C89.2418 31.6146 89.0413 31.9527 88.7596 32.2443C88.4779 32.5327 88.1299 32.758 87.7156 32.9205C87.3013 33.0795 86.8356 33.1591 86.3185 33.1591ZM96.6744 27.0739L95.6204 27.3722C95.5541 27.1965 95.4563 27.0258 95.3271 26.8601C95.2011 26.6911 95.0288 26.5518 94.81 26.4425C94.5913 26.3331 94.3112 26.2784 93.9698 26.2784C93.5025 26.2784 93.113 26.3861 92.8015 26.6016C92.4933 26.8137 92.3391 27.0838 92.3391 27.4119C92.3391 27.7036 92.4452 27.9339 92.6573 28.103C92.8694 28.272 93.2009 28.4129 93.6516 28.5256L94.7852 28.804C95.4679 28.9697 95.9767 29.2232 96.3114 29.5646C96.6462 29.9027 96.8136 30.3385 96.8136 30.8722C96.8136 31.3097 96.6876 31.7008 96.4357 32.0455C96.1871 32.3902 95.8391 32.6619 95.3917 32.8608C94.9442 33.0597 94.4239 33.1591 93.8306 33.1591C93.0517 33.1591 92.4071 32.9901 91.8967 32.652C91.3862 32.3139 91.0631 31.8201 90.9272 31.1705L92.0408 30.892C92.1469 31.303 92.3474 31.6113 92.6424 31.8168C92.9407 32.0223 93.3301 32.125 93.8107 32.125C94.3576 32.125 94.7918 32.009 95.1133 31.777C95.4381 31.5417 95.6005 31.2599 95.6005 30.9318C95.6005 30.6667 95.5077 30.4446 95.3221 30.2656C95.1365 30.0833 94.8514 29.9474 94.467 29.858L93.1942 29.5597C92.4949 29.3939 91.9812 29.1371 91.6531 28.7891C91.3282 28.4377 91.1658 27.9986 91.1658 27.4716C91.1658 27.0407 91.2868 26.6596 91.5288 26.3281C91.774 25.9967 92.1071 25.7365 92.5281 25.5476C92.9523 25.3587 93.4329 25.2642 93.9698 25.2642C94.7255 25.2642 95.3188 25.4299 95.7496 25.7614C96.1838 26.0928 96.4921 26.5303 96.6744 27.0739ZM100.827 33.179C100.343 33.179 99.9038 33.0878 99.5094 32.9055C99.115 32.7199 98.8018 32.4531 98.5698 32.1051C98.3378 31.7538 98.2218 31.3295 98.2218 30.8324C98.2218 30.3949 98.3079 30.0402 98.4803 29.7685C98.6526 29.4934 98.883 29.2779 99.1713 29.1222C99.4597 28.9664 99.7779 28.8504 100.126 28.7741C100.477 28.6946 100.83 28.6316 101.185 28.5852C101.649 28.5256 102.025 28.4808 102.313 28.451C102.605 28.4179 102.817 28.3632 102.95 28.2869C103.086 28.2107 103.154 28.0781 103.154 27.8892V27.8494C103.154 27.3589 103.019 26.9777 102.751 26.706C102.486 26.4342 102.083 26.2983 101.543 26.2983C100.983 26.2983 100.544 26.4209 100.225 26.6662C99.9071 26.9115 99.6834 27.1733 99.5542 27.4517L98.4405 27.054C98.6394 26.59 98.9045 26.2287 99.236 25.9702C99.5707 25.7083 99.9353 25.526 100.33 25.4233C100.727 25.3172 101.119 25.2642 101.503 25.2642C101.748 25.2642 102.03 25.294 102.348 25.3537C102.67 25.41 102.98 25.5277 103.278 25.7067C103.579 25.8857 103.83 26.1558 104.029 26.517C104.227 26.8783 104.327 27.3622 104.327 27.9688V33H103.154V31.9659H103.094C103.014 32.1316 102.882 32.3089 102.696 32.4979C102.511 32.6868 102.264 32.8475 101.955 32.9801C101.647 33.1127 101.271 33.179 100.827 33.179ZM101.006 32.125C101.47 32.125 101.861 32.0339 102.179 31.8516C102.501 31.6693 102.743 31.4339 102.905 31.1456C103.071 30.8572 103.154 30.554 103.154 30.2358V29.1619C103.104 29.2216 102.994 29.2763 102.825 29.326C102.66 29.3724 102.468 29.4138 102.249 29.4503C102.033 29.4834 101.823 29.5133 101.617 29.5398C101.415 29.563 101.251 29.5829 101.125 29.5994C100.82 29.6392 100.535 29.7038 100.27 29.7933C100.008 29.8795 99.7961 30.0104 99.6337 30.1861C99.4746 30.3584 99.3951 30.5937 99.3951 30.892C99.3951 31.2997 99.5459 31.608 99.8475 31.8168C100.152 32.0223 100.539 32.125 101.006 32.125ZM110.406 33V25.3636H111.539V26.517H111.619C111.758 26.1392 112.01 25.8326 112.375 25.5973C112.739 25.362 113.15 25.2443 113.608 25.2443C113.694 25.2443 113.801 25.246 113.931 25.2493C114.06 25.2526 114.158 25.2576 114.224 25.2642V26.4574C114.184 26.4474 114.093 26.4325 113.951 26.4126C113.811 26.3894 113.664 26.3778 113.508 26.3778C113.137 26.3778 112.806 26.4557 112.514 26.6115C112.225 26.764 111.997 26.9761 111.828 27.2479C111.662 27.5163 111.579 27.8229 111.579 28.1676V33H110.406ZM118.584 33.1591C117.848 33.1591 117.214 32.9967 116.68 32.6719C116.15 32.3438 115.74 31.8864 115.452 31.2997C115.167 30.7098 115.025 30.0237 115.025 29.2415C115.025 28.4593 115.167 27.7699 115.452 27.1733C115.74 26.5734 116.141 26.1061 116.655 25.7713C117.172 25.4332 117.775 25.2642 118.465 25.2642C118.863 25.2642 119.255 25.3305 119.643 25.4631C120.031 25.5956 120.384 25.8111 120.702 26.1094C121.02 26.4044 121.274 26.7955 121.463 27.2827C121.652 27.7699 121.746 28.3698 121.746 29.0824V29.5795H115.86V28.5653H120.553C120.553 28.1345 120.467 27.75 120.294 27.4119C120.125 27.0739 119.883 26.8071 119.569 26.6115C119.257 26.416 118.889 26.3182 118.465 26.3182C117.998 26.3182 117.593 26.4342 117.252 26.6662C116.914 26.8949 116.654 27.1932 116.471 27.5611C116.289 27.929 116.198 28.3234 116.198 28.7443V29.4205C116.198 29.9972 116.297 30.486 116.496 30.8871C116.698 31.2848 116.978 31.5881 117.336 31.7969C117.694 32.0024 118.11 32.1051 118.584 32.1051C118.892 32.1051 119.171 32.062 119.419 31.9759C119.671 31.8864 119.888 31.7538 120.071 31.5781C120.253 31.3991 120.394 31.1771 120.493 30.9119L121.627 31.2301C121.507 31.6146 121.307 31.9527 121.025 32.2443C120.743 32.5327 120.395 32.758 119.981 32.9205C119.567 33.0795 119.101 33.1591 118.584 33.1591ZM126.633 33.1591C125.917 33.1591 125.301 32.9901 124.784 32.652C124.267 32.3139 123.869 31.8482 123.591 31.255C123.312 30.6617 123.173 29.9839 123.173 29.2216C123.173 28.446 123.315 27.7616 123.6 27.1683C123.889 26.5717 124.29 26.1061 124.804 25.7713C125.321 25.4332 125.924 25.2642 126.613 25.2642C127.15 25.2642 127.634 25.3636 128.065 25.5625C128.496 25.7614 128.849 26.0398 129.124 26.3977C129.399 26.7557 129.57 27.1733 129.636 27.6506H128.463C128.373 27.3026 128.174 26.9943 127.866 26.7259C127.561 26.4541 127.15 26.3182 126.633 26.3182C126.176 26.3182 125.775 26.4375 125.43 26.6761C125.089 26.9115 124.822 27.2446 124.63 27.6754C124.441 28.103 124.346 28.6051 124.346 29.1818C124.346 29.7718 124.439 30.2855 124.625 30.723C124.814 31.1605 125.079 31.5002 125.42 31.7422C125.765 31.9841 126.169 32.1051 126.633 32.1051C126.938 32.1051 127.215 32.0521 127.463 31.946C127.712 31.84 127.922 31.6875 128.095 31.4886C128.267 31.2898 128.39 31.0511 128.463 30.7727H129.636C129.57 31.2235 129.406 31.6295 129.144 31.9908C128.885 32.3487 128.542 32.6338 128.115 32.8459C127.69 33.0547 127.197 33.1591 126.633 33.1591ZM134.453 33.1591C133.764 33.1591 133.159 32.995 132.639 32.6669C132.122 32.3388 131.717 31.8797 131.426 31.2898C131.137 30.6998 130.993 30.0104 130.993 29.2216C130.993 28.4261 131.137 27.7318 131.426 27.1385C131.717 26.5452 132.122 26.0845 132.639 25.7564C133.159 25.4283 133.764 25.2642 134.453 25.2642C135.143 25.2642 135.746 25.4283 136.263 25.7564C136.783 26.0845 137.188 26.5452 137.476 27.1385C137.768 27.7318 137.914 28.4261 137.914 29.2216C137.914 30.0104 137.768 30.6998 137.476 31.2898C137.188 31.8797 136.783 32.3388 136.263 32.6669C135.746 32.995 135.143 33.1591 134.453 33.1591ZM134.453 32.1051C134.977 32.1051 135.408 31.9709 135.746 31.7024C136.084 31.4339 136.334 31.081 136.497 30.6435C136.659 30.206 136.74 29.732 136.74 29.2216C136.74 28.7112 136.659 28.2356 136.497 27.7947C136.334 27.3539 136.084 26.9976 135.746 26.7259C135.408 26.4541 134.977 26.3182 134.453 26.3182C133.93 26.3182 133.499 26.4541 133.161 26.7259C132.823 26.9976 132.573 27.3539 132.41 27.7947C132.248 28.2356 132.167 28.7112 132.167 29.2216C132.167 29.732 132.248 30.206 132.41 30.6435C132.573 31.081 132.823 31.4339 133.161 31.7024C133.499 31.9709 133.93 32.1051 134.453 32.1051ZM140.878 28.4062V33H139.705V25.3636H140.838V26.5568H140.938C141.117 26.169 141.388 25.8575 141.753 25.6222C142.118 25.3835 142.588 25.2642 143.165 25.2642C143.682 25.2642 144.134 25.3703 144.522 25.5824C144.91 25.7912 145.212 26.1094 145.427 26.5369C145.642 26.9612 145.75 27.4981 145.75 28.1477V33H144.577V28.2273C144.577 27.6274 144.421 27.16 144.11 26.8253C143.798 26.4872 143.37 26.3182 142.827 26.3182C142.452 26.3182 142.118 26.3994 141.823 26.5618C141.531 26.7242 141.301 26.9612 141.132 27.2727C140.963 27.5843 140.878 27.9621 140.878 28.4062ZM149.067 28.4062V33H147.894V22.8182H149.067V26.5568H149.167C149.346 26.1624 149.614 25.8492 149.972 25.6172C150.334 25.3819 150.814 25.2642 151.414 25.2642C151.934 25.2642 152.39 25.3686 152.781 25.5774C153.172 25.7829 153.476 26.0994 153.691 26.527C153.91 26.9512 154.019 27.4915 154.019 28.1477V33H152.846V28.2273C152.846 27.6207 152.688 27.1518 152.374 26.8203C152.062 26.4856 151.629 26.3182 151.076 26.3182C150.692 26.3182 150.347 26.3994 150.042 26.5618C149.74 26.7242 149.502 26.9612 149.326 27.2727C149.154 27.5843 149.067 27.9621 149.067 28.4062ZM159.367 33.1591C158.632 33.1591 157.997 32.9967 157.463 32.6719C156.933 32.3438 156.524 31.8864 156.235 31.2997C155.95 30.7098 155.808 30.0237 155.808 29.2415C155.808 28.4593 155.95 27.7699 156.235 27.1733C156.524 26.5734 156.925 26.1061 157.438 25.7713C157.955 25.4332 158.559 25.2642 159.248 25.2642C159.646 25.2642 160.039 25.3305 160.426 25.4631C160.814 25.5956 161.167 25.8111 161.485 26.1094C161.803 26.4044 162.057 26.7955 162.246 27.2827C162.435 27.7699 162.529 28.3698 162.529 29.0824V29.5795H156.643V28.5653H161.336C161.336 28.1345 161.25 27.75 161.078 27.4119C160.909 27.0739 160.667 26.8071 160.352 26.6115C160.04 26.416 159.672 26.3182 159.248 26.3182C158.781 26.3182 158.376 26.4342 158.035 26.6662C157.697 26.8949 157.437 27.1932 157.254 27.5611C157.072 27.929 156.981 28.3234 156.981 28.7443V29.4205C156.981 29.9972 157.08 30.486 157.279 30.8871C157.481 31.2848 157.762 31.5881 158.119 31.7969C158.477 32.0024 158.893 32.1051 159.367 32.1051C159.676 32.1051 159.954 32.062 160.203 31.9759C160.454 31.8864 160.672 31.7538 160.854 31.5781C161.036 31.3991 161.177 31.1771 161.276 30.9119L162.41 31.2301C162.291 31.6146 162.09 31.9527 161.808 32.2443C161.527 32.5327 161.179 32.758 160.764 32.9205C160.35 33.0795 159.884 33.1591 159.367 33.1591ZM167.416 33.1591C166.7 33.1591 166.084 32.9901 165.567 32.652C165.05 32.3139 164.652 31.8482 164.374 31.255C164.095 30.6617 163.956 29.9839 163.956 29.2216C163.956 28.446 164.099 27.7616 164.384 27.1683C164.672 26.5717 165.073 26.1061 165.587 25.7713C166.104 25.4332 166.707 25.2642 167.396 25.2642C167.933 25.2642 168.417 25.3636 168.848 25.5625C169.279 25.7614 169.632 26.0398 169.907 26.3977C170.182 26.7557 170.353 27.1733 170.419 27.6506H169.246C169.156 27.3026 168.958 26.9943 168.649 26.7259C168.344 26.4541 167.933 26.3182 167.416 26.3182C166.959 26.3182 166.558 26.4375 166.213 26.6761C165.872 26.9115 165.605 27.2446 165.413 27.6754C165.224 28.103 165.129 28.6051 165.129 29.1818C165.129 29.7718 165.222 30.2855 165.408 30.723C165.597 31.1605 165.862 31.5002 166.203 31.7422C166.548 31.9841 166.952 32.1051 167.416 32.1051C167.721 32.1051 167.998 32.0521 168.247 31.946C168.495 31.84 168.706 31.6875 168.878 31.4886C169.05 31.2898 169.173 31.0511 169.246 30.7727H170.419C170.353 31.2235 170.189 31.6295 169.927 31.9908C169.669 32.3487 169.325 32.6338 168.898 32.8459C168.474 33.0547 167.98 33.1591 167.416 33.1591ZM172.134 33V25.3636H173.308V33H172.134ZM172.731 24.0909C172.502 24.0909 172.305 24.013 172.139 23.8572C171.977 23.7015 171.896 23.5142 171.896 23.2955C171.896 23.0767 171.977 22.8894 172.139 22.7337C172.305 22.5779 172.502 22.5 172.731 22.5C172.96 22.5 173.155 22.5779 173.318 22.7337C173.483 22.8894 173.566 23.0767 173.566 23.2955C173.566 23.5142 173.483 23.7015 173.318 23.8572C173.155 24.013 172.96 24.0909 172.731 24.0909ZM178.34 33.1591C177.704 33.1591 177.142 32.9983 176.655 32.6768C176.168 32.352 175.786 31.8946 175.511 31.3047C175.236 30.7114 175.099 30.0104 175.099 29.2017C175.099 28.3996 175.236 27.7036 175.511 27.1136C175.786 26.5237 176.169 26.0679 176.66 25.7464C177.15 25.425 177.717 25.2642 178.36 25.2642C178.857 25.2642 179.25 25.3471 179.538 25.5128C179.83 25.6752 180.052 25.8608 180.205 26.0696C180.36 26.2751 180.481 26.4441 180.567 26.5767H180.667V22.8182H181.84V33H180.707V31.8267H180.567C180.481 31.9659 180.359 32.1416 180.2 32.3537C180.04 32.5625 179.813 32.7498 179.518 32.9155C179.223 33.0779 178.831 33.1591 178.34 33.1591ZM178.499 32.1051C178.97 32.1051 179.368 31.9825 179.692 31.7372C180.017 31.4886 180.264 31.1456 180.433 30.7081C180.602 30.2673 180.687 29.7585 180.687 29.1818C180.687 28.6117 180.604 28.1129 180.438 27.6854C180.272 27.2545 180.027 26.9197 179.702 26.6811C179.378 26.4392 178.977 26.3182 178.499 26.3182C178.002 26.3182 177.588 26.4458 177.256 26.701C176.928 26.9529 176.681 27.2959 176.516 27.7301C176.353 28.161 176.272 28.6449 176.272 29.1818C176.272 29.7254 176.355 30.2192 176.521 30.6634C176.69 31.1042 176.938 31.4555 177.266 31.7173C177.598 31.9759 178.009 32.1051 178.499 32.1051ZM186.399 33.179C185.915 33.179 185.476 33.0878 185.082 32.9055C184.687 32.7199 184.374 32.4531 184.142 32.1051C183.91 31.7538 183.794 31.3295 183.794 30.8324C183.794 30.3949 183.88 30.0402 184.053 29.7685C184.225 29.4934 184.455 29.2779 184.744 29.1222C185.032 28.9664 185.35 28.8504 185.698 28.7741C186.049 28.6946 186.402 28.6316 186.757 28.5852C187.221 28.5256 187.597 28.4808 187.886 28.451C188.177 28.4179 188.389 28.3632 188.522 28.2869C188.658 28.2107 188.726 28.0781 188.726 27.8892V27.8494C188.726 27.3589 188.592 26.9777 188.323 26.706C188.058 26.4342 187.655 26.2983 187.115 26.2983C186.555 26.2983 186.116 26.4209 185.798 26.6662C185.479 26.9115 185.256 27.1733 185.126 27.4517L184.013 27.054C184.212 26.59 184.477 26.2287 184.808 25.9702C185.143 25.7083 185.508 25.526 185.902 25.4233C186.3 25.3172 186.691 25.2642 187.075 25.2642C187.321 25.2642 187.602 25.294 187.92 25.3537C188.242 25.41 188.552 25.5277 188.85 25.7067C189.152 25.8857 189.402 26.1558 189.601 26.517C189.8 26.8783 189.899 27.3622 189.899 27.9688V33H188.726V31.9659H188.666C188.587 32.1316 188.454 32.3089 188.268 32.4979C188.083 32.6868 187.836 32.8475 187.528 32.9801C187.219 33.1127 186.843 33.179 186.399 33.179ZM186.578 32.125C187.042 32.125 187.433 32.0339 187.751 31.8516C188.073 31.6693 188.315 31.4339 188.477 31.1456C188.643 30.8572 188.726 30.554 188.726 30.2358V29.1619C188.676 29.2216 188.567 29.2763 188.398 29.326C188.232 29.3724 188.04 29.4138 187.821 29.4503C187.606 29.4834 187.395 29.5133 187.19 29.5398C186.987 29.563 186.823 29.5829 186.697 29.5994C186.393 29.6392 186.107 29.7038 185.842 29.7933C185.58 29.8795 185.368 30.0104 185.206 30.1861C185.047 30.3584 184.967 30.5937 184.967 30.892C184.967 31.2997 185.118 31.608 185.42 31.8168C185.725 32.0223 186.111 32.125 186.578 32.125Z" fill="#FAFFFF"/>
<g clip-path="url(#clip0_380_3112)">
<path d="M71.6429 52.5117H77.3047V54.713H71.6429V66.6774C71.6429 68.6525 72.1371 70.1275 73.1134 71.0649C73.9984 71.9139 75.2922 72.3137 76.9483 72.2433L77.3047 72.2284V74.2918L76.9932 74.3203C76.7087 74.3457 76.4287 74.3592 76.1547 74.3592C74.3652 74.3592 72.8274 73.8126 71.6729 72.757C70.1859 71.3988 69.4013 69.2964 69.4013 66.6774V48.6005L71.6444 48V52.5117H71.6429ZM100.524 63.4789V74.3233H98.3226V70.1395C96.3595 73.0519 93.134 74.8144 89.639 74.8144C83.6373 74.8144 78.7542 69.7292 78.7542 63.4789C78.7542 57.2286 83.6373 51.9787 89.639 51.9787C95.6407 51.9787 100.524 57.1373 100.524 63.4789ZM98.3226 63.4789C98.3226 58.3742 94.4278 54.2218 89.639 54.2218C84.8502 54.2218 80.9554 58.3742 80.9554 63.4789C80.9554 68.5836 84.8502 72.6132 89.639 72.6132C94.4278 72.6132 98.3226 68.5147 98.3226 63.4789ZM57.4054 62.1073C53.3982 61.0022 51.3647 59.9315 51.3647 57.8037C51.3647 55.6758 53.7112 54.111 56.9441 54.111C60.7087 54.111 63.7604 56.5982 63.7604 56.5982L64.9853 54.7624C64.9853 54.7624 61.4469 51.9787 56.9456 51.9787C52.4444 51.9787 49.1485 54.4464 49.1485 57.8456C49.1485 61.8946 52.9909 63.1105 56.9996 64.2486C60.6578 65.2863 63.0552 66.3015 63.0552 68.7858C63.0552 71.0439 60.6054 72.6836 57.2302 72.6836C52.6196 72.6836 49.3312 69.4836 49.3312 69.4836L48 71.2236C48 71.2236 51.6373 74.8159 57.1882 74.8159C61.8707 74.8159 65.2699 72.2628 65.2699 68.7438C65.2699 64.4073 60.9078 63.0641 57.4039 62.1088L57.4054 62.1073ZM145.129 65.6112C145.129 69.6678 142.167 72.6117 138.087 72.6117C134.006 72.6117 131.085 69.6678 131.085 65.6112V52.5132H128.884V65.6127C128.884 70.9451 132.755 74.8159 138.087 74.8159C143.419 74.8159 147.33 70.9466 147.33 65.6127V52.5132H145.129V65.6127V65.6112ZM107.443 54.1754C105.636 55.8046 104.682 58.2409 104.682 61.2223V74.3218H106.883V61.2223C106.883 58.8653 107.559 57.0504 108.89 55.827C110.31 54.5243 112.467 53.9553 115.128 54.1784L115.498 54.2098V52.1359L115.191 52.1044C111.996 51.775 109.315 52.4893 107.443 54.1769V54.1754ZM172.603 63.3546C172.603 69.6738 167.719 74.8129 161.718 74.8129C158.217 74.8129 154.991 73.0385 153.034 70.108V83.1251L150.833 83.7151V52.5132H153.034V56.5054C155.023 53.7591 158.175 51.9802 161.718 51.9802C167.719 51.9802 172.603 57.0834 172.603 63.3576V63.3546ZM170.401 63.3546C170.401 58.3188 166.507 54.2203 161.718 54.2203C156.929 54.2203 153.034 58.3188 153.034 63.3546C153.034 68.3905 156.929 72.6117 161.718 72.6117C166.507 72.6117 170.401 68.4593 170.401 63.3546ZM119.764 48L117.521 48.6005V66.6789C117.521 69.2964 118.307 71.3988 119.793 72.7584C120.947 73.8141 122.485 74.3607 124.275 74.3607C124.549 74.3607 124.827 74.3487 125.113 74.3218L125.425 74.2933V72.2299L125.068 72.2448C123.411 72.3152 122.118 71.9154 121.233 71.0664C120.258 70.1305 119.763 68.654 119.763 66.6789V54.7145H125.423V52.5132H119.763V48H119.764Z" fill="#FAFFFF"/>
<path d="M190.973 58.6405C190.973 60.6994 190.341 62.3691 189.154 63.5415C187.568 65.1543 185.09 65.9389 182.254 65.9389C182.096 65.9389 181.945 65.9359 181.794 65.9329L181.03 63.0818C181.403 63.1193 181.816 63.1372 182.279 63.1372C185.476 63.1372 187.42 61.5545 187.42 58.7887C187.42 56.023 185.56 54.7951 182.628 54.7951C181.458 54.7951 180.602 54.8999 180.144 55.0002V74.3215H176.595V52.4771C178.026 52.227 179.95 52.0278 182.507 52.0278C185.398 52.0278 187.521 52.6597 188.895 53.8487C190.166 54.9209 190.972 56.604 190.972 58.639L190.973 58.6405ZM202.002 65.322C203.153 64.9237 204.159 64.3382 204.941 63.5415C206.129 62.3691 206.76 60.7009 206.76 58.6405C206.76 56.58 205.955 54.9209 204.684 53.8502C203.309 52.6597 201.187 52.0293 198.295 52.0293C195.739 52.0293 193.815 52.2285 192.384 52.4786V74.323H195.933V55.0017C196.391 54.9014 197.247 54.7966 198.417 54.7966C201.349 54.7966 203.209 56.1547 203.209 58.7902C203.209 61.556 201.265 63.1387 198.068 63.1387C197.605 63.1387 197.192 63.1208 196.819 63.0833L203.309 74.3245H207.201L202.003 65.3235L202.002 65.322Z" fill="#FAFFFF"/>
<path d="M163.147 86.8355V95.8111H161.072V86.8355H158.147V84.9023H166.072V86.8355H163.147ZM176.576 90.3096C176.576 93.4856 174.329 95.9998 171.247 95.9998C168.165 95.9998 165.901 93.4856 165.901 90.3096C165.901 87.1335 168.149 84.6343 171.247 84.6343C174.345 84.6343 176.576 87.15 176.576 90.3096ZM174.486 90.3096C174.486 88.282 173.039 86.6004 171.247 86.6004C169.455 86.6004 167.993 88.282 167.993 90.3096C167.993 92.3371 169.44 94.0352 171.247 94.0352C173.054 94.0352 174.486 92.3535 174.486 90.3096ZM182.273 91.9133H179.71V95.8111H177.635V84.9009H182.225C184.504 84.9009 185.824 86.2845 185.824 88.4228C185.824 90.4503 184.426 91.9118 182.271 91.9118L182.273 91.9133ZM179.71 86.834V90.0101H182.21C183.168 90.0101 183.751 89.5234 183.751 88.4228C183.751 87.3222 183.168 86.834 182.21 86.834H179.71ZM194.053 95.8096H191.977V86.834H190.72V84.9009H194.053V95.8111V95.8096ZM206.946 90.3081C206.946 93.4841 204.698 95.9983 201.616 95.9983C198.535 95.9983 196.271 93.4841 196.271 90.3081C196.271 87.132 198.518 84.6328 201.616 84.6328C204.715 84.6328 206.946 87.1485 206.946 90.3081ZM204.855 90.3081C204.855 88.2805 203.409 86.5989 201.616 86.5989C199.824 86.5989 198.362 88.2805 198.362 90.3081C198.362 92.3356 199.809 94.0337 201.616 94.0337C203.424 94.0337 204.855 92.352 204.855 90.3081Z" fill="#FAFFFF"/>
</g>
<g clip-path="url(#clip1_380_3112)">
<path opacity="0.997" fill-rule="evenodd" clip-rule="evenodd" d="M268.683 31.9854C281.162 31.9854 293.64 31.9854 306.118 31.9854C305.663 34.2897 305.2 36.5926 304.73 38.8941C292.252 38.923 279.774 38.9326 267.296 38.923C267.755 36.6097 268.217 34.2972 268.683 31.9854Z" fill="white"/>
<path opacity="0.997" fill-rule="evenodd" clip-rule="evenodd" d="M266.4 42.71C278.878 42.71 291.356 42.71 303.835 42.71C303.387 45.0159 302.924 47.3188 302.447 49.6187C289.969 49.6476 277.491 49.6573 265.013 49.6476C265.471 47.3343 265.934 45.0217 266.4 42.71Z" fill="white"/>
<path opacity="0.996" fill-rule="evenodd" clip-rule="evenodd" d="M264.175 53.7523C267.991 53.7475 271.806 53.7523 275.622 53.7668C276.736 53.8492 277.758 54.196 278.686 54.8074C279.903 55.7507 280.39 56.9889 280.146 58.5219C279.87 60.2077 279.008 61.4939 277.559 62.381C276.65 62.9025 275.686 63.2878 274.668 63.5373C275.694 63.6989 276.629 64.0747 277.472 64.6647C278.127 65.1992 278.518 65.8883 278.643 66.7315C278.818 68.6816 278.231 70.3582 276.88 71.7613C275.535 73.0934 273.912 73.8305 272.009 73.9727C271.355 74.0479 270.7 74.0959 270.043 74.1172C266.642 74.1317 263.24 74.1366 259.839 74.1317C261.269 67.3354 262.715 60.5422 264.175 53.7523ZM268.973 57.3946C270.149 57.3897 271.324 57.3946 272.5 57.409C273.793 57.4876 274.376 58.1669 274.249 59.447C273.915 61.164 272.869 61.9784 271.113 61.8896C270.081 61.9136 269.05 61.909 268.02 61.8752C268.348 60.3839 268.666 58.8904 268.973 57.3946ZM267.239 65.5463C268.357 65.5414 269.474 65.5463 270.592 65.5608C272.705 65.6995 273.365 66.7546 272.572 68.7261C272.128 69.5936 271.42 70.1093 270.448 70.2726C270.209 70.3177 269.968 70.3466 269.725 70.3593C268.559 70.3738 267.393 70.3787 266.227 70.3738C266.568 68.7654 266.905 67.1562 267.239 65.5463Z" fill="white"/>
<path opacity="0.994" fill-rule="evenodd" clip-rule="evenodd" d="M223.185 69.767C223.185 69.3817 223.185 68.9961 223.185 68.6108C223.242 68.2387 223.3 67.8629 223.358 67.4834C225.256 67.4834 227.154 67.4834 229.053 67.4834C228.629 69.2823 229.333 70.2796 231.163 70.4753C232.034 70.5686 232.882 70.4724 233.707 70.1862C234.729 69.7384 235.278 68.9533 235.354 67.8303C235.324 67.3027 235.074 66.922 234.603 66.6885C234.407 66.5942 234.205 66.5173 233.996 66.4572C232.25 65.9993 230.506 65.5368 228.764 65.0697C225.562 64.0573 224.545 61.9714 225.714 58.8113C226.171 57.6995 226.87 56.7697 227.81 56.0218C229.224 54.9251 230.823 54.2457 232.608 53.9839C234.106 53.7673 235.609 53.7239 237.118 53.8538C238.031 53.9284 238.917 54.1211 239.777 54.4319C241.866 55.279 242.738 56.8255 242.393 59.0715C242.35 59.3818 242.297 59.6901 242.234 59.9965C240.326 59.9965 238.419 59.9965 236.511 59.9965C236.539 59.7935 236.572 59.5912 236.612 59.3895C236.753 58.239 236.256 57.5597 235.123 57.3515C234.03 57.1697 233.037 57.4009 232.146 58.0453C231.521 58.5698 231.247 59.2394 231.322 60.0543C231.398 60.3527 231.557 60.5984 231.799 60.7914C231.993 60.9368 232.205 61.0525 232.435 61.1383C233.963 61.5661 235.495 61.9804 237.031 62.3813C237.981 62.6302 238.886 62.9869 239.748 63.4509C240.825 64.1577 241.364 65.1599 241.367 66.4572C241.232 69.2346 239.96 71.2965 237.551 72.6433C235.71 73.5828 233.754 74.0742 231.683 74.1175C230.274 74.1872 228.877 74.0907 227.492 73.8285C226.432 73.6308 225.478 73.2067 224.63 72.5566C223.784 71.8148 223.303 70.8849 223.185 69.767Z" fill="white"/>
<path opacity="0.996" fill-rule="evenodd" clip-rule="evenodd" d="M246.282 53.8101C251.447 53.8101 256.611 53.8101 261.776 53.8101C261.511 55.1119 261.241 56.4127 260.967 57.7125C257.691 57.7125 254.414 57.7125 251.138 57.7125C250.832 59.1177 250.534 60.5245 250.242 61.9329C253.316 61.9329 256.39 61.9329 259.464 61.9329C259.188 63.2346 258.908 64.5354 258.625 65.8354C255.542 65.8258 252.458 65.8354 249.375 65.8643C249.068 67.2963 248.76 68.7272 248.45 70.1569C251.803 70.1619 255.156 70.1763 258.51 70.2003C258.221 71.5011 257.931 72.8019 257.642 74.1027C252.401 74.1412 247.159 74.1412 241.917 74.1027C243.379 67.34 244.834 60.5758 246.282 53.8101Z" fill="white"/>
<path opacity="0.995" fill-rule="evenodd" clip-rule="evenodd" d="M283.688 53.8099C287.494 53.8051 291.3 53.8099 295.106 53.8244C296.136 53.7951 297.128 53.9686 298.084 54.3447C299.283 54.9485 299.934 55.9265 300.035 57.2788C300.11 60.9132 298.371 63.1055 294.817 63.8551C294.501 63.9242 294.183 63.982 293.863 64.0285C293.823 64.0392 293.794 64.0632 293.777 64.1008C294.413 64.1303 295.039 64.2216 295.656 64.3754C296.747 64.663 297.339 65.3713 297.433 66.5001C297.463 66.7883 297.477 67.0773 297.477 67.3673C297.412 68.7745 297.34 70.1811 297.26 71.5877C297.233 72.4078 297.242 73.2267 297.289 74.0448C301.444 67.3433 305.592 60.6368 309.733 53.9255C312.075 53.8966 314.416 53.887 316.758 53.8966C317.999 60.6436 319.252 67.3887 320.516 74.1315C318.357 74.141 316.199 74.1315 314.04 74.1026C313.85 72.7645 313.667 71.4252 313.491 70.0845C310.745 70.075 307.999 70.0845 305.253 70.1134C304.497 71.4458 303.746 72.7801 302.998 74.1171C299.018 74.1315 295.039 74.1364 291.059 74.1315C291.054 73.6011 291.068 73.0709 291.103 72.5416C291.239 71.0003 291.369 69.4587 291.493 67.9165C291.51 67.5127 291.418 67.1369 291.218 66.7891C291.031 66.5628 290.795 66.4133 290.51 66.3411C290.263 66.2838 290.012 66.2451 289.759 66.2255C289.267 66.2205 288.776 66.2159 288.284 66.211C287.782 66.2113 287.286 66.2304 286.796 66.2688C286.227 68.8889 285.663 71.5099 285.105 74.1315C283.177 74.141 281.25 74.1315 279.323 74.1026C280.787 67.3401 282.242 60.576 283.688 53.8099ZM288.66 57.5678C289.769 57.557 290.877 57.5714 291.984 57.6112C292.4 57.6323 292.805 57.7093 293.199 57.8424C293.864 58.1265 294.201 58.6323 294.21 59.3601C294.073 61.4197 292.975 62.4649 290.915 62.4965C289.816 62.5109 288.718 62.5158 287.62 62.5109C287.966 60.8632 288.313 59.2155 288.66 57.5678ZM312.075 57.8858C312.104 57.8858 312.133 57.8858 312.162 57.8858C312.427 60.6998 312.697 63.5134 312.971 66.3266C311.121 66.3315 309.271 66.3266 307.421 66.3122C308.991 63.5134 310.542 60.7046 312.075 57.8858Z" fill="white"/>
<path opacity="0.996" fill-rule="evenodd" clip-rule="evenodd" d="M341.587 53.8105C341.587 53.8587 341.587 53.9069 341.587 53.9551C341.309 55.2025 341.039 56.4551 340.777 57.713C337.501 57.713 334.225 57.713 330.949 57.713C330.65 59.1197 330.351 60.5266 330.053 61.9334C333.126 61.9334 336.2 61.9334 339.274 61.9334C339.01 63.2276 338.73 64.5188 338.436 65.8069C335.353 65.8358 332.269 65.8454 329.186 65.8358C328.879 67.2797 328.581 68.7251 328.289 70.1719C331.633 70.1719 334.976 70.1719 338.32 70.1719C338.04 71.4898 337.751 72.805 337.453 74.1177C332.211 74.1371 326.969 74.1371 321.728 74.1177C323.195 67.352 324.65 60.583 326.092 53.8105C331.257 53.8105 336.422 53.8105 341.587 53.8105Z" fill="white"/>
<path opacity="0.997" fill-rule="evenodd" clip-rule="evenodd" d="M258.914 78.3232C271.392 78.3232 283.87 78.3232 296.348 78.3232C295.893 80.6277 295.431 82.9304 294.961 85.232C282.483 85.2609 270.005 85.2705 257.526 85.2609C257.985 82.9475 258.448 80.6349 258.914 78.3232Z" fill="white"/>
<path opacity="0.997" fill-rule="evenodd" clip-rule="evenodd" d="M292.676 95.985C280.197 95.985 267.719 95.985 255.241 95.985C255.7 93.6716 256.162 91.3591 256.629 89.0474C269.107 89.0474 281.585 89.0474 294.063 89.0474C293.612 91.3622 293.149 93.6748 292.676 95.985Z" fill="white"/>
</g>
<defs>
<clipPath id="clip0_380_3112">
<rect width="159.199" height="48" fill="white" transform="translate(48 48)"/>
</clipPath>
<clipPath id="clip1_380_3112">
<rect width="118.403" height="64" fill="white" transform="translate(223.199 32)"/>
</clipPath>
</defs>
</svg>
