<svg width="20" height="20" viewBox="0 0 20 20" fill="none" xmlns="http://www.w3.org/2000/svg">
<path fill-rule="evenodd" clip-rule="evenodd" d="M5.73112 18.833C5.22404 19.0977 4.6106 19.0511 4.14933 18.7129C3.68807 18.3746 3.45921 17.8035 3.55921 17.2404L4.36855 12.6014L0.96113 9.33607C0.544632 8.93888 0.391992 8.33847 0.568226 7.79059C0.74446 7.24271 1.21852 6.84388 1.78847 6.764L6.51945 6.08772L8.65533 1.82694C8.90858 1.31595 9.42959 0.992676 9.9999 0.992676C10.5702 0.992676 11.0912 1.31595 11.3445 1.82694L13.4803 6.08772L18.2113 6.764C18.7813 6.84388 19.2553 7.24271 19.4316 7.79059C19.6078 8.33847 19.4552 8.93888 19.0387 9.33607L15.6312 12.6014L16.4406 17.2414C16.5406 17.8045 16.3117 18.3756 15.8505 18.7139C15.3892 19.0521 14.7757 19.0987 14.2687 18.834L9.9999 16.6281L5.73112 18.833Z" fill="#1F8EF5"/>
</svg>
