<svg width="20" height="19" viewBox="0 0 20 19" fill="none" xmlns="http://www.w3.org/2000/svg">
<path fill-rule="evenodd" clip-rule="evenodd" d="M5.73112 18.7683C5.22404 19.033 4.6106 18.9864 4.14933 18.6482C3.68807 18.3099 3.45921 17.7389 3.55921 17.1757L4.36855 12.5367L0.96113 9.27137C0.544632 8.87418 0.391992 8.27377 0.568226 7.72589C0.74446 7.17801 1.21852 6.77919 1.78847 6.6993L6.51945 6.02302L8.65533 1.76224C8.90858 1.25125 9.42959 0.927979 9.9999 0.927979C10.5702 0.927979 11.0912 1.25125 11.3445 1.76224L13.4803 6.02302L18.2113 6.6993C18.7813 6.77919 19.2553 7.17801 19.4316 7.72589C19.6078 8.27377 19.4552 8.87418 19.0387 9.27137L15.6312 12.5367L16.4406 17.1767C16.5406 17.7399 16.3117 18.3109 15.8505 18.6492C15.3892 18.9874 14.7757 19.034 14.2687 18.7693L9.9999 16.5634L5.73112 18.7683Z" fill="#FFE94D"/>
</svg>
